SplineFontDB: 3.2
FontName: AtkinsonHyperPro-BoldItalic
FullName: Atkinson Hyperlegible Pro Bold Italic
FamilyName: Atkinson Hyperlegible Pro
Weight: Bold
Copyright: Copyright 2020 Braille Institute of America, Inc.
UComments: "Update by Jacob Perez+AAoA-https://jacobxperez.github.io/atkinson-hyperlegible-pro/"
Version: 1.4.0-prerelease
ItalicAngle: -12
UnderlinePosition: -106
UnderlineWidth: 57
Ascent: 800
Descent: 200
InvalidEm: 0
sfntRevision: 0x00010000
LayerCount: 2
Layer: 0 0 "Back" 1
Layer: 1 0 "Fore" 0
XUID: [1021 466 782043844 14962]
StyleMap: 0x0021
FSType: 0
OS2Version: 4
OS2_WeightWidthSlopeOnly: 0
OS2_UseTypoMetrics: 1
CreationTime: 1618935638
ModificationTime: 1697842556
PfmFamily: 81
TTFWeight: 700
TTFWidth: 5
LineGap: 0
VLineGap: 0
Panose: 0 0 0 0 0 0 0 0 0 0
OS2TypoAscent: 950
OS2TypoAOffset: 0
OS2TypoDescent: -290
OS2TypoDOffset: 0
OS2TypoLinegap: 0
OS2WinAscent: 950
OS2WinAOffset: 0
OS2WinDescent: 290
OS2WinDOffset: 0
HheadAscent: 950
HheadAOffset: 0
HheadDescent: -290
HheadDOffset: 0
OS2SubXSize: 650
OS2SubYSize: 699
OS2SubXOff: 0
OS2SubYOff: 140
OS2SupXSize: 650
OS2SupYSize: 699
OS2SupXOff: 0
OS2SupYOff: 479
OS2StrikeYSize: 49
OS2StrikeYPos: 258
OS2CapHeight: 668
OS2XHeight: 496
OS2Vendor: 'NONE'
OS2CodePages: 20000003.00000000
OS2UnicodeRanges: 800000ef.0000204b.00000000.00000000
Lookup: 4 0 1 "'liga' Standard Ligatures lookup 0" { "'liga' Standard Ligatures lookup 0-1"  } ['liga' ('DFLT' <'dflt' > 'grek' <'dflt' > 'latn' <'MOL ' 'dflt' > ) ]
Lookup: 1 0 0 "'zero' Slashed Zero lookup 0" { "'zero' Slashed Zero lookup 0-1"  } ['zero' ('DFLT' <'dflt' > 'grek' <'dflt' > 'latn' <'MOL ' 'dflt' > ) ]
Lookup: 1 0 0 "'aalt' Access All Alternates lookup 0" { "'aalt' Access All Alternates lookup 0 subtable"  } ['aalt' ('DFLT' <'dflt' > 'grek' <'dflt' > 'latn' <'dflt' > ) ]
Lookup: 3 0 0 "'aalt' Access All Alternates lookup 1" { "'aalt' Access All Alternates lookup 1 subtable"  } ['aalt' ('DFLT' <'dflt' > 'grek' <'dflt' > 'latn' <'dflt' > ) ]

StartChar: .notdef
Encoding: 256 -1 0
Width: 676
GlyphClass: 1
Flags: W
HStem: 0 21<158 528> 680 20<157 528>
VStem: 129 21<49 650> 536 20<47 652>
DStem2: 157 680 150 650 0.513698 -0.857971<22.1432 360.147 396.696 737.787> 150 49 158 21 0.513896 0.857853<0 339.381 374.897 715.649>
LayerCount: 2
Fore
SplineSet
158 21 m 1
 528 21 l 1
 343 329 l 1
 158 21 l 1
150 49 m 1
 330 350 l 1
 150 650 l 1
 150 49 l 1
536 47 m 1
 536 652 l 1
 355 350 l 1
 536 47 l 1
342 371 m 1
 528 680 l 1
 157 680 l 1
 342 371 l 1
129 0 m 1
 129 700 l 1
 556 700 l 1
 556 0 l 1
 129 0 l 1
EndSplineSet
EndChar

StartChar: zero
Encoding: 48 48 5
Width: 659
GlyphClass: 1
Flags: W
HStem: -12 113<249.782 374.404> 567 113<296.761 422.608>
VStem: 47 155<156.736 426.087> 470 155<243.576 512.346>
DStem2: 291 544 230 450 0.433731 -0.901042<58.2403 351.991>
LayerCount: 2
Fore
SplineSet
202 273 m 0
 202 161.538212348 240.716298595 101 312 101 c 0
 338.666666667 101 363 110 385 128 c 1
 230 450 l 1
 212.962224759 398.886674277 202 329.58975348 202 273 c 0
470 396 m 0
 470 508.30459893 432.242724458 567 360 567 c 0
 335.333333333 567 312.333333333 559.333333333 291 544 c 1
 444 227 l 1
 459.280915211 270.932631234 470 340.606682361 470 396 c 0
625 398 m 0
 625 146.903811736 499.039661429 -12 300 -12 c 0
 137.472261964 -12 47 89.2001981653 47 271 c 0
 47 523.114829987 171.6642549 680 372 680 c 0
 535.890344839 680 625 580.676194642 625 398 c 0
EndSplineSet
Substitution2: "'zero' Slashed Zero lookup 0-1" zero.alt1
Substitution2: "'aalt' Access All Alternates lookup 0 subtable" zero.alt1
Substitution2: "'tnum' Tabular Numbers lookup 14 subtable" zero.tf
EndChar

StartChar: one
Encoding: 49 49 6
Width: 455
GlyphClass: 1
Flags: W
HStem: 0 21G<132 291.222> 449 122<98 227.054> 648 20G<286.717 428>
VStem: 132 155<0 155>
DStem2: 132 0 287 0 0.207912 0.978148<32.2263 459.148>
LayerCount: 2
Fore
SplineSet
98 571 m 1
 214.273206532 571 263.433108861 593.492974179 310 668 c 1
 428 668 l 1
 287 0 l 1
 132 0 l 1
 228 449 l 1
 72 449 l 1
 98 571 l 1
EndSplineSet
Substitution2: "'tnum' Tabular Numbers lookup 14 subtable" one.tf
Substitution2: "'sups' Superscript lookup 9 subtable" uni00B9
AlternateSubs2: "'aalt' Access All Alternates lookup 1 subtable" uni00B9 one.tf
EndChar

StartChar: two
Encoding: 50 50 7
Width: 587
GlyphClass: 1
Flags: W
HStem: 0 125<204 478> 568 112<264.521 394.711>
VStem: 420 158<423.479 544.328>
LayerCount: 2
Fore
SplineSet
578 502 m 0
 578 374.26941314 452.254399702 247.515158294 204 125 c 1
 504 125 l 1
 478 0 l 1
 -35 0 l 1
 -9 125 l 1
 279.303591837 272.556956452 420 392.26369067 420 490 c 0
 420 536.888223161 385.69727169 568 334 568 c 0
 284.024735725 568 236.976483506 538.501492656 208 489 c 1
 81 539 l 1
 129.428776816 625.095603229 234.175462855 680 350 680 c 0
 486.198141868 680 578 608.330128301 578 502 c 0
EndSplineSet
Substitution2: "'tnum' Tabular Numbers lookup 14 subtable" two.tf
Substitution2: "'sups' Superscript lookup 9 subtable" uni00B2
AlternateSubs2: "'aalt' Access All Alternates lookup 1 subtable" uni00B2 two.tf
EndChar

StartChar: three
Encoding: 51 51 8
Width: 619
GlyphClass: 1
Flags: W
HStem: -12 113<194.694 342.257> 291 106<227 331.223> 567 113<245.517 394.143>
VStem: 381 165.912<136.161 248.37> 419 160<438.977 540.924>
LayerCount: 2
Fore
SplineSet
579 513 m 0xe8
 579 432.560965518 541.499340113 378.612647786 465 349 c 1
 518.097038043 319.213856707 546.912194367 273.517576103 546.912194367 219.100214741 c 0
 546.912194367 97.3070379317 414.517800526 -12 267 -12 c 0
 131.903780265 -12 45.6787687307 38.2153323878 6 140 c 1
 155 190 l 1
 164.270448388 133.218503617 205.177087812 101 268 101 c 0
 333.942032192 101 381 138.063355176 381 190 c 0xf0
 381 258.447673924 324.27515456 291 205 291 c 1
 227 397 l 1
 352.512089258 397 419 428.512499362 419 488 c 0
 419 536.583616209 383.193370981 567 326 567 c 0
 260.690355816 567 218.914327485 538.921030138 204 485 c 1
 77 535 l 1
 129.432843798 633.907409894 214.30678558 680 344 680 c 0
 484.161509512 680 579 612.604136547 579 513 c 0xe8
EndSplineSet
Substitution2: "'tnum' Tabular Numbers lookup 14 subtable" three.tf
Substitution2: "'sups' Superscript lookup 9 subtable" uni00B3
AlternateSubs2: "'aalt' Access All Alternates lookup 1 subtable" uni00B3 three.tf
EndChar

StartChar: four
Encoding: 52 52 9
Width: 646
GlyphClass: 1
Flags: W
HStem: 0 21G<294 454.255> 141 134<193 324 508 572> 648 20G<401.096 592>
DStem2: 7 252 193 275 0.705401 0.708809<147.507 426.802> 294 0 450 0 0.207912 0.978148<32.4342 144.156 313.484 479.542>
LayerCount: 2
Fore
SplineSet
193 275 m 1
 352 275 l 1
 394 469 l 1
 193 275 l 1
294 0 m 1
 324 141 l 1
 -16 141 l 1
 7 252 l 1
 421 668 l 1
 592 668 l 1
 508 275 l 1
 600 275 l 1
 572 141 l 1
 480 141 l 1
 450 0 l 1
 294 0 l 1
EndSplineSet
Substitution2: "'tnum' Tabular Numbers lookup 14 subtable" four.tf
Substitution2: "'sups' Superscript lookup 9 subtable" uni2074
AlternateSubs2: "'aalt' Access All Alternates lookup 1 subtable" four.tf uni2074
EndChar

StartChar: five
Encoding: 53 53 10
Width: 616
GlyphClass: 1
Flags: W
HStem: -12 112<199.44 340.686> 337 111<231.204 345.34> 544 124<259 560>
VStem: 388 156<149.723 293.815>
LayerCount: 2
Fore
SplineSet
544 242 m 0
 544 90.4177909517 432.711376761 -12 268 -12 c 0
 143.042762945 -12 42.9195500377 49.430178437 17 142 c 1
 156 189 l 1
 165.664810329 135.843543191 211.174028088 100 269 100 c 0
 340.259615219 100 388 149.345103597 388 223 c 0
 388 291.883378935 344.070658437 337 277 337 c 0
 229.655789467 337 188.142959669 313.768049379 168 276 c 1
 41 327 l 1
 156 668 l 1
 586 668 l 1
 560 544 l 1
 259 544 l 1
 217 419 l 1
 250.403990344 437.706234592 291.579051977 448 333 448 c 0
 460.118975686 448 544 366.106677684 544 242 c 0
EndSplineSet
Substitution2: "'tnum' Tabular Numbers lookup 14 subtable" five.tf
Substitution2: "'aalt' Access All Alternates lookup 0 subtable" five.tf
EndChar

StartChar: six
Encoding: 54 54 11
Width: 629
GlyphClass: 1
Flags: W
HStem: -12 113<230.76 354.739> 339 113<253.769 372.501> 570 110<290.578 416.307>
VStem: 43 149<140.258 291.639> 407 155<152.937 303.664>
LayerCount: 2
Fore
SplineSet
192 209 m 0
 192 144.449628917 232.633449265 101 293 101 c 0
 357.433761043 101 405.653622904 154.295636794 407 227 c 0
 407 299.168620909 371.791905982 339 308 339 c 0
 235.60699597 339 192 290.130090724 192 209 c 0
562 243 m 0
 562 96.7931651817 445.527317276 -12 289 -12 c 0
 130.128501881 -12 43 83.6288435279 43 258 c 0
 43 506.863897674 177.159965547 680 370 680 c 0
 461.255842263 680 530.398045404 645.955361905 567 583 c 1
 429 535 l 1
 413.885616492 558.358592695 388.274520421 570 352 570 c 0
 283.789282307 570 233.68293739 508.885442942 220 409 c 1
 260.337627251 440.028944039 296.250795134 452 349 452 c 0
 474.195531036 452 562 365.844441251 562 243 c 0
EndSplineSet
Substitution2: "'tnum' Tabular Numbers lookup 14 subtable" six.tf
Substitution2: "'aalt' Access All Alternates lookup 0 subtable" six.tf
EndChar

StartChar: seven
Encoding: 55 55 12
Width: 561
GlyphClass: 1
Flags: W
HStem: 0 21G<13 207.738> 543 125<80 400>
VStem: 13 181<0 181>
LayerCount: 2
Fore
SplineSet
13 0 m 1
 400 543 l 1
 53 543 l 1
 80 668 l 1
 593 668 l 1
 567 543 l 1
 194 0 l 1
 13 0 l 1
EndSplineSet
Substitution2: "'tnum' Tabular Numbers lookup 14 subtable" seven.tf
Substitution2: "'aalt' Access All Alternates lookup 0 subtable" seven.tf
EndChar

StartChar: eight
Encoding: 56 56 13
Width: 623
GlyphClass: 1
Flags: W
HStem: -12 126<202.097 357.102> 294 123<260.536 358.17> 555 125<269.716 366.643>
VStem: 12 155<147.261 256.892> 121 125<431.016 529.774> 382 126<442.075 541.612> 402 154<156.542 265.889>
LayerCount: 2
Fore
SplineSet
167 198 m 0xf2
 167 148.212298399 213.023687131 114 280 114 c 0
 351.946576209 114 402 155.437670515 402 215 c 0
 402 263.395167902 358.998273888 294 291 294 c 0
 214.335495014 294 167 257.35316515 167 198 c 0xf2
246 479 m 0xec
 246 443.73492586 272.303717379 417 307 417 c 0
 346.938033983 417 382 452.996951778 382 494 c 0
 382 528.964885758 355.964885758 555 321 555 c 0
 280.15344101 555 246 520.391179777 246 479 c 0xec
556 211 m 0xe2
 556 80.0086903251 439.648203266 -12 274 -12 c 0
 115.514751645 -12 12 66.2287054416 12 186 c 0xf2
 12 269.351622262 53.4486858474 328.300864356 147 378 c 1
 129.514818953 410.056165251 121 442.477975879 121 477 c 0
 121 590.923630477 214.464368022 680 334 680 c 0
 430.106393712 680 508 604.792380136 508 512 c 0xec
 508 463.95989072 484.606113859 402.606113859 455 373 c 1
 524.819869101 336.503250243 556 286.491555138 556 211 c 0xe2
EndSplineSet
Substitution2: "'tnum' Tabular Numbers lookup 14 subtable" eight.tf
Substitution2: "'aalt' Access All Alternates lookup 0 subtable" eight.tf
EndChar

StartChar: nine
Encoding: 57 57 14
Width: 576
GlyphClass: 1
Flags: W
HStem: 0 21G<106 280.919> 546 135<257.576 385.967>
VStem: 62 140<364.711 491.422> 106 174<0 174> 417 139<387.449 516.32>
LayerCount: 2
Fore
SplineSet
202 422 m 0xe8
 202 370.596664778 240.217245975 336 297 336 c 0
 363.336797087 336 417 387.874429483 417 452 c 0
 417 509.548930701 382.100040032 546 327 546 c 0
 255.983715044 546 202 492.448154676 202 422 c 0xe8
332 681 m 0
 459.741412295 681 556 591.187299865 556 472 c 0
 556 406.134137919 543.06442014 377.543189612 458.5 256.5 c 0
 404.643000944 179.410569978 281.838020086 2.52727761874 280 0 c 1
 106 0 l 1xd8
 271 222 l 1
 254 222 l 1
 142.215928046 225.726135732 62 308.44881153 62 420 c 0
 62 561.883960213 185.223489435 681 332 681 c 0
EndSplineSet
Substitution2: "'tnum' Tabular Numbers lookup 14 subtable" nine.tf
Substitution2: "'aalt' Access All Alternates lookup 0 subtable" nine.tf
EndChar

StartChar: A
Encoding: 65 65 15
Width: 698
GlyphClass: 2
Flags: W
HStem: 0 21G<-65 132.092 455.311 623> 119 128<255 427> 648 20G<317.204 515.323>
DStem2: -65 0 121 0 0.508034 0.861337<94.4943 230.524 375.321 578.832> 512 668 395 501 0.16392 -0.986474<145.562 401.372> 623 0 442 119 0.16392 -0.986474<-480.395 -275.787 -147.06 -27.0468>
AnchorPoint: "Anchor-2" 623 0 basechar 0
AnchorPoint: "Anchor-1" 427 668 basechar 0
AnchorPoint: "Anchor-0" 296 0 basechar 0
LayerCount: 2
Fore
SplineSet
255 247 m 1
 427 247 l 1
 395 501 l 1
 255 247 l 1
-65 0 m 1
 329 668 l 1
 512 668 l 1
 623 0 l 1
 458 0 l 1
 442 119 l 1
 187 119 l 1
 121 0 l 1
 -65 0 l 1
EndSplineSet
Substitution2: "Single Substitution lookup 12 subtable" ordfeminine
Substitution2: "'aalt' Access All Alternates lookup 0 subtable" ordfeminine
EndChar

StartChar: B
Encoding: 66 66 16
Width: 643
GlyphClass: 1
Flags: W
HStem: 0 131<166 392.769> 282 122<224 415.529> 539 129<253 452.379>
VStem: 433 167<170.27 263.934> 464 169<435.626 573.884>
DStem2: -23 0 138.155 0 0.207912 0.978148<167.433 321.786 446.526 584.605>
AnchorPoint: "Anchor-1" 336 668 basechar 0
LayerCount: 2
Fore
SplineSet
433 222 m 0xf0
 433 260.172469909 398.80353619 282 339 282 c 2
 198 282 l 1
 166 131 l 1
 313 131 l 2
 382.319397318 131 433 169.432790367 433 222 c 0xf0
464 484 m 0xe8
 464 519.36542601 437.939565431 539 391 539 c 2
 253 539 l 1
 224 404 l 1
 363 404 l 2
 423.856283841 404 464 435.797002898 464 484 c 0xe8
600 229 m 0xf0
 600 86.2867671358 480.554999205 0 283 0 c 2
 -23 0 l 1
 119 668 l 1
 413 668 l 2
 561.667122214 668 633 621.309389086 633 524 c 0xe8
 633 448.155120367 592.997728076 386.697084412 523 355 c 1
 574.169642242 331.608163547 600 289.340305397 600 229 c 0xf0
EndSplineSet
EndChar

StartChar: C
Encoding: 67 67 17
Width: 673
GlyphClass: 2
Flags: W
HStem: -12 132<263.409 420.624> 550 130<323.593 482.269>
VStem: 32 168<188.161 405.118>
AnchorPoint: "Anchor-1" 428 668 basechar 0
AnchorPoint: "Anchor-0" 311 0 basechar 0
LayerCount: 2
Fore
SplineSet
616 141 m 1
 550.62039619 40.0880028146 450.529724115 -12 322 -12 c 0
 141.424023742 -12 32 92.5188088845 32 265 c 0
 32 510.426266228 189.315391572 680 417 680 c 0
 547.01775451 680 638.514864933 624.165149151 671 525 c 1
 525 476 l 1
 503.521612197 526.116238209 463.500173521 550 401 550 c 0
 287.766153463 550 200 433.415109579 200 283 c 0
 200 181.174061757 250.578200088 121.433144262 338 120 c 0
 395.963310712 120 441.830611856 143.902678061 480 194 c 1
 616 141 l 1
EndSplineSet
EndChar

StartChar: D
Encoding: 68 68 18
Width: 690
GlyphClass: 2
Flags: W
HStem: 0 133<167 344.777> 537 131<253 427.86>
VStem: 491.119 167.928<280.096 480.238>
DStem2: -23 0 138.73 0 0.207912 0.978148<169.597 582.649>
AnchorPoint: "Anchor-1" 391 668 basechar 0
AnchorPoint: "Anchor-0" 292 0 basechar 0
LayerCount: 2
Fore
SplineSet
167 133 m 1
 230 133 l 2
 391.238937032 133 491.118590146 232.473752877 491.118590146 393.057432099 c 0
 491.118590146 497.87974843 442.166534742 537 311 537 c 2
 253 537 l 1
 167 133 l 1
-23 0 m 1
 119 668 l 1
 313 668 l 2
 536.312995547 668 659.046790033 571.128637834 659.046790033 394.87209693 c 0
 659.046790033 195.939774393 545.253281902 57.5948749245 347 15.5 c 0
 298.333333333 5.16666666667 249.333333333 0 200 0 c 2
 -23 0 l 1
EndSplineSet
EndChar

StartChar: E
Encoding: 69 69 19
Width: 582
GlyphClass: 2
Flags: W
HStem: 0 139<168 495> 274 139<226 414> 529 139<251 607>
DStem2: -23 0 138.455 0 0.207912 0.978148<175.674 313.753 455.745 574.408>
AnchorPoint: "Anchor-2" 463 0 basechar 0
AnchorPoint: "Anchor-1" 381 668 basechar 0
AnchorPoint: "Anchor-0" 238 0 basechar 0
LayerCount: 2
Fore
SplineSet
-23 0 m 1
 119 668 l 1
 637 668 l 1
 607 529 l 1
 251 529 l 1
 226 413 l 1
 443 413 l 1
 414 274 l 1
 197 274 l 1
 168 139 l 1
 524 139 l 1
 495 0 l 1
 -23 0 l 1
EndSplineSet
EndChar

StartChar: F
Encoding: 70 70 20
Width: 545
GlyphClass: 1
Flags: W
HStem: 0 21G<-23 142.307> 274 139<226 517> 529 139<251 571>
VStem: -23 161<0 161>
DStem2: -23 0 138 0 0.207912 0.978148<33.4738 313.753 455.745 574.408>
AnchorPoint: "Anchor-1" 350 668 basechar 0
LayerCount: 2
Fore
SplineSet
-23 0 m 1
 119 668 l 1
 600 668 l 1
 571 529 l 1
 251 529 l 1
 226 413 l 1
 546 413 l 1
 517 274 l 1
 197 274 l 1
 138 0 l 1
 -23 0 l 1
EndSplineSet
EndChar

StartChar: G
Encoding: 71 71 21
Width: 733
GlyphClass: 2
Flags: W
HStem: -12 129<260.851 407.518> 0 21G<508.378 621.286> 250 128<386 509> 550 130<319.717 480.974>
VStem: 31 168<182.018 402.865>
AnchorPoint: "Anchor-1" 440 668 basechar 0
AnchorPoint: "Anchor-0" 304 0 basechar 0
LayerCount: 2
Fore
SplineSet
199 278 m 0xb8
 199 175.455211919 251.645998312 117 344 117 c 0xb8
 425.084418882 117 491.221540894 163.83001186 505 231 c 2
 509 250 l 1
 359 250 l 1
 386 378 l 1
 698 378 l 1
 617 0 l 1
 510 0 l 1x78
 504 74 l 1
 448.666666667 16.6666666667 374.666666667 -12 282 -12 c 0
 132.397520153 -12 31 98.2849521982 31 261 c 0
 31 507.911988595 191.588096562 680 422 680 c 0
 549.996579739 680 637.393189063 630.303888816 677 535 c 1
 529 478 l 1
 512.611540515 520.609994666 459.954447624 550 400 550 c 0
 284.766218321 550 199 433.938251824 199 278 c 0xb8
EndSplineSet
EndChar

StartChar: H
Encoding: 72 72 22
Width: 695
GlyphClass: 1
Flags: W
HStem: 0 21G<-23 142.307 414 579.251> 274 139<226 472> 648 20G<114.749 279 551.765 717>
VStem: -23 161<0 161> 119 160<508 668> 414 161<0 161> 556 161<507 668>
DStem2: -23 0 138 0 0.207912 0.978148<33.4738 313.753 455.745 682.926> 414 0 575 0 0.207912 0.978148<33.4738 280.071 422.271 682.926>
AnchorPoint: "Anchor-1" 413 668 basechar 0
LayerCount: 2
Fore
SplineSet
-23 0 m 1xf4
 119 668 l 1
 279 668 l 1
 226 413 l 1
 502 413 l 1
 556 668 l 1
 717 668 l 1xea
 575 0 l 1
 414 0 l 1
 472 274 l 1
 197 274 l 1
 138 0 l 1
 -23 0 l 1xf4
EndSplineSet
EndChar

StartChar: I
Encoding: 73 73 23
Width: 459
GlyphClass: 2
Flags: W
HStem: 0 124<13 105 267 331> 544 124<129 195 355 447>
DStem2: 78.643 0 240.643 0 0.207912 0.978148<160.452 556.304>
AnchorPoint: "Anchor-2" 242 0 basechar 0
AnchorPoint: "Anchor-1" 301 668 basechar 0
AnchorPoint: "Anchor-0" 151 0 basechar 0
LayerCount: 2
Fore
SplineSet
-13 0 m 1
 13 124 l 1
 105 124 l 1
 195 544 l 1
 103 544 l 1
 129 668 l 1
 474 668 l 1
 447 544 l 1
 355 544 l 1
 267 124 l 1
 358 124 l 1
 331 0 l 1
 -13 0 l 1
EndSplineSet
EndChar

StartChar: J
Encoding: 74 74 24
Width: 566
GlyphClass: 1
Flags: W
HStem: -12 125<148.593 280.51> 648 20G<421.777 588>
VStem: 426 162<506 668>
DStem2: 282.035 -12 443.035 -12 0.207912 0.978148<159.205 695.072>
AnchorPoint: "Anchor-1" 507 668 basechar 0
LayerCount: 2
Fore
SplineSet
128 203 m 0
 128 141.231008744 154.348941494 113 212 113 c 0
 284.229613259 113 317.662187845 150.644552487 339 256 c 2
 426 668 l 1
 588 668 l 1
 500 256 l 2
 459.182193035 64.8984492089 371.667166883 -12 195 -12 c 0
 66.5601648483 -12 -21.5637434894 62.2928016479 -28 176 c 1
 129 228 l 1
 128.018350155 221.128451086 128 220.669697218 128 203 c 0
EndSplineSet
EndChar

StartChar: K
Encoding: 75 75 25
Width: 657
GlyphClass: 2
Flags: W
HStem: 0 21G<-23 142.264 400.819 577> 648 20G<114.749 279 478.521 715>
VStem: -23 161<0 161> 119 160<508 668> 501 214<454 668>
DStem2: -23 0 138 0 0.207912 0.978148<33.4738 234.901 469.085 682.926> 229 426 384 377 0.750574 0.660786<83.9605 364.066> 384 377 270 277 0.455693 -0.890137<37.0646 347.885>
AnchorPoint: "Anchor-1" 400 668 basechar 0
AnchorPoint: "Anchor-0" 265 0 basechar 0
LayerCount: 2
Fore
SplineSet
-23 0 m 1xe8
 119 668 l 1
 279 668 l 1xd8
 229 426 l 1
 501 668 l 1
 715 668 l 1
 384 377 l 1
 577 0 l 1
 411 0 l 1
 270 277 l 1
 180 197 l 1
 138 0 l 1
 -23 0 l 1xe8
EndSplineSet
EndChar

StartChar: L
Encoding: 76 76 26
Width: 543
GlyphClass: 2
Flags: W
HStem: 0 139<168 458> 648 20G<114.749 279>
VStem: 119 160<508 668>
DStem2: -23 0 138.455 0 0.207912 0.978148<175.674 682.926>
AnchorPoint: "Anchor-1" 216 668 basechar 0
AnchorPoint: "Anchor-0" 219 0 basechar 0
LayerCount: 2
Fore
SplineSet
-23 0 m 1
 119 668 l 1
 279 668 l 1
 168 139 l 1
 488 139 l 1
 458 0 l 1
 -23 0 l 1
EndSplineSet
EndChar

StartChar: M
Encoding: 77 77 27
Width: 858
GlyphClass: 1
Flags: W
HStem: 0 21G<-23 138.24 292.236 436.353 581 741.281> 648 20G<114.749 357.6 624.853 880>
VStem: -23 157<0 157> 581 156<0 156>
DStem2: -23 0 134 0 0.207912 0.978148<32.6421 577.489> 356 668 247 533 0.0878393 -0.996135<124.904 476.502> 394 193 426 0 0.459707 0.888071<0 417.592> 581 0 737 0 0.207912 0.978148<32.4342 521.518>
AnchorPoint: "Anchor-1" 487 668 basechar 0
LayerCount: 2
Fore
SplineSet
-23 0 m 1
 119 668 l 1
 356 668 l 1
 394 193 l 1
 635 668 l 1
 880 668 l 1
 737 0 l 1
 581 0 l 1
 690 510 l 1
 426 0 l 1
 294 0 l 1
 247 533 l 1
 134 0 l 1
 -23 0 l 1
EndSplineSet
EndChar

StartChar: N
Encoding: 78 78 28
Width: 715
GlyphClass: 2
Flags: W
HStem: 0 21G<-23 137.247 389.402 599.251> 648 20G<114.749 324.598 577.711 737>
VStem: -23 156<0 156> 582 155<513 668>
DStem2: -23 0 133 0 0.207912 0.978148<32.4342 528.251> 318 668 236 485 0.313289 -0.949658<148.098 510.71> 439.102 0 595 0 0.207912 0.978148<187.088 683.113>
AnchorPoint: "Anchor-1" 456 668 basechar 0
AnchorPoint: "Anchor-0" 285 0 basechar 0
LayerCount: 2
Fore
SplineSet
-23 0 m 1
 119 668 l 1
 318 668 l 1
 478 183 l 1
 582 668 l 1
 737 668 l 1
 595 0 l 1
 396 0 l 1
 236 485 l 1
 133 0 l 1
 -23 0 l 1
EndSplineSet
EndChar

StartChar: O
Encoding: 79 79 29
Width: 763
GlyphClass: 2
Flags: W
HStem: -12 130<274.14 435.561> 550 130<332.548 491.882>
VStem: 32 169<192.214 402.585> 564 168<266.739 474.426>
AnchorPoint: "Anchor-2" 636 10 basechar 0
AnchorPoint: "Anchor-1" 456 668 basechar 0
AnchorPoint: "Anchor-0" 329 0 basechar 0
LayerCount: 2
Fore
SplineSet
201 286 m 0
 201 184.014052092 259.155236367 118 349 118 c 0
 470.638312029 118 564 231.336746793 564 379 c 0
 564 482.183647964 504.511971898 550 414 550 c 0
 294.764995764 550 201 433.784230602 201 286 c 0
732 393 m 0
 732 160.165618461 563.235183879 -12 335 -12 c 0
 149.165674407 -12 32 96.6585957374 32 269 c 0
 32 503.823482151 200.889411271 680 426 680 c 0
 548.474236798 680 641.332136748 634.788288414 693 550 c 0
 719 507.333333333 732 455 732 393 c 0
EndSplineSet
Substitution2: "Single Substitution lookup 12 subtable" ordmasculine
Substitution2: "'aalt' Access All Alternates lookup 0 subtable" ordmasculine
EndChar

StartChar: P
Encoding: 80 80 30
Width: 628
GlyphClass: 1
Flags: W
HStem: 0 21G<-23 142.224> 232 131<216 424.157> 535 133<252 447.988>
VStem: -23 161<0 161> 470 168<407.335 512.342>
DStem2: -23 0 138 0 0.207912 0.978148<33.4738 270.592 404.758 580.485>
AnchorPoint: "Anchor-1" 348 668 basechar 0
LayerCount: 2
Fore
SplineSet
319 363 m 2
 417.987163854 363 470 399.167866194 470 468 c 0
 470 512.666666667 431.666666667 535 355 535 c 2
 252 535 l 1
 216 363 l 1
 319 363 l 2
638 490 m 0
 638 321.416171195 522.244181476 232 304 232 c 2
 187 232 l 1
 138 0 l 1
 -23 0 l 1
 119 668 l 1
 379 668 l 2
 556.277860321 668 638 611.835749564 638 490 c 0
EndSplineSet
EndChar

StartChar: Q
Encoding: 81 81 31
Width: 774
GlyphClass: 1
Flags: W
HStem: 14 131<275.458 432.07> 576 130<337.392 496.945>
VStem: 37 169<218.584 428.505> 569 168<292.961 500.758>
DStem2: 421 363 330 285 0.645035 -0.764153<0.905746 158.137 307.652 444.054>
LayerCount: 2
Fore
SplineSet
206 311 m 0
 206 210.786115424 264.652681222 145 354 145 c 0
 381.999999998 145 408.333333331 150.666666667 433 162 c 1
 330 285 l 1
 421 363 l 1
 524 243 l 1
 552.244084466 290.073474111 569 350.394770033 569 405 c 0
 569 509.0464331 510.268800965 576 419 576 c 0
 299.519146908 576 206 459.649887649 206 311 c 0
737 420 m 0
 737 308.499163147 694.877843229 201.179233287 622 127 c 1
 709 25 l 1
 617 -55 l 1
 523 56 l 1
 467.972211356 28.4861056781 404.854179473 14 340 14 c 0
 155.348806485 14 37 123.755823836 37 295 c 0
 37 530.521685798 205.220087094 706 431 706 c 0
 552.850364586 706 646.595327971 660.356384869 698 576 c 0
 724 533.333333333 737 481.333333333 737 420 c 0
EndSplineSet
EndChar

StartChar: R
Encoding: 82 82 32
Width: 644
GlyphClass: 2
Flags: W
HStem: 0 21G<-23 142.286 380.841 557> 535 133<252 443.41>
VStem: -23 161<0 161> 463 167<415.856 515.941>
DStem2: -23 0 138 0 0.207912 0.978148<33.4738 291.194 426.131 580.485> 420 269 263 252 0.453827 -0.89109<0 226.542>
AnchorPoint: "Anchor-1" 380 668 basechar 0
AnchorPoint: "Anchor-0" 269 0 basechar 0
LayerCount: 2
Fore
SplineSet
463 473 m 0
 463 516.920101627 428.881482103 535 346 535 c 2
 252 535 l 1
 220 384 l 1
 323 384 l 2
 421.776698122 384 463 410.206241908 463 473 c 0
630 489 m 0
 630 360.492577967 562.928286383 290.226973225 420 269 c 1
 557 0 l 1
 391 0 l 1
 263 252 l 1
 192 252 l 1
 138 0 l 1
 -23 0 l 1
 119 668 l 1
 369 668 l 2
 450.333333333 668 514.166666667 654.5 560.5 627.5 c 0
 606.833333333 600.5 630 554.333333333 630 489 c 0
EndSplineSet
EndChar

StartChar: S
Encoding: 83 83 33
Width: 642
GlyphClass: 2
Flags: W
HStem: -12 126<222.854 396.214> 551 129<243.997 410.957>
VStem: 61 163<447.33 530.598> 424 164<141.133 221.354>
AnchorPoint: "Anchor-1" 370 668 basechar 0
AnchorPoint: "Anchor-0" 288 0 basechar 0
LayerCount: 2
Fore
SplineSet
588 206 m 0
 588 76.6343280049 473.344584874 -12 306 -12 c 0
 161.244692955 -12 51.7951531335 50.4897710469 10 157 c 1
 165 209 l 1
 178.961902328 151.407152897 237.238308946 114 313 114 c 0
 378.249095206 114 424 140.791070375 424 179 c 0
 424 219.594249869 395.71842676 238.368489267 280.00000255 274.591939051 c 0
 115.761752868 326.003596537 61 376.116366303 61 475 c 0
 61 599.472527591 170.988742802 680 341 680 c 0
 462.890443016 680 557.719492815 628.112406713 606 535 c 1
 451 483 l 1
 435.713149129 524.156906191 387.553480824 551 329 551 c 0
 263.821631964 551 224 528.624035373 224 492 c 0
 224 449.594810575 254.651559643 428.927734206 361.999997464 398.95232087 c 0
 535.586125815 350.481043112 588 305.731580474 588 206 c 0
EndSplineSet
EndChar

StartChar: T
Encoding: 84 84 34
Width: 617
GlyphClass: 2
Flags: W
HStem: 0 21G<158 323.197> 529 139<87 270 430 644>
VStem: 158 161<0 161>
DStem2: 158 0 319 0 0.207912 0.978148<33.4738 540.726>
AnchorPoint: "Anchor-1" 395 668 basechar 0
AnchorPoint: "Anchor-0" 253 0 basechar 0
LayerCount: 2
Fore
SplineSet
158 0 m 1
 270 529 l 1
 57 529 l 1
 87 668 l 1
 673 668 l 1
 644 529 l 1
 430 529 l 1
 319 0 l 1
 158 0 l 1
EndSplineSet
EndChar

StartChar: U
Encoding: 85 85 35
Width: 679
GlyphClass: 2
Flags: W
HStem: -12 129<215 378.176> 648 20G<115.691 281 535.733 701>
VStem: 26 162<144.043 333.414> 120 161<507 668> 540 161<507 668>
DStem2: -25.6172 -12 136.146 -12 0.207912 0.978148<256.508 695.416> 395.146 -12 556.383 -12 0.207912 0.978148<178.533 695.257>
AnchorPoint: "Anchor-2" 376 0 basechar 0
AnchorPoint: "Anchor-1" 414 668 basechar 0
AnchorPoint: "Anchor-0" 287 0 basechar 0
LayerCount: 2
Fore
SplineSet
188 204 m 0xe8
 188 143.843556453 220.705942345 117 294 117 c 0
 388.119675204 117 433.052477802 161.657141232 457 279 c 1
 540 668 l 1
 701 668 l 1
 621 292 l 2
 572.317309553 63.191354897 484.511615512 -12 266 -12 c 0
 106.439396821 -12 26 54.6976665308 26 187 c 0xe8
 26 217.356927849 30.0983444654 250.458940839 39 292 c 2
 120 668 l 1
 281 668 l 1xd8
 198 279 l 2
 190.090196008 237.473529042 188 221.797058984 188 204 c 0xe8
EndSplineSet
EndChar

StartChar: V
Encoding: 86 86 36
Width: 662
GlyphClass: 1
Flags: W
HStem: 0 21G<163.485 367.018> 648 20G<82 241.996 535.532 724>
VStem: 82 158<510 668>
DStem2: 240 668 82 668 0.124766 -0.992186<0 493.277> 289 177 356 0 0.482523 0.875883<0 554.067>
LayerCount: 2
Fore
SplineSet
166 0 m 1
 82 668 l 1
 240 668 l 1
 289 177 l 1
 546 668 l 1
 724 668 l 1
 356 0 l 1
 166 0 l 1
EndSplineSet
EndChar

StartChar: W
Encoding: 87 87 37
Width: 889
GlyphClass: 1
Flags: W
HStem: 0 21G<100.431 274.596 468 657.072> 648 20G<82 235 410.525 588 774.577 951>
VStem: 82 153<421.895 668> 468 120<205 470>
DStem2: 230 222 266 0 0.394863 0.91874<0 321.825>
AnchorPoint: "Anchor-1" 494 668 basechar 0
LayerCount: 2
Fore
SplineSet
101 0 m 1
 82 668 l 1
 235 668 l 1
 230 222 l 1
 419 668 l 1
 588 668 l 1
 588 205 l 1
 783 668 l 1
 951 668 l 1
 648 0 l 1
 468 0 l 1
 468 470 l 1
 266 0 l 1
 101 0 l 1
EndSplineSet
EndChar

StartChar: X
Encoding: 88 88 38
Width: 706
GlyphClass: 1
Flags: W
HStem: 0 21G<-60 169.286 438 621> 648 20G<115 296.052 539.571 768>
VStem: -60 211<0 211> 558 210<458 668>
DStem2: -60 0 151 0 0.679101 0.734045<143.29 427.827 650.302 910.026> 286 668 115 668 0.448284 -0.893891<0 213.768 434.954 669.741>
LayerCount: 2
Fore
SplineSet
-60 0 m 1
 270 356 l 1
 115 668 l 1
 286 668 l 1
 382 477 l 1
 558 668 l 1
 768 668 l 1
 456 331 l 1
 621 0 l 1
 448 0 l 1
 343 210 l 1
 151 0 l 1
 -60 0 l 1
EndSplineSet
EndChar

StartChar: Y
Encoding: 89 89 39
Width: 700
GlyphClass: 2
Flags: W
HStem: 0 21G<191 358.149> 648 20G<82 259.209 542.188 762>
VStem: 191 163<0 163> 558 204<464 668>
DStem2: 339 391 404 241 0.642476 0.766306<0 352.969>
AnchorPoint: "Anchor-1" 403 668 basechar 0
AnchorPoint: "Anchor-0" 297 0 basechar 0
LayerCount: 2
Fore
SplineSet
191 0 m 1
 242 241 l 1
 82 668 l 1
 253 668 l 1
 339 391 l 1
 558 668 l 1
 762 668 l 1
 404 241 l 1
 354 0 l 1
 191 0 l 1
EndSplineSet
EndChar

StartChar: Z
Encoding: 90 90 40
Width: 632
GlyphClass: 2
Flags: W
HStem: 0 139<221 530> 529 139<130 411>
DStem2: -12 121 221 139 0.719753 0.69423<180.199 587.701>
AnchorPoint: "Anchor-1" 407 668 basechar 0
AnchorPoint: "Anchor-0" 263 0 basechar 0
LayerCount: 2
Fore
SplineSet
-38 0 m 1
 -12 121 l 1
 411 529 l 1
 100 529 l 1
 130 668 l 1
 668 668 l 1
 642 547 l 1
 221 139 l 1
 560 139 l 1
 530 0 l 1
 -38 0 l 1
EndSplineSet
EndChar

StartChar: a
Encoding: 97 97 41
Width: 545
GlyphClass: 2
Flags: W
HStem: -12 103<87.5372 233.491> 0 21G<295.305 441> 407 103<201.36 333.615>
VStem: -18 161<103.027 181.758> 344 150<314.828 396.155>
AnchorPoint: "Anchor-2" 446 0 basechar 0
AnchorPoint: "Anchor-1" 298 496 basechar 0
AnchorPoint: "Anchor-0" 219 0 basechar 0
LayerCount: 2
Fore
SplineSet
143 138 m 0xb8
 143 110.10138548 169.416809707 91 208 91 c 0
 268.135584432 91 304.209667926 128.615710994 325 213 c 2
 328 225 l 1
 271.999999998 220.333333333 227.166666665 211.5 193.5 198.5 c 0
 159.833333333 185.5 143 165.333333333 143 138 c 0xb8
292 59 m 1
 249.363948413 7.58593779143 204.674907255 -12 130 -12 c 0xb8
 45.0744592565 -12 -18 43.4032412388 -18 118 c 0
 -18 232.540534346 86.2681667998 290.239491817 338 315 c 1
 342.230596139 330.864735521 344 342.36586062 344 354 c 0
 344 390.037068898 320.956018126 407 272 407 c 0
 225.155529401 407 187.320292173 385.114911799 170 348 c 1
 53 394 l 1
 103.592195571 472.551040493 181.072801448 510 293 510 c 0
 418.271389279 510 494 450.848796601 494 353 c 0
 494 255.818564737 441 97.1814352627 441 0 c 1
 297 0 l 1x78
 292 59 l 1
EndSplineSet
Substitution2: "Single Substitution lookup 12 subtable" ordfeminine
Substitution2: "'aalt' Access All Alternates lookup 0 subtable" ordfeminine
EndChar

StartChar: b
Encoding: 98 98 42
Width: 592
GlyphClass: 1
Flags: W
HStem: -12 117<207.758 329.393> 0 21G<-21 125.303> 392 118<287.605 427.834> 648 20G<116.749 276>
VStem: 121 155<513 668> 395 159<178.076 359.095>
DStem2: -23.5385 -12 131.775 -12 0.207912 0.978148<490.3 695.192>
AnchorPoint: "Anchor-0" 293 -12 basechar 0
AnchorPoint: "Anchor-1" 380 496 basechar 0
LayerCount: 2
Fore
SplineSet
175 208 m 0xbc
 175 144.882838348 210.236294075 105 266 105 c 0
 340.437647501 105 395 176.903875386 395 275 c 0
 395 350.04754688 364.521722092 392 310 392 c 0
 232.082586688 392 175 314.198548514 175 208 c 0xbc
554 303 m 0
 554 123.488240882 441.738314698 -12 293 -12 c 0xbc
 231.681457214 -12 181.759221488 15.0412110182 149 66 c 1
 115 0 l 1
 -21 0 l 1x7c
 121 668 l 1
 276 668 l 1
 227 436 l 1
 261.730679417 483.134493494 314.735597659 510 373 510 c 0
 482.668771028 510 554 428.422296148 554 303 c 0
EndSplineSet
EndChar

StartChar: c
Encoding: 99 99 43
Width: 531
GlyphClass: 2
Flags: W
HStem: -12 117<181.144 312.637> 392 118<233.76 361.16>
VStem: 2 154<129.52 301.363>
AnchorPoint: "Anchor-1" 318 496 basechar 0
AnchorPoint: "Anchor-0" 212 0 basechar 0
LayerCount: 2
Fore
SplineSet
464 107 m 1
 408.149106017 29.0414604817 325.031526386 -12 223 -12 c 0
 153 -12 98.6666666667 7.16666666666 60 45.5 c 0
 21.3333333332 83.8333333334 2 133.333333333 2 194 c 0
 2 376.372721 134.781536728 510 316 510 c 0
 359.333333333 510 398.166666667 500.833333333 432.5 482.5 c 0
 466.833333333 464.166666667 493 430.666666667 511 382 c 1
 378 336 l 1
 369.635506089 374.237686444 344.577956607 392 299 392 c 0
 217.067110168 392 156 309.153710681 156 198 c 0
 156 164.666666667 164 140.833333333 180 126.5 c 0
 196 112.166666667 214.666666667 105 236 105 c 0
 283.3624897 105 313.170215907 118.91027223 341 154 c 1
 464 107 l 1
EndSplineSet
EndChar

StartChar: d
Encoding: 100 100 44
Width: 592
GlyphClass: 2
Flags: W
HStem: -12 117<130.956 271.9> 0 21G<337.413 488.333> 392 118<224.806 347.561> 648 20G<453.709 613>
VStem: 3 159<139.848 318.125>
DStem2: 312.963 -12 468.094 -12 0.207912 0.978148<442.673 695.295>
AnchorPoint: "Anchor-1" 266 496 basechar 0
AnchorPoint: "Anchor-0" 187 -12 basechar 0
LayerCount: 2
Fore
SplineSet
162 216 m 0xb8
 162 146.564445768 195.326447508 105 251 105 c 0
 324.085941664 105 382 186.3449369 382 289 c 0
 382 350.876433669 346.466044626 392 293 392 c 0
 214.377036802 392 162 321.63085132 162 216 c 0xb8
334 63 m 1
 295.770550196 13.6716776725 245.454061958 -12 187 -12 c 0
 74.9119135535 -12 3 67.3376002791 3 191 c 0
 3 374.226125727 114.938962175 510 266 510 c 0
 330.326800871 510 383.572780248 475.907250615 405 421 c 1
 458 668 l 1
 613 668 l 1
 607 641.5 l 2
 565.62425927 458.757145057 509.724557563 186.119054458 497 105 c 0xb8
 491.666666667 71 488.666666667 36 488 0 c 1
 339 0 l 1x78
 334 63 l 1
EndSplineSet
EndChar

StartChar: e
Encoding: 101 101 45
Width: 567
GlyphClass: 2
Flags: W
HStem: -12 118<181.758 339.179> 209 90<168 395.764> 399 111<227.959 368.744>
VStem: 3 149<133.36 206.489> 396 134<299.125 371.508>
AnchorPoint: "Anchor-2" 328 2 basechar 0
AnchorPoint: "Anchor-1" 321 496 basechar 0
AnchorPoint: "Anchor-0" 230 0 basechar 0
LayerCount: 2
Fore
SplineSet
396 313 m 2
 396 365.974683346 359.902560866 399 302 399 c 0
 239.237320325 399 184.578821046 358.210075165 168 299 c 1
 395 299 l 1
 395.666666667 301.666666664 396 303.999999997 396 306 c 2
 396 313 l 2
472 98 m 1
 413.835832097 26.309281421 329.207146776 -12 229 -12 c 0
 86.7708934202 -12 3 65.0988753602 3 196 c 0
 3 375.283716997 133.425955518 510 307 510 c 0
 446.907134609 510 530 431.005885817 530 298 c 0
 530 267.600945695 526.430879942 238.723519773 519 209 c 1
 154 209 l 1
 152.596293654 200.577761925 152 194.316678553 152 188 c 0
 152 136.664926312 190.144176632 106 254 106 c 0
 295.635589467 106 335.957629106 119.957629106 358 142 c 1
 472 98 l 1
EndSplineSet
EndChar

StartChar: f
Encoding: 102 102 46
Width: 379
GlyphClass: 1
Flags: W
HStem: 0 21G<18 177.211> 380 116<43 99 278 360> 608 119<305.664 409>
VStem: 18 155<0 155>
DStem2: 18 0 173 0 0.207912 0.978148<32.2263 388.537 539.218 649.717>
AnchorPoint: "Anchor-1" 152 668 basechar 0
LayerCount: 2
Fore
SplineSet
18 0 m 1
 99 380 l 1
 19 380 l 1
 43 496 l 1
 124 496 l 1
 135 547 l 2
 168.350788605 697.078548721 206.749984413 727 366 727 c 2
 434 727 l 1
 409 608 l 1
 368 608 l 2
 308.114300176 608 301.583732259 601.626795165 285 527 c 2
 278 496 l 1
 385 496 l 1
 360 380 l 1
 253 380 l 1
 173 0 l 1
 18 0 l 1
EndSplineSet
EndChar

StartChar: g
Encoding: 103 103 47
Width: 594
GlyphClass: 2
Flags: W
HStem: -207 119<128.833 270.35> 17 114<134.655 272.791> 395 116<227.265 351.534> 476 20G<432.851 577>
VStem: 6 158<161.846 324.913>
AnchorPoint: "Anchor-1" 317 496 basechar 0
AnchorPoint: "Anchor-0" 191 -251 basechar 0
LayerCount: 2
Fore
SplineSet
164 234 m 0xe8
 164 171.175438389 196.374382391 131 247 131 c 0
 327.660450573 131 384 200.9103898 384 301 c 0
 384 359.723028526 350.97475011 395 296 395 c 0
 217.634093213 395 164 329.582659035 164 234 c 0xe8
262 511 m 0
 329.455654088 511 384.68350091 480.192629664 409 429 c 1
 443 496 l 1
 577 496 l 1xd8
 491.075630252 87 491.075630252 87 476 18 c 0
 444.883883745 -120.293850023 336.212175774 -207 194 -207 c 0
 89.6224127522 -207 1.40820890478 -157.17531079 -22 -85 c 1
 112 -41 l 1
 120.919633954 -69.0331352862 154.817860251 -88 196 -88 c 0
 258.896699227 -88 307.377649445 -50.9495177195 319 6 c 2
 337 91 l 1
 296.977299724 43.2309706373 243.806413297 17 187 17 c 0
 82.3108847812 17 6 100.056598353 6 214 c 0
 6 377.976581307 120.65991645 511 262 511 c 0
EndSplineSet
EndChar

StartChar: h
Encoding: 104 104 48
Width: 580
GlyphClass: 1
Flags: W
HStem: 0 21G<-21 139.252 302 462.27> 392 118<292.772 439.348> 648 20G<116.749 272>
VStem: -21 156<0 156> 121 151<517 668> 367 161<227.188 383.268>
DStem2: -21 0 135 0 0.207912 0.978148<32.4342 402.497 473.082 682.926>
AnchorPoint: "Anchor-1" 192 668 basechar 0
LayerCount: 2
Fore
SplineSet
367 328 m 0xec
 367 371.925958558 349.435213738 392 311 392 c 0
 247.666666667 392 207 346 189 254 c 1
 135 0 l 1
 -21 0 l 1xf4
 121 668 l 1
 272 668 l 1
 222 432 l 1
 257.701769495 481.302443587 321.719395339 510 396 510 c 0
 482.696953296 510 528 460.578494505 528 366 c 0
 528 341.019837256 524.751395337 313.40669762 518 281 c 2
 458 0 l 1
 302 0 l 1
 367 305.267857143 367 305.267857143 367 328 c 0xec
EndSplineSet
EndChar

StartChar: i
Encoding: 105 105 49
Width: 338
GlyphClass: 1
Flags: W
HStem: 0 21G<48 208.234> 380 116<51 129> 578 179<207.595 325.215>
VStem: 48 156<0 156> 177 179<608.939 726.512>
DStem2: 48 0 204 0 0.207912 0.978148<32.4342 388.537>
AnchorPoint: "Anchor-2" 204 0 basechar 0
LayerCount: 2
Fore
SplineSet
48 0 m 1xf0
 129 380 l 1
 26 380 l 1
 51 496 l 1
 309 496 l 1
 204 0 l 1
 48 0 l 1xf0
356 668 m 0xe8
 356 617.516193754 316.483806246 578 266 578 c 0
 216.45081203 578 177 617.894079581 177 668 c 0
 177 717.813503918 216.186496082 757 266 757 c 0
 316.749785387 757 356 718.185898883 356 668 c 0xe8
EndSplineSet
Substitution2: "Single Substitution lookup 4 subtable" dotlessi
Substitution2: "Single Substitution lookup 3 subtable" dotlessi
EndChar

StartChar: j
Encoding: 106 106 50
Width: 263
GlyphClass: 1
Flags: W
HStem: -162 120<-148 -28.4787> 476 20G<88.7549 249> 578 180<148.428 263.572>
VStem: 93 156<340 496> 116 180<609.048 727.215>
DStem2: -46.7239 -162 108.677 -162 0.207912 0.978148<124.954 672.671>
LayerCount: 2
Fore
SplineSet
-74 -162 m 0xf0
 -112.544978579 -162 -141.165388607 -161.427591799 -174 -160 c 1
 -148 -42 l 1
 -87 -42 l 2
 -30.356716947 -42 -18.7867133936 -30.708791713 -4 39 c 2
 93 496 l 1
 249 496 l 1
 148 23 l 2
 115.497724642 -129.510676679 76.5105366568 -162 -74 -162 c 0xf0
296 668 m 0xe8
 296 618.16229186 255.83770814 578 206 578 c 0
 156.16229186 578 116 618.16229186 116 668 c 0
 116 718.483806247 155.516193753 758 206 758 c 0
 256.483806246 758 296 718.483806246 296 668 c 0xe8
EndSplineSet
EndChar

StartChar: k
Encoding: 107 107 51
Width: 562
GlyphClass: 2
Flags: W
HStem: 0 21G<-21 139.194 313.674 487> 476 20G<366.107 586> 648 20G<116.749 276>
VStem: 121 155<513 668> 388 198<298 496>
DStem2: -21 0 135 0 0.207912 0.978148<32.4342 159.13 366.426 682.926> 203 327 342 283 0.752467 0.65863<75.6132 250.515> 342 283 229 184 0.455997 -0.889981<36.5804 243.657>
AnchorPoint: "Anchor-1" 397 796 basechar 0
AnchorPoint: "Anchor-0" 218 0 basechar 0
LayerCount: 2
Fore
SplineSet
-21 0 m 1
 121 668 l 1
 276 668 l 1
 203 327 l 1
 388 496 l 1
 586 496 l 1
 342 283 l 1
 487 0 l 1
 324 0 l 1
 229 184 l 1
 161 124 l 1
 135 0 l 1
 -21 0 l 1
EndSplineSet
EndChar

StartChar: l
Encoding: 108 108 52
Width: 317
GlyphClass: 2
Flags: W
HStem: 0 124<174.031 244> 648 20G<116.758 277>
VStem: 4 168<65.3801 216.375> 121 156<512 668>
DStem2: -20.7579 0 135.638 0 0.207912 0.978148<196.076 682.876>
AnchorPoint: "Anchor-1" 198 668 basechar 0
AnchorPoint: "Anchor-0" 108 0 basechar 0
LayerCount: 2
Fore
SplineSet
172 159 m 0xe0
 172 134.13000301 187.918576159 124 227 124 c 2
 270 124 l 1
 244 0 l 1
 147 0 l 2
 49.8758492231 0 4 31.7602033083 4 99 c 0xe0
 4 108.76631206 5.38284738528 120.10566062 9 140 c 2
 121 668 l 1
 277 668 l 1xd0
 179 204 l 2
 174.098368152 182.759595323 172 169.270085776 172 159 c 0xe0
EndSplineSet
EndChar

StartChar: m
Encoding: 109 109 53
Width: 895
GlyphClass: 1
Flags: W
HStem: 0 21G<-20 140.264 298 458.215 617 777.276> 392 118<295.327 422.365 599.877 748.688> 476 20G<80.7661 222.562>
VStem: -20 156<0 156> 298 156<0 156> 617 156<0 156> 684 161<234.93 383.817>
DStem2: -20 0 136 0 0.207912 0.978148<32.4342 401.25> 298 0 454 0 0.207912 0.978148<32.4342 337.49> 617 0 773 0 0.207912 0.978148<32.4342 343.77>
AnchorPoint: "Anchor-1" 514 496 basechar 0
LayerCount: 2
Fore
SplineSet
363 332 m 0xda
 363 374.548302587 347.293472328 392 309 392 c 0xda
 249.493820779 392 210.267102557 347.454404731 191 258 c 2
 136 0 l 1
 -20 0 l 1
 85 496 l 1
 221 496 l 1xba
 226 432 l 1
 267.650141267 482.704519804 322.940985766 510 384 510 c 0
 460.729167437 510 503.932572164 484.202283508 523 427 c 1
 568.424306744 482.518597131 627.360327354 510 701 510 c 0
 796.376013955 510 845 462.726680234 845 370 c 0xda
 845 346 841.666666667 319.333333332 835 290 c 2
 773 0 l 1
 617 0 l 1xdc
 673 263 l 2
 680.560502458 297.778311309 684 321.229430911 684 338 c 0
 684 375.846596661 667.248322464 392 628 392 c 0
 567.333333333 392 527.666666667 348.333333334 509 261 c 2
 454 0 l 1
 298 0 l 1
 354 263 l 2
 360 292.333333333 363 315.333333333 363 332 c 0xda
EndSplineSet
EndChar

StartChar: n
Encoding: 110 110 54
Width: 579
GlyphClass: 2
Flags: W
HStem: 0 21G<-20 140.252 303 463.27> 392 118<294.967 440.348> 476 20G<80.7661 222.562>
VStem: -20 156<0 156> 303 156<0 156> 368 161<227.164 383.268>
DStem2: -20 0 136 0 0.207912 0.978148<32.4342 400.17> 303 0 459 0 0.207912 0.978148<32.4342 333.548>
AnchorPoint: "Anchor-1" 344 496 basechar 0
AnchorPoint: "Anchor-0" 218 0 basechar 0
LayerCount: 2
Fore
SplineSet
368 328 m 0xd4
 368 371.925958558 350.435213738 392 312 392 c 0xd4
 250 392 209.333333333 346 190 254 c 2
 136 0 l 1
 -20 0 l 1
 85 496 l 1
 221 496 l 1xb4
 226 432 l 1
 262.296852988 482.124225554 323.409127734 510 397 510 c 0
 483.696953296 510 529 460.578494505 529 366 c 0xd4
 529 341.019837256 525.751395337 313.40669762 519 281 c 2
 459 0 l 1
 303 0 l 1xd8
 359 263 l 2
 365 289 368 310.666666667 368 328 c 0xd4
EndSplineSet
EndChar

StartChar: o
Encoding: 111 111 55
Width: 576
GlyphClass: 2
Flags: W
HStem: -13 118<186.593 311.376> 392 118<225.002 354.803>
VStem: 5 154<132.811 313.751> 381 155<183.66 365.662>
AnchorPoint: "Anchor-2" 467 10 basechar 0
AnchorPoint: "Anchor-1" 317 496 basechar 0
AnchorPoint: "Anchor-0" 235 0 basechar 0
LayerCount: 2
Fore
SplineSet
159 206 m 0
 159 139.942118896 188.752695298 105 245 105 c 0
 326.687763203 105 381 179.679325596 381 292 c 0
 381 359.500264999 352.075235849 392 292 392 c 0
 212.408361829 392 159 317.308606765 159 206 c 0
536 295 m 0
 536 111.785636785 415.6709931 -13 239 -13 c 0
 96.4753206186 -13 5 71.8296776677 5 204 c 0
 5 384.28808396 127.014506745 510 302 510 c 0
 446.112135397 510 536 427.410722694 536 295 c 0
EndSplineSet
Substitution2: "Single Substitution lookup 12 subtable" ordmasculine
Substitution2: "'aalt' Access All Alternates lookup 0 subtable" ordmasculine
EndChar

StartChar: p
Encoding: 112 112 56
Width: 590
GlyphClass: 1
Flags: W
HStem: -161 21G<-55 105.242> -13 118<208.123 329.343> 392 118<289.027 428.641> 476 20G<80.7382 220.765>
VStem: -55 156<-161 -5> 394 158<178.918 360.48>
DStem2: -55 -161 101 -161 0.207912 0.978148<32.4342 268.574>
AnchorPoint: "Anchor-1" 373 496 basechar 0
LayerCount: 2
Fore
SplineSet
308 392 m 0xec
 231.024328978 392 174 314.549045717 174 210 c 0
 174 145.882175729 207.873802747 105 261 105 c 0
 341.205054508 105 394 175.260942496 394 282 c 0
 394 352.312124912 362.971297658 392 308 392 c 0xec
287 -13 m 0
 228.761362921 -13 179.754133127 16.690511481 150 70 c 1
 101 -161 l 1
 -55 -161 l 1
 85 496 l 1
 219 496 l 1xdc
 225 428 l 1
 255.549005912 479.698317695 311.348445279 510 376 510 c 0
 481.282975916 510 552 427.630738993 552 305 c 0
 552 123.51109264 438.240756133 -13 287 -13 c 0
EndSplineSet
EndChar

StartChar: q
Encoding: 113 113 57
Width: 601
GlyphClass: 1
Flags: W
HStem: -173 139<412.626 579.185> -12 118<128.409 269.689> 393 117<233.821 346.945> 476 20G<429.565 575>
VStem: 4 152.046<143.952 305.785> 308 165<-88.0764 54.9548>
LayerCount: 2
Fore
SplineSet
156.046244324 217.960630694 m 0xec
 156.046244324 151.023101562 193.828181222 106 250 106 c 0
 325.258827037 106 380.524590164 185.373202379 380.524590164 293.460628864 c 0
 380.524590164 354.313690105 345.730558428 393 291 393 c 0
 221.289824813 393 156.046244324 308.376973965 156.046244324 217.960630694 c 0xec
326 56 m 1
 289.665729905 11.8798148844 239.447883898 -12 183 -12 c 0
 73.8173930526 -12 4 69.1285908097 4 196 c 0
 4 373.558125333 116.542820187 510 263 510 c 0xec
 326.446927726 510 376.696080922 480.420711239 404 427 c 1
 440 496 l 1
 575 496 l 1xdc
 552.541081351 389.564255097 477.304423828 37.9656582038 475.5 27.5 c 0
 473.833333333 17.8333333381 473 9.33333333696 473 2 c 0
 473 -23.1257907866 487.196884251 -34 520 -34 c 0
 541.333333333 -34 570.666666668 -29.6666666664 608 -21 c 1
 580 -151 l 1
 546.599097589 -164.91704267 503.245053729 -173 462 -173 c 0
 363.251778168 -173 308 -128.152777461 308 -48 c 0
 308 -31.3333333362 309.666666667 -16.5000000023 313 -3.5 c 0
 316.333333337 9.50000001733 320.666666674 29.3333333688 326 56 c 1
EndSplineSet
EndChar

StartChar: r
Encoding: 114 114 58
Width: 391
GlyphClass: 2
Flags: W
HStem: 0 21G<-20 140.242> 361 149<287.516 371.859> 476 20G<80.7661 209.609>
VStem: -20 156<0 156>
DStem2: -20 0 136 0 0.207912 0.978148<32.4342 368.119>
AnchorPoint: "Anchor-1" 249 496 basechar 0
AnchorPoint: "Anchor-0" 57 0 basechar 0
LayerCount: 2
Fore
SplineSet
215 409 m 1xb0
 255.407138417 480.489552582 300.861920196 508.828644926 377 510 c 1
 403 510 l 1
 371 358 l 1
 354.333333333 360 339 361 325 361 c 0xd0
 245.852864292 361 204.135716644 322.262648613 185 231 c 2
 136 0 l 1
 -20 0 l 1
 85 496 l 1
 208 496 l 1
 215 409 l 1xb0
EndSplineSet
EndChar

StartChar: s
Encoding: 115 115 59
Width: 515
GlyphClass: 2
Flags: W
HStem: -13 109<149.843 293.729> 399 111<179.572 323.343>
VStem: 30 144<331.688 390.045> 306 148<110.763 169.09>
AnchorPoint: "Anchor-1" 274 496 basechar 0
AnchorPoint: "Anchor-0" 215 0 basechar 0
LayerCount: 2
Fore
SplineSet
454 156 m 0
 454 56.2435865473 372.807777197 -13 229 -13 c 0
 117.790862785 -13 31.8225067569 23.9904851347 -10 116 c 1
 120 160 l 1
 134.263827623 99.3787325978 207.791593733 96 224 96 c 0
 262.164857167 96 306 111.053028325 306 139 c 0
 306 170.086695189 258.550772784 181.506576921 203.000001917 197.229402777 c 0
 124.57383132 219.426772923 30 250.200592795 30 357 c 0
 30 447.361047079 124.976979269 510 243 510 c 0
 280.759204952 510 408.903225807 510 471 400 c 1
 339 355 l 1
 334.368397151 367.042167406 322.076923076 399 241 399 c 256
 174.050858703 399 174 362.765375725 174 362 c 0
 174 328.333606996 222.4260507 316.29759156 278.999998054 301.556716637 c 0
 358.46271413 280.851957406 454 254.810918832 454 156 c 0
EndSplineSet
EndChar

StartChar: t
Encoding: 116 116 60
Width: 391
GlyphClass: 2
Flags: W
HStem: 0 124<219.409 289> 380 116<53 106 286 370>
VStem: 50 167<79.6667 218.477>
DStem2: 25.1165 0 180.426 0 0.207912 0.978148<196.872 388.513 539.402 633.872>
AnchorPoint: "Anchor-1" 230 620 basechar 0
AnchorPoint: "Anchor-0" 143 0 basechar 0
LayerCount: 2
Fore
SplineSet
217 160 m 0
 217 134.698257706 233.344560384 124 272 124 c 2
 315 124 l 1
 289 0 l 1
 193 0 l 2
 149.666666667 0 115 7.16666666673 89 21.5 c 0
 63 35.8333333333 50 61.3333333333 50 98 c 0
 50 110 52.3333333333 127.333333333 57 150 c 2
 106 380 l 1
 28 380 l 1
 53 496 l 1
 131 496 l 1
 157 620 l 1
 312 620 l 1
 286 496 l 1
 394 496 l 1
 370 380 l 1
 261 380 l 1
 224 205 l 2
 219.098368152 183.759595321 217 170.270085775 217 160 c 0
EndSplineSet
EndChar

StartChar: u
Encoding: 117 117 61
Width: 578
GlyphClass: 2
Flags: W
HStem: -12 118<111.822 255.061> 0 21G<319.438 460.234> 476 20G<81.7246 241 401.725 561>
VStem: 17 162<115.702 275.922> 86 155<341 496> 406 155<341 496>
DStem2: -22.3131 -12 133.499 -12 0.207912 0.978148<225.548 519.419> 297.711 -12 453.449 -12 0.207912 0.978148<152.236 519.414>
AnchorPoint: "Anchor-2" 456 0 basechar 0
AnchorPoint: "Anchor-1" 322 496 basechar 0
AnchorPoint: "Anchor-0" 236 0 basechar 0
LayerCount: 2
Fore
SplineSet
316 64 m 1x74
 285.96053963 15.3646832101 229.430865104 -12 159 -12 c 0
 64.6441512665 -12 17 36.9862400345 17 134 c 4xb4
 17 157.98901949 19.8390986598 182.405267964 27 220 c 2
 86 496 l 1
 241 496 l 1xac
 186 235 l 2
 181.258029548 211.290147738 179 191.935608757 179 175 c 0
 179 129.483505112 196.697713998 106 231 106 c 0xb4
 290.214062702 106 333.156888832 152.190602897 350 234 c 2
 406 496 l 1
 561 496 l 1
 456 0 l 1
 321 0 l 1
 316 64 l 1x74
EndSplineSet
EndChar

StartChar: v
Encoding: 118 118 62
Width: 533
GlyphClass: 1
Flags: W
HStem: 0 21G<104.097 296.411> 476 20G<35 187.947 387.44 568>
VStem: 35 151<345 496>
DStem2: 219 157 285 0 0.495573 0.868566<0 383.152>
LayerCount: 2
Fore
SplineSet
107 0 m 1
 35 496 l 1
 186 496 l 1
 219 157 l 1
 398 496 l 1
 568 496 l 1
 285 0 l 1
 107 0 l 1
EndSplineSet
EndChar

StartChar: w
Encoding: 119 119 63
Width: 727
GlyphClass: 1
Flags: W
HStem: 0 21G<53.2339 222.315 359 542.234> 476 20G<35 181.249 305.025 463 595.157 762>
VStem: 35 146<313.263 496> 359 96<159 356> 362 101<201.125 356>
DStem2: 185 175 214 0 0.383879 0.923384<0 235.079> 455 159 533 0 0.419174 0.907906<0 368.421>
LayerCount: 2
Fore
SplineSet
54 0 m 1xe8
 35 496 l 1
 181 496 l 1
 185 175 l 1
 313 496 l 1
 463 496 l 1xe8
 455 159 l 1
 604 496 l 1
 762 496 l 1
 533 0 l 1
 359 0 l 1xf0
 362 356 l 1
 214 0 l 1
 54 0 l 1xe8
EndSplineSet
EndChar

StartChar: x
Encoding: 120 120 64
Width: 536
GlyphClass: 1
Flags: W
HStem: 0 21G<-71 131.298 302.929 464> 476 20G<66 226 368.5 571>
VStem: -71 184<0 184>
DStem2: -71 0 113 0 0.678403 0.73469<124.826 315.931 511.649 675.115> 216 496 66 496 0.447214 -0.894427<0 134.164 329.149 487.016>
LayerCount: 2
Fore
SplineSet
-71 0 m 1
 179 270 l 1
 66 496 l 1
 216 496 l 1
 276 376 l 1
 387 496 l 1
 571 496 l 1
 340 246 l 1
 464 0 l 1
 313 0 l 1
 242 141 l 1
 113 0 l 1
 -71 0 l 1
EndSplineSet
EndChar

StartChar: y
Encoding: 121 121 65
Width: 527
GlyphClass: 2
Flags: W
HStem: -161 110<-21 102.498> 476 20G<35 191.899 375.494 562>
AnchorPoint: "Anchor-1" 302 496 basechar 0
AnchorPoint: "Anchor-0" 211 0 basechar 0
LayerCount: 2
Fore
SplineSet
-44 -161 m 1
 -21 -51 l 1
 10 -51 l 2
 85.4040953252 -51 100.023951664 -44.2827687092 121 0 c 1
 35 496 l 1
 190 496 l 1
 220 180 l 1
 386 496 l 1
 562 496 l 1
 266 0 l 2
 178.847275352 -147.895532736 157.603387427 -161 5 -161 c 2
 -44 -161 l 1
EndSplineSet
EndChar

StartChar: z
Encoding: 122 122 66
Width: 528
GlyphClass: 2
Flags: W
HStem: 0 121<203 437> 375 121<91 296>
DStem2: -14 121 203 121 0.773512 0.633781<167.852 400.769>
AnchorPoint: "Anchor-1" 317 496 basechar 0
AnchorPoint: "Anchor-0" 211 0 basechar 0
LayerCount: 2
Fore
SplineSet
-40 0 m 1
 -14 121 l 1
 296 375 l 1
 65 375 l 1
 91 496 l 1
 539 496 l 1
 513 375 l 1
 203 121 l 1
 462 121 l 1
 437 0 l 1
 -40 0 l 1
EndSplineSet
EndChar

StartChar: circumflex
Encoding: 258 710 67
Width: 480
GlyphClass: 1
Flags: W
HStem: 574 152
LayerCount: 2
Fore
SplineSet
89 574 m 1
 278 711 l 2
 291.333333333 721 306 726 322 726 c 0
 344 726 362.333333333 717.666666667 377 701 c 2
 495 574 l 1
 379 574 l 1
 320 635 l 1
 236 574 l 1
 89 574 l 1
EndSplineSet
EndChar

StartChar: caron
Encoding: 259 711 68
Width: 476
GlyphClass: 1
Flags: W
HStem: 568 152
LayerCount: 2
Fore
SplineSet
288 568 m 0
 266.666666667 568 248.666666667 576.333333333 234 593 c 2
 120 720 l 1
 235 720 l 1
 291 659 l 1
 375 720 l 1
 522 720 l 1
 332 583 l 2
 319.333333333 573 304.666666667 568 288 568 c 0
EndSplineSet
EndChar

StartChar: breve
Encoding: 260 728 69
Width: 385
GlyphClass: 1
Flags: W
HStem: 577 74<236.496 331.86>
VStem: 136 299
LayerCount: 2
Fore
SplineSet
435 688 m 1
 414.178531469 619.586603396 353.943425765 577 278 577 c 0
 199.712892151 577 142.7857793 621.499362862 136 688 c 1
 229 688 l 1
 234.3865754 666.453698403 256.522954194 651 282 651 c 0
 309.183077217 651 332.641768501 665.711382669 341 688 c 1
 435 688 l 1
EndSplineSet
EndChar

StartChar: dotaccent
Encoding: 261 729 70
Width: 204
GlyphClass: 1
Flags: W
HStem: 578 141<119.848 219.643>
VStem: 99 141<598.357 698.152>
LayerCount: 2
Fore
SplineSet
240 648 m 0
 240 608.951033235 209.048966765 578 170 578 c 0
 130.659593139 578 99 609.213683376 99 648 c 0
 99 687.072841291 130.927158709 719 170 719 c 0
 208.786316624 719 240 687.340406861 240 648 c 0
EndSplineSet
EndChar

StartChar: ring
Encoding: 262 730 71
Width: 301
GlyphClass: 1
Flags: W
HStem: 535 86<182.699 261.613> 715 85<182.587 261.723>
VStem: 90 85<628.55 707.413> 269 86<628.387 707.574>
LayerCount: 2
Fore
SplineSet
175 668 m 0
 175 642.389407887 196.389407887 621 222 621 c 0
 248.259482008 621 269 641.740517992 269 668 c 0
 269 694.898087459 248.898087459 715 222 715 c 0
 195.740517992 715 175 694.259482008 175 668 c 0
355 668 m 0
 355 594.533979685 295.466020315 535 222 535 c 0
 149.527457346 535 90 594.978422932 90 668 c 0
 90 740.638213498 149.361786502 800 222 800 c 0
 295.631679565 800 355 741.078057914 355 668 c 0
EndSplineSet
EndChar

StartChar: ogonek
Encoding: 263 731 72
Width: 296
GlyphClass: 1
Flags: W
HStem: -173 76<33.6483 154.835> -20 20G<13.4608 183>
VStem: -52 128<-120.241 -44.6637>
LayerCount: 2
Fore
SplineSet
76 -75 m 0
 76 -89.8416069321 89.9914046328 -97 119 -97 c 0
 132.255888843 -97 148.5866411 -94.1181025429 170 -88 c 1
 154 -164 l 1
 133.21922477 -168.795563516 95.3792964117 -173 73 -173 c 0
 -5.70337870425 -173 -52 -144.481281282 -52 -96 c 0
 -52 -55.556786193 -12.078390557 -13.4416817256 39 0 c 1
 183 0 l 1
 96.4936125503 -40.0883258914 76 -54.4530075855 76 -75 c 0
EndSplineSet
EndChar

StartChar: quoteleft
Encoding: 264 8216 73
Width: 281
GlyphClass: 1
Flags: W
HStem: 340 328<193 201.16>
VStem: 67 194<376.963 496.438> 193 99<569 668>
DStem2: 81 488 203 526 0.528302 0.849057<96.717 212>
LayerCount: 2
Fore
SplineSet
261 438 m 0xc0
 261 382.41067712 218.156560869 340 162 340 c 0
 108.312175062 340 67 382.616770064 67 438 c 0xc0
 67 456 71.6666666668 472.666666667 81 488 c 2
 193 668 l 1
 292 668 l 1xa0
 203 526 l 1
 238.201860206 511.106905299 261 476.516624231 261 438 c 0xc0
EndSplineSet
EndChar

StartChar: quoteright
Encoding: 265 8217 74
Width: 282
GlyphClass: 1
Flags: W
HStem: 351 329<156.394 165>
VStem: 66 99<351 450> 97 196<522.562 642.965>
DStem2: 66 351 165 351 0.53169 0.846939<52.6373 167.586>
LayerCount: 2
Fore
SplineSet
195 680 m 0xa0
 248.770301846 680 293 636.672948747 293 584 c 0xa0
 293 566.697491106 286.81923997 544.858805666 278 531 c 2
 165 351 l 1
 66 351 l 1xc0
 155 493 l 1
 119.779154831 509.906005681 97 544.860226025 97 582 c 0
 97 637.214899778 139.785100222 680 195 680 c 0xa0
EndSplineSet
EndChar

StartChar: quotesinglbase
Encoding: 266 8218 75
Width: 282
GlyphClass: 1
Flags: W
HStem: -145 329<50.6711 59>
VStem: -40 99<-145 -46> -9 196<26.5625 146.687>
DStem2: -40 -145 59 -145 0.53169 0.846939<52.6373 167.586>
LayerCount: 2
Fore
SplineSet
89 184 m 0xa0
 142.770301846 184 187 140.672948747 187 88 c 0xa0
 187 70.6974911061 180.81923997 48.8588056663 172 35 c 2
 59 -145 l 1
 -40 -145 l 1xc0
 49 -3 l 1
 13.7791548313 13.906005681 -9 48.8602260255 -9 86 c 0
 -9 140.55743215 34.44256785 184 89 184 c 0xa0
EndSplineSet
EndChar

StartChar: quotedblleft
Encoding: 267 8220 76
Width: 505
GlyphClass: 1
Flags: W
HStem: 340 328<193 201.16 417 425.125>
VStem: 67 194<376.876 498.887> 193 99<569 668> 291 194<376.158 496.438> 417 99<569 668>
DStem2: 92 506 203 526 0.529057 0.848586<75.697 190.906> 305 488 427 526 0.528302 0.849057<96.717 212>
LayerCount: 2
Fore
SplineSet
485 436 m 0x90
 485 381.625461586 442.073742739 340 386 340 c 0
 334.544241549 340 291 380.794078925 291 429 c 0x90
 291 454.613247909 295.308500791 472.770501242 305 488 c 2
 417 668 l 1
 516 668 l 1x88
 427 526 l 1
 462.263738774 509.724428259 485 474.444022907 485 436 c 0x90
261 438 m 0xc0
 261 382.41067712 218.156560869 340 162 340 c 0
 108.177988105 340 67 381.177988105 67 435 c 0xc0
 67 457.931437586 72.8448612049 474.530843408 92 506 c 2
 193 668 l 1
 292 668 l 1xa0
 203 526 l 1
 238.201860206 511.106905299 261 476.516624231 261 438 c 0xc0
EndSplineSet
EndChar

StartChar: quotedblright
Encoding: 268 8221 77
Width: 505
GlyphClass: 1
Flags: W
HStem: 350 328<156.875 165 380.56 389>
VStem: 66 99<350 449> 97 194<521.562 641.842> 290 99<350 449> 321 194<520.476 642.225>
DStem2: 66 350 165 350 0.528302 0.849057<52.3019 167.585> 290 350 389 350 0.529057 0.848586<52.3766 167.585>
LayerCount: 2
Fore
SplineSet
196 678 m 0xa0
 247.455758451 678 291 637.205921075 291 589 c 0xa0
 291 564.019837256 286.451953471 544.853069741 277 530 c 2
 165 350 l 1
 66 350 l 1xc0
 155 492 l 1
 119.736261226 508.275571741 97 543.555977093 97 582 c 0
 97 636.374538414 139.926257261 678 196 678 c 0xa0
420 678 m 0
 473.822011895 678 515 636.822011895 515 583 c 0x88
 515 560.068562414 509.155138795 543.469156592 490 512 c 2
 389 350 l 1
 290 350 l 1x90
 379 492 l 1
 344.380463245 506.646727088 321 542.120533391 321 580 c 0x88
 321 636.246906838 363.179145133 678 420 678 c 0
EndSplineSet
EndChar

StartChar: dagger
Encoding: 270 8224 79
Width: 594
GlyphClass: 1
Flags: W
HStem: 1 21G<155 304.222> 380 116<77 236 405 564> 648 20G<292.698 442>
VStem: 155 145<1 146> 297 145<523 668>
DStem2: 155 1 300 1 0.207912 0.978148<30.1472 387.559 536.161 681.948>
LayerCount: 2
Fore
SplineSet
155 1 m 1xf0
 236 380 l 1
 52 380 l 1
 77 496 l 1
 260 496 l 1
 297 668 l 1
 442 668 l 1xe8
 405 496 l 1
 588 496 l 1
 564 380 l 1
 380 380 l 1
 300 1 l 1
 155 1 l 1xf0
EndSplineSet
EndChar

StartChar: daggerdbl
Encoding: 271 8225 80
Width: 595
GlyphClass: 1
Flags: W
HStem: 1 21G<155 305.07> 173 115<33 192 361 520> 380 116<77 236 405 564> 648 20G<292.698 442>
VStem: 155 146<1 147> 297 145<523 668>
DStem2: 155 1 301 1 0.207912 0.978148<30.3551 175.934 323.558 387.559 536.161 681.948>
LayerCount: 2
Fore
SplineSet
155 1 m 1xf8
 192 173 l 1
 8 173 l 1
 33 288 l 1
 216 288 l 1
 236 380 l 1
 52 380 l 1
 77 496 l 1
 260 496 l 1
 297 668 l 1
 442 668 l 1xf4
 405 496 l 1
 589 496 l 1
 564 380 l 1
 381 380 l 1
 361 288 l 1
 544 288 l 1
 520 173 l 1
 336 173 l 1
 301 1 l 1
 155 1 l 1xf8
EndSplineSet
EndChar

StartChar: bullet
Encoding: 272 8226 81
Width: 446
GlyphClass: 1
Flags: W
HStem: 88 332<127.932 286.068>
VStem: 41 332<174.932 336.705>
LayerCount: 2
Fore
SplineSet
373 254 m 0
 373 162.450618631 298.549381369 88 207 88 c 0
 115.450618631 88 41 162.450618631 41 254 c 0
 41 345.852822905 115.147177095 420 207 420 c 0
 298.852822905 420 373 345.852822905 373 254 c 0
EndSplineSet
EndChar

StartChar: ellipsis
Encoding: 273 8230 82
Width: 807
GlyphClass: 1
Flags: W
HStem: -12 196<28.5928 148.902 291.602 411.681 554.593 675.176>
VStem: -9 195<25.5928 146.681> 255 194<25.365 146.952> 517 195<25.5928 146.681>
LayerCount: 2
Fore
SplineSet
449 86 m 0
 449 31.458278105 405.541721895 -12 351 -12 c 0
 297.677131997 -12 255 31.5662389134 255 86 c 0
 255 141.076196054 297.047807947 184 351 184 c 0
 406.183334319 184 449 141.183334319 449 86 c 0
186 86 m 0
 186 31.8385575336 142.608774686 -12 89 -12 c 0
 35.1048126482 -12 -9 32.1048126482 -9 86 c 0
 -9 140.541721895 34.4582781051 184 89 184 c 0
 143.246706682 184 186 140.805951081 186 86 c 0
712 86 m 0
 712 31.1841104212 669.256543767 -12 615 -12 c 0
 561.104812648 -12 517 32.1048126479 517 86 c 0
 517 140.541721895 560.458278105 184 615 184 c 0
 669.889540456 184 712 141.455412007 712 86 c 0
EndSplineSet
EndChar

StartChar: perthousand
Encoding: 274 8240 83
Width: 1472
GlyphClass: 1
Flags: W
HStem: -12 119<731.091 838.424 1160.09 1267.42> 0 21G<226 366.012> 263 119<741.631 848.859 1170.63 1277.86> 286 119<192.975 303.352> 561 119<205.827 313.346> 648 20G<679.018 820>
VStem: 56 119<424.275 530.348> 226 126<0 126> 334 119<437.307 541.013> 592 119<126.959 230.712> 693 127<541 668> 869 119<136.542 242.859> 1021 119<126.959 230.712> 1298 119<136.542 242.859>
DStem2: 226 0 352 0 0.573791 0.819001<72.2977 815.054>
LayerCount: 2
Fore
SplineSet
1140 177 m 0xa21c
 1140 136.304309338 1169.72294233 107 1211 107 c 0
 1258.08015498 107 1298 146.002147432 1298 192 c 0
 1298 233.004400538 1268.00440054 263 1227 263 c 0
 1180.19214239 263 1140 223.269836259 1140 177 c 0xa21c
711 177 m 0xa25c
 711 136.304309337 740.722942327 107 782 107 c 0
 829.080154984 107 869 146.002147429 869 192 c 0
 869 233.004400536 839.004400536 263 798 263 c 0
 751.192142388 263 711 223.26983626 711 177 c 0xa25c
1417 205 m 0
 1417 87.5427887936 1316.53976615 -12 1198 -12 c 0
 1096.7568001 -12 1021 63.7568001024 1021 165 c 0
 1021 282.457211206 1121.46023385 382 1240 382 c 0
 1341.2431999 382 1417 306.243199898 1417 205 c 0
988 205 m 0
 988 87.5427887958 887.539766146 -12 769 -12 c 0
 667.756800106 -12 592 63.7568001062 592 165 c 0
 592 282.457211205 692.460233853 382 811 382 c 0
 912.243199894 382 988 306.243199894 988 205 c 0
175 474 m 0
 175 434.23254961 205.079869888 405 246 405 c 0
 294.127098543 405 334 444.419800305 334 492 c 0
 334 531.123755446 303.257777343 561 263 561 c 0x1a9c
 215.53039058 561 175 520.93018204 175 474 c 0
226 0 m 1x473c
 693 668 l 1
 820 668 l 1
 352 0 l 1
 226 0 l 1x473c
453 503 m 0x1a9c
 453 385.542788795 352.539766147 286 234 286 c 0
 133.45295594 286 56 362.147569042 56 461 c 0
 56 579.306396686 156.693603314 680 275 680 c 0
 376.94192774 680 453 604.369220281 453 503 c 0x1a9c
EndSplineSet
EndChar

StartChar: guilsinglleft
Encoding: 275 8249 84
Width: 401
GlyphClass: 1
Flags: W
VStem: 217 171<289 460>
DStem2: 24 250 191 244 0.673864 0.738856<108.102 285.215>
LayerCount: 2
Fore
SplineSet
127 40 m 1
 24 250 l 1
 217 460 l 1
 388 460 l 1
 191 244 l 1
 291 40 l 1
 127 40 l 1
EndSplineSet
EndChar

StartChar: guilsinglright
Encoding: 276 8250 85
Width: 402
GlyphClass: 1
Flags: W
VStem: -20 171<40 211>
DStem2: -20 40 151 40 0.673864 0.738856<115.231 292.344>
LayerCount: 2
Fore
SplineSet
-20 40 m 1
 177 256 l 1
 77 460 l 1
 241 460 l 1
 344 250 l 1
 151 40 l 1
 -20 40 l 1
EndSplineSet
EndChar

StartChar: fraction
Encoding: 277 8260 86
Width: 482
GlyphClass: 1
Flags: W
HStem: 0 21G<-55 85.982> 648 20G<398.988 539>
VStem: -55 127<0 127> 413 126<542 668>
DStem2: -55 0 72 0 0.573791 0.819001<72.8715 815.627>
LayerCount: 2
Fore
SplineSet
-55 0 m 1
 413 668 l 1
 539 668 l 1
 72 0 l 1
 -55 0 l 1
EndSplineSet
EndChar

StartChar: ordfeminine
Encoding: 170 170 87
Width: 395
GlyphClass: 1
Flags: W
HStem: 396 68<147.166 250.881> 625 67<188.429 292.327>
VStem: 86 106.916<465.237 515.855> 272 86<403 435> 294 94<582.287 621.774>
LayerCount: 2
Fore
SplineSet
192.915882271 488.833861245 m 0xe0
 192.915882271 474.117762675 204.765276044 464 222 464 c 0
 248.012473016 464 268.607198085 481.224679148 277 510 c 2
 282 528 l 1
 256 525 l 2
 209.319877205 518.976758349 192.915882271 509.572344397 192.915882271 488.833861245 c 0xe0
270 435 m 1
 247.210209877 408.954525572 215.322146931 396 174 396 c 0
 120.332296113 396 86 427.601318013 86 477 c 0
 86 544.168121325 142.101393784 573.186083627 289 582 c 1
 291.810367099 586.215550647 294 594.536155671 294 601 c 0
 294 615.773504548 278.62250758 625 254 625 c 0
 232.113094664 625 213.801508431 614.870186339 207 599 c 1
 127 631 l 1
 155.596788071 673.214306199 198.403532961 692 266 692 c 0
 345.515152533 692 388 658.569300354 388 596 c 0xe8
 388 552.811365358 371.288938776 529.24491837 358 403 c 1
 272 403 l 1xf0
 270 435 l 1
EndSplineSet
EndChar

StartChar: guillemotleft
Encoding: 171 171 88
Width: 665
GlyphClass: 1
Flags: W
VStem: 229 171<289 460> 469 171<289 460>
DStem2: 36 250 203 244 0.673864 0.738856<108.102 285.215> 276 250 443 244 0.673864 0.738856<108.102 285.215>
LayerCount: 2
Fore
SplineSet
139 40 m 1
 36 250 l 1
 229 460 l 1
 400 460 l 1
 203 244 l 1
 303 40 l 1
 139 40 l 1
379 40 m 1
 276 250 l 1
 469 460 l 1
 640 460 l 1
 443 244 l 1
 543 40 l 1
 379 40 l 1
EndSplineSet
EndChar

StartChar: logicalnot
Encoding: 172 172 89
Width: 696
GlyphClass: 1
Flags: W
HStem: 295 127<73 457>
VStem: 457 128<56 295>
LayerCount: 2
Fore
SplineSet
457 56 m 1
 457 295 l 1
 73 295 l 1
 73 422 l 1
 585 422 l 1
 585 56 l 1
 457 56 l 1
EndSplineSet
EndChar

StartChar: registered
Encoding: 174 174 90
Width: 814
GlyphClass: 1
Flags: W
HStem: -12 69<302.269 512.679> 300 75<347 379> 453 76<347 459.262> 610 69<302.416 512.531>
VStem: 62 70<228.732 438.778> 250 97<161 300 375 453> 467 101<381.877 446.068> 480 108<161 269> 684 70<228.47 439.039>
DStem2: 481 310 379 300 0.583299 -0.812258<0 120.443>
LayerCount: 2
Fore
SplineSet
467 414 m 0xfe80
 467 441.3125204 446.621830441 453 399 453 c 2
 347 453 l 1
 347 375 l 1
 399 375 l 2
 446.621830441 375 467 386.6874796 467 414 c 0xfe80
568 415 m 0
 568 360.954342175 538.638509194 325.518060168 481 310 c 1
 588 161 l 1
 480 161 l 1xfd80
 379 300 l 1
 347 300 l 1
 347 161 l 1
 250 161 l 1
 250 529 l 1
 401 529 l 2
 516.395422049 529 568 493.772922836 568 415 c 0
132 334 m 0
 132 181.117227632 255.221074364 57 407 57 c 0
 560.460918816 57 684 180.539081184 684 334 c 0
 684 486.619818366 560.172788722 610 407 610 c 0
 255.507304398 610 132 486.043578131 132 334 c 0
754 334 m 0
 754 142.513983979 599.039443813 -12 407 -12 c 0
 216.816416201 -12 62 143.265159436 62 334 c 0
 62 523.719523112 217.280476888 679 407 679 c 0
 598.574002213 679 754 524.469829289 754 334 c 0
EndSplineSet
EndChar

StartChar: macron
Encoding: 175 175 91
Width: 405
GlyphClass: 1
Flags: W
HStem: 570 98<125 403>
VStem: 104 320
LayerCount: 2
Fore
SplineSet
104 570 m 1
 125 668 l 1
 424 668 l 1
 403 570 l 1
 104 570 l 1
EndSplineSet
EndChar

StartChar: degree
Encoding: 176 176 92
Width: 411
GlyphClass: 1
Flags: W
HStem: 354 90<193.207 297.131> 590 89<193.234 297.104>
VStem: 83 89<465.047 568.766> 318 89<464.708 569.104>
LayerCount: 2
Fore
SplineSet
172 517 m 0
 172 476.590403604 204.590403604 444 245 444 c 0
 286.056099642 444 318 475.943900358 318 517 c 0
 318 558.056099643 286.056099643 590 245 590 c 0
 204.590403604 590 172 557.409596396 172 517 c 0
407 517 m 0
 407 425.917977397 335.523237188 354 245 354 c 0
 155.598573733 354 83 427.046713077 83 517 c 0
 83 606.263978052 155.736021948 679 245 679 c 0
 335.384931993 679 407 607.384931993 407 517 c 0
EndSplineSet
EndChar

StartChar: plusminus
Encoding: 177 177 93
Width: 701
GlyphClass: 1
Flags: W
HStem: 0 128<56 568> 283 108<56 248 376 568> 475 20G<248 376>
VStem: 248 128<180 283 391 495>
LayerCount: 2
Fore
SplineSet
56 0 m 1
 56 128 l 1
 568 128 l 1
 568 0 l 1
 56 0 l 1
248 180 m 1
 248 283 l 1
 56 283 l 1
 56 391 l 1
 248 391 l 1
 248 495 l 1
 376 495 l 1
 376 391 l 1
 568 391 l 1
 568 283 l 1
 376 283 l 1
 376 180 l 1
 248 180 l 1
EndSplineSet
EndChar

StartChar: uni00B2
Encoding: 178 178 94
Width: 407
GlyphClass: 1
Flags: W
HStem: 403 88<240 370> 667 21G<165.091 221.333> 711 77<229.015 316.996>
VStem: 321 106<625.268 706.457>
LayerCount: 2
Fore
SplineSet
427 689 m 0
 427 621.28442997 348.511425744 538.178880758 240 491 c 1
 388 491 l 1
 370 403 l 1
 70 403 l 1
 87 484 l 1
 268.725143018 583.948828661 321 626.61762218 321 675 c 0
 321 696.507876402 303.287404491 711 277 711 c 0
 247 711 226.666666667 696.333333333 216 667 c 1
 132 700 l 1
 160.666666667 758.666666667 212.666666667 788 288 788 c 0
 378.463848603 788 427 753.431086415 427 689 c 0
EndSplineSet
EndChar

StartChar: uni00B3
Encoding: 179 179 95
Width: 425
GlyphClass: 1
Flags: W
HStem: 396 76<205.912 298.667> 491 20G<136.606 200.667> 552 84<236 300.206> 676 21G<166.697 223.184> 713 75<227.494 321.323>
VStem: 305 105<480.727 544.1> 324 104<645.992 707.967>
LayerCount: 2
Fore
SplineSet
410 521 m 0xfc
 410 446.51801302 346.549375647 396 253 396 c 0
 184.377685905 396 128.000390446 425.82540792 98 478 c 1
 196 511 l 1
 205.333333333 485 224.666666667 472 254 472 c 0
 282.608572794 472 305 490.439998875 305 514 c 0xfc
 305 540.285568581 282.804235206 552 233 552 c 2
 218 552 l 1
 236 636 l 1
 251 636 l 2
 297.990753927 636 324 651.676805852 324 680 c 0
 324 699.864330502 305.689672821 713 278 713 c 0
 247.734295683 713 229.367612106 701.859552584 217 676 c 1
 134 709 l 1
 165.516499163 762.441020319 214.693270195 788 286 788 c 0
 373.309605951 788 428 749.485637994 428 688 c 0xfa
 428 645.051119923 403.370989668 611.839272656 362 599 c 1
 391.547009098 584.226495449 410 554.240385234 410 521 c 0xfc
EndSplineSet
EndChar

StartChar: acute
Encoding: 180 180 96
Width: 320
GlyphClass: 1
Flags: W
HStem: 574 153
VStem: 105 234
LayerCount: 2
Fore
SplineSet
282 727 m 0
 313.84313784 727 339 702.284486299 339 671 c 0
 339 640.015042536 333.123304106 634.648060061 241 581.5 c 2
 228 574 l 1
 105 574 l 1
 119.5 588 l 2
 129.166666637 597.333333304 140.999999957 608.999999957 155 623 c 2
 232.5 700.5 l 2
 242.16666667 710.16666667 247.333333333 715 248 715 c 0
 258 723 269.333333333 727 282 727 c 0
EndSplineSet
EndChar

StartChar: uni03BC
Encoding: 278 956 97
Width: 577
GlyphClass: 1
Flags: W
HStem: -161 21G<-55 105.179> -5 111<188.281 284.911> 475 20G<80.7317 240 399.758 560>
VStem: -55 156<-161 -5> 85 155<340 495> 404 156<339 495>
DStem2: -55 -161 101 -161 0.207912 0.978148<32.4342 237.774 379.005 670.772> 264.678 -161 420.778 -161 0.207912 0.978148<293.308 670.632>
LayerCount: 2
Fore
SplineSet
177.454545454 176.305785121 m 0xec
 177.454545454 125.578388911 195.985777089 106 244 106 c 0
 298.331219263 106 329.778529376 143.797247732 348 231 c 2
 404 495 l 1
 560 495 l 1
 455 0 l 1
 314 0 l 1
 310 43 l 1
 293.787921077 14.3170911365 256.361057 -5 217 -5 c 0
 180.236993806 -5 152.861909262 11.6470108712 143 40 c 1
 101 -161 l 1
 -55 -161 l 1xf4
 85 495 l 1
 240 495 l 1
 184 231 l 2
 179.636363636 210.636363635 177.454545454 192.404958675 177.454545454 176.305785121 c 0xec
EndSplineSet
EndChar

StartChar: paragraph
Encoding: 182 182 98
Width: 530
GlyphClass: 1
Flags: W
HStem: -161 21G<62 162.258 252 351.258> 600 68<320 413 509 557>
VStem: 62 96<-161 -65> 252 95<-161 -66>
DStem2: 62 -161 158 -161 0.207912 0.978148<19.9595 469.558> 252 -161 347 -161 0.207912 0.978148<19.7516 777.844>
LayerCount: 2
Fore
SplineSet
51 438 m 0
 51 556.884243051 164.048204896 668 285 668 c 2
 572 668 l 1
 557 600 l 1
 509 600 l 1
 347 -161 l 1
 252 -161 l 1
 413 600 l 1
 320 600 l 1
 158 -161 l 1
 62 -161 l 1
 159 296 l 1
 92.329297443 315.048772158 51 369.389144722 51 438 c 0
EndSplineSet
EndChar

StartChar: periodcentered
Encoding: 183 183 99
Width: 305
GlyphClass: 1
Flags: W
HStem: 151 194<75.4802 196.013>
VStem: 38 195<188.098 308.176>
LayerCount: 2
Fore
SplineSet
233 248 m 0
 233 194.128512445 189.871487555 151 136 151 c 0
 81.8385575336 151 38 194.391225314 38 248 c 0
 38 302.256543766 81.1841104217 345 136 345 c 0
 190.517225277 345 233 302.517225277 233 248 c 0
EndSplineSet
EndChar

StartChar: cedilla
Encoding: 184 184 100
Width: 322
GlyphClass: 1
Flags: W
HStem: -195 54<-17.0616 99.3443>
VStem: 103 91<-135.675 -86.8808>
DStem2: 22 -57 87 -47 0.639273 0.76898<49.2425 107.935>
LayerCount: 2
Fore
SplineSet
194 -103 m 0
 194 -161.147876886 145.061604629 -195 61 -195 c 0
 25.8194121727 -195 -13.0988453221 -188.108225235 -35 -178 c 1
 -9 -128 l 1
 10.3333333312 -136.666666667 30.3333333311 -141 51 -141 c 0
 82.609085898 -141 103 -128.451745168 103 -109 c 0
 103 -94.2948508387 86.9400326916 -84 64 -84 c 0
 47.4035419535 -84 51.5964580465 -89 35 -89 c 0
 23.8504086458 -89 16 -81.5627707566 16 -71 c 0
 16 -66.3333333333 18 -61.6666666667 22 -57 c 2
 91 26 l 1
 127 1 l 1
 87 -47 l 1
 97.0000000004 -44.9999999999 106.333333333 -44 115 -44 c 0
 161.862591624 -44 194 -68.0013556225 194 -103 c 0
EndSplineSet
EndChar

StartChar: uni00B9
Encoding: 185 185 101
Width: 294
GlyphClass: 1
Flags: W
HStem: 647 88<140 203.401>
VStem: 153 104<403 507>
DStem2: 153 403 257 403 0.207912 0.978148<21.6228 249.479>
LayerCount: 2
Fore
SplineSet
140 735 m 1
 206.961455127 735 231.572364809 744.416348052 255 779 c 1
 337 779 l 1
 257 403 l 1
 153 403 l 1
 205 647 l 1
 121 647 l 1
 140 735 l 1
EndSplineSet
EndChar

StartChar: ordmasculine
Encoding: 186 186 102
Width: 412
GlyphClass: 1
Flags: W
HStem: 396 77<212.426 287.062> 612 77<221.53 298.092>
VStem: 102 103<479.285 595.458> 305 103<489.574 606.117>
LayerCount: 2
Fore
SplineSet
205 528 m 0
 205 492.976740579 220.618178998 473 248 473 c 0
 283.096628313 473 305 505.278653012 305 557 c 0
 305 591.583168903 289.408965344 612 263 612 c 0
 227.053355223 612 205 580.060657953 205 528 c 0
408 565 m 0
 408 461.373232621 343.01359124 396 240 396 c 0
 153.643454936 396 102 442.77849179 102 521 c 0
 102 622.623947208 168.771148344 689 271 689 c 0
 357.360694521 689 408 643.165884092 408 565 c 0
EndSplineSet
EndChar

StartChar: guillemotright
Encoding: 187 187 103
Width: 666
GlyphClass: 1
Flags: W
VStem: -8 171<40 211> 232 171<40 211>
DStem2: -8 40 163 40 0.673864 0.738856<115.231 292.344> 232 40 403 40 0.673864 0.738856<115.231 292.344>
LayerCount: 2
Fore
SplineSet
-8 40 m 1
 189 256 l 1
 89 460 l 1
 253 460 l 1
 356 250 l 1
 163 40 l 1
 -8 40 l 1
232 40 m 1
 429 256 l 1
 329 460 l 1
 493 460 l 1
 596 250 l 1
 403 40 l 1
 232 40 l 1
EndSplineSet
EndChar

StartChar: onequarter
Encoding: 188 188 104
Width: 930
GlyphClass: 1
Flags: W
HStem: 0 21G<129 270.033 646 753.267> 75 86<602 662 784 822> 536 87<116 180.594> 647 20G<219.16 313 582.967 724>
VStem: 129 127<0 127> 129 104<292 396> 597 127<540 667>
DStem2: 66.9335 0 170.933 0 0.207912 0.978148<320.146 548.003> 129 0 256 0 0.574368 0.818597<72.9447 814.809> 487 152 602 161 0.714902 0.699224<88.5068 225.693>
LayerCount: 2
Fore
SplineSet
602 161 m 1xf2
 680 161 l 1
 700 257 l 1
 602 161 l 1xf2
646 0 m 1
 662 75 l 1
 470 75 l 1
 487 152 l 1
 715 375 l 1
 829 375 l 1
 784 161 l 1
 841 161 l 1
 822 75 l 1
 765 75 l 1
 749 0 l 1
 646 0 l 1
129 0 m 1xfa
 597 667 l 1
 724 667 l 1
 256 0 l 1
 129 0 l 1xfa
116 623 m 1
 181.650083587 623 207.320866797 633.045089082 231 668 c 1
 313 668 l 1
 233 292 l 1
 129 292 l 1xf6
 181 536 l 1
 97 536 l 1
 116 623 l 1
EndSplineSet
Ligature2: "'frac' Diagonal Fractions lookup 10 subtable" one slash four
EndChar

StartChar: onehalf
Encoding: 189 189 105
Width: 919
GlyphClass: 1
Flags: W
HStem: 0 88<666 796> 308 76<654.358 742.955> 536 87<116 180.594> 647 20G<219.16 313 582.967 724>
VStem: 129 127<0 127> 129 104<292 396> 597 127<540 667> 747 107<222.811 303.294>
DStem2: 66.9335 0 170.933 0 0.207912 0.978148<320.146 548.003> 129 0 256 0 0.574368 0.818597<72.9447 814.809>
LayerCount: 2
Fore
SplineSet
854 286 m 0xf3
 854 218.091589256 775.81150638 135.744133209 666 88 c 1
 815 88 l 1
 796 0 l 1
 496 0 l 1
 513 81 l 1
 690.094517069 176.358586115 747 222.807078593 747 272 c 0
 747 293.324562163 728.655702704 308 702 308 c 0
 672 308 652 293.333333333 642 264 c 1
 558 297 l 1
 585.333333333 355 637.333333333 384 714 384 c 0
 804.426543952 384 854 349.298580766 854 286 c 0xf3
129 0 m 1xfb
 597 667 l 1
 724 667 l 1
 256 0 l 1
 129 0 l 1xfb
116 623 m 1
 181.650083587 623 207.320866797 633.045089082 231 668 c 1
 313 668 l 1
 233 292 l 1
 129 292 l 1xf7
 181 536 l 1
 97 536 l 1
 116 623 l 1
EndSplineSet
LCarets2: 2 0 0
Ligature2: "'frac' Diagonal Fractions lookup 10 subtable" one slash two
EndChar

StartChar: threequarters
Encoding: 190 190 106
Width: 958
GlyphClass: 1
Flags: W
HStem: 0 21G<198 339.033 674 782.267> 75 86<630 690 812 851> 287 76<182.912 275.667> 443 84<213 277.206> 604 75<204.494 298.323> 647 20G<651.967 793>
VStem: 198 127<0 127> 282 105<371.727 435.1> 301 104<536.992 598.967> 666 127<540 667>
DStem2: 198 0 325 0 0.574368 0.818597<72.9447 814.809> 515 152 630 161 0.71643 0.697659<88.6684 226.57>
LayerCount: 2
Fore
SplineSet
630 161 m 1xf040
 709 161 l 1
 729 257 l 1
 630 161 l 1xf040
674 0 m 1
 690 75 l 1
 499 75 l 1
 515 152 l 1
 744 375 l 1
 858 375 l 1
 812 161 l 1
 869 161 l 1
 851 75 l 1
 794 75 l 1
 778 0 l 1
 674 0 l 1
198 0 m 1xf640
 666 667 l 1
 793 667 l 1
 325 0 l 1
 198 0 l 1xf640
387 412 m 0xf940
 387 337.51801302 323.549375647 287 230 287 c 0
 161.377685905 287 105.000390446 316.82540792 75 369 c 1
 173 402 l 1
 182.333333333 376 201.666666667 363 231 363 c 0
 259.608572794 363 282 381.439998875 282 405 c 0xf940
 282 431.285568581 259.804235206 443 210 443 c 2
 195 443 l 1
 213 527 l 1
 228 527 l 2
 274.990753927 527 301 542.676805852 301 571 c 0
 301 590.864330502 282.689672821 604 255 604 c 0
 224.734295683 604 206.367612106 592.859552584 194 567 c 1
 111 600 l 1
 142.516499163 653.441020319 191.693270195 679 263 679 c 0
 350.309605951 679 405 640.485637994 405 579 c 0xf8c0
 405 536.051119923 380.370989668 502.839272656 339 490 c 1
 368.547009098 475.226495449 387 445.240385234 387 412 c 0xf940
EndSplineSet
Ligature2: "'frac' Diagonal Fractions lookup 10 subtable" three slash four
EndChar

StartChar: less
Encoding: 60 60 107
Width: 640
GlyphClass: 1
Flags: W
HStem: 490 20G<480.27 527>
LayerCount: 2
Fore
SplineSet
527 -12 m 1
 34 200 l 1
 34 299 l 1
 527 510 l 1
 527 368 l 1
 203 250 l 1
 527 130 l 1
 527 -12 l 1
EndSplineSet
EndChar

StartChar: equal
Encoding: 61 61 108
Width: 685
GlyphClass: 1
Flags: W
HStem: 96 129<60 572> 283 127<60 572>
LayerCount: 2
Fore
SplineSet
60 96 m 1
 60 225 l 1
 572 225 l 1
 572 96 l 1
 60 96 l 1
60 283 m 1
 60 410 l 1
 572 410 l 1
 572 283 l 1
 60 283 l 1
EndSplineSet
EndChar

StartChar: greater
Encoding: 62 62 109
Width: 638
GlyphClass: 1
Flags: W
HStem: 490 20G<78 124.73>
LayerCount: 2
Fore
SplineSet
78 -12 m 1
 78 130 l 1
 403 250 l 1
 78 368 l 1
 78 510 l 1
 571 299 l 1
 571 200 l 1
 78 -12 l 1
EndSplineSet
EndChar

StartChar: question
Encoding: 63 63 110
Width: 634
GlyphClass: 1
Flags: W
HStem: -12 195<177.098 297.681> 552 128<265.636 437.191>
VStem: 140 195<25.4802 148.094> 448.144 174.856<461.604 538.029>
LayerCount: 2
Fore
SplineSet
335 86 m 0
 335 31.458278105 291.541721895 -12 237 -12 c 0
 183.391225314 -12 140 31.8385575337 140 86 c 0
 140 140.517225277 182.482774723 183 237 183 c 0
 292.455412007 183 335 140.889540456 335 86 c 0
368 680 m 0
 525.075799682 680 623 622.013512753 623 529 c 0
 623 446.298461417 575.615336716 390.048280486 468 345 c 0
 391.389688342 313.57012855 365.604962915 292.012407292 346 243 c 1
 185 243 l 1
 196.311805631 329.723843171 244.396440605 377.312760259 379 435 c 0
 427.970618605 455.987407975 448.143542635 475.267837901 448.143542635 501.084481687 c 0
 448.143542635 534.973245805 417.329647322 552 356 552 c 0
 290.11480754 552 241.270683624 527.761562568 223 486 c 1
 85 541 l 1
 137.885030091 634.471215975 230.580324185 680 368 680 c 0
EndSplineSet
EndChar

StartChar: at
Encoding: 64 64 111
Width: 753
GlyphClass: 1
Flags: W
HStem: -12 68<268.238 490.839> 153 97<288.46 374.027> 153 78<508.118 606.13> 428 90<333.973 433.531> 610 70<285.147 493.403>
VStem: 41 69<211.893 430.843> 181 101<255.672 373.503> 648 72<276.393 459.913>
LayerCount: 2
Fore
SplineSet
282 298 m 0xdf
 282 268.396973873 298.480622428 250 325 250 c 0
 364.533599318 250 400.384373766 287.101382858 411 339 c 0
 411.099287292 339.463340698 428.786899637 424.147598548 429 425 c 1
 420.333333333 427 410.666666667 428 400 428 c 0
 334.013838049 428 282 370.696619099 282 298 c 0xdf
386 56 m 0
 435.960325491 56 480.141348913 68.3446977208 522 94 c 1
 522 16 l 1
 479.333333333 -2.66666666674 434 -12 386 -12 c 0
 180.98797236 -12 41 123.930349972 41 323 c 0
 41 516.870758815 198.645905347 680 386 680 c 0
 567.631568594 680 720 537.667812579 720 368 c 0
 720 241.402313764 646.399934122 153 541 153 c 0xbf
 485.901729707 153 442.767549578 180.590331434 430 224 c 1
 394.681534011 178.590543729 347.46517868 153 299 153 c 0xdf
 229.281131323 153 181 203.326941972 181 276 c 0
 181 417.145451954 283.9383197 518 428 518 c 0
 466.562065634 518 507.378472552 511.022836424 545 498 c 1
 509 330 l 1
 501 286 501 286 501 280 c 0
 501 248.461099734 518.817448708 231 551 231 c 0xbf
 608.80481982 231 648 284.337770967 648 363 c 0
 648 501.511046148 532.922648141 610 386 610 c 0
 235.767269005 610 110 479.220267375 110 323 c 0
 110 162.734952357 220.33275974 56 386 56 c 0
EndSplineSet
EndChar

StartChar: colon
Encoding: 58 58 112
Width: 247
GlyphClass: 1
Flags: W
HStem: -12 195<11.5928 131.902> 316 195<81.4802 204.094>
VStem: -26 195<25.5928 146.176> 44 195<353.098 473.681>
LayerCount: 2
Fore
SplineSet
169 86 m 0xe0
 169 31.8385575336 125.608774686 -12 72 -12 c 0
 18.1048126482 -12 -26 32.1048126482 -26 86 c 0
 -26 140.256543766 17.1841104217 183 72 183 c 0
 126.517225277 183 169 140.517225277 169 86 c 0xe0
239 413 m 0xd0
 239 358.482774723 196.517225277 316 142 316 c 0
 87.8385575336 316 44 359.391225314 44 413 c 0
 44 467.541721895 87.458278105 511 142 511 c 0
 196.889540456 511 239 468.455412007 239 413 c 0xd0
EndSplineSet
EndChar

StartChar: bracketleft
Encoding: 91 91 114
Width: 340
GlyphClass: 1
Flags: W
HStem: -161 115<99 202> 552 116<226 353>
DStem2: -57 -161 74.556 -161 0.207912 0.978148<144.921 756.258>
LayerCount: 2
Fore
SplineSet
-57 -161 m 1
 119 668 l 1
 378 668 l 1
 353 552 l 1
 226 552 l 1
 99 -46 l 1
 227 -46 l 1
 202 -161 l 1
 -57 -161 l 1
EndSplineSet
EndChar

StartChar: backslash
Encoding: 92 92 115
Width: 584
GlyphClass: 1
Flags: W
HStem: 0 21G<340.186 499> 648 20G<87 247.754>
DStem2: 240 668 87 668 0.363926 -0.931428<0 661.498>
LayerCount: 2
Fore
SplineSet
348 0 m 1
 87 668 l 1
 240 668 l 1
 499 0 l 1
 348 0 l 1
EndSplineSet
EndChar

StartChar: bracketright
Encoding: 93 93 116
Width: 342
GlyphClass: 1
Flags: W
HStem: -161 115<-46 82> 552 116<105 209>
DStem2: 57.556 -161 188 -161 0.207912 0.978148<117.569 728.906>
LayerCount: 2
Fore
SplineSet
-71 -161 m 1
 -46 -46 l 1
 82 -46 l 1
 209 552 l 1
 81 552 l 1
 105 668 l 1
 364 668 l 1
 188 -161 l 1
 -71 -161 l 1
EndSplineSet
EndChar

StartChar: asciicircum
Encoding: 94 94 117
Width: 589
GlyphClass: 1
Flags: W
HStem: 648 20G<223.607 357.393>
DStem2: 49 312 192 312 0.461117 0.887339<65.9398 283.734> 347 668 291 506 0.461117 -0.887339<117.926 335.26>
LayerCount: 2
Fore
SplineSet
49 312 m 1
 234 668 l 1
 347 668 l 1
 532 312 l 1
 389 312 l 1
 291 506 l 1
 192 312 l 1
 49 312 l 1
EndSplineSet
EndChar

StartChar: underscore
Encoding: 95 95 118
Width: 457
GlyphClass: 1
Flags: W
HStem: -128 128<-30 380>
LayerCount: 2
Fore
SplineSet
-30 -128 m 1
 -30 0 l 1
 380 0 l 1
 380 -128 l 1
 -30 -128 l 1
EndSplineSet
EndChar

StartChar: grave
Encoding: 96 96 119
Width: 315
GlyphClass: 1
Flags: W
HStem: 574 153<206 224.811>
VStem: 127 187
LayerCount: 2
Fore
SplineSet
127 670 m 0
 127 701.266995703 152.281548081 727 183 727 c 0
 212.102395184 727 226.2136629 712.5231554 279.5 628 c 0
 289.166666725 612.666666575 297.333333373 599.833333271 304 589.5 c 2
 314 574 l 1
 206 574 l 1
 193 585 l 2
 137.423966734 632.025874302 127 645.450679944 127 670 c 0
EndSplineSet
EndChar

StartChar: exclam
Encoding: 33 33 120
Width: 298
GlyphClass: 1
Flags: W
HStem: -12 196<36.5928 156.902> 648 20G<115.698 318>
VStem: -1 195<25.5928 146.681>
LayerCount: 2
Fore
SplineSet
194 86 m 0
 194 31.8385575336 150.608774686 -12 97 -12 c 0
 43.1048126482 -12 -1 32.1048126482 -1 86 c 0
 -1 140.541721895 42.4582781051 184 97 184 c 0
 151.246706682 184 194 140.805951081 194 86 c 0
71 243 m 1
 83 496 l 1
 120 668 l 1
 318 668 l 1
 281 496 l 1
 186 243 l 1
 71 243 l 1
EndSplineSet
EndChar

StartChar: quotedbl
Encoding: 34 34 121
Width: 444
GlyphClass: 1
Flags: W
HStem: 434 234<116 230 305 418>
VStem: 116 114<434 551> 305 113<434 543.2>
LayerCount: 2
Fore
SplineSet
116 434 m 1
 102 668 l 1
 244 668 l 1
 230 434 l 1
 116 434 l 1
305 434 m 1
 290 668 l 1
 432 668 l 1
 418 434 l 1
 305 434 l 1
EndSplineSet
EndChar

StartChar: numbersign
Encoding: 35 35 122
Width: 750
GlyphClass: 1
Flags: W
HStem: 0 21G<118 261.835 395 538.835> 127 140<28 136 297 413 575 683> 401 140<68 176 336 453 614 722> 648 20G<212.008 355 489.008 633>
DStem2: 118 0 259 0 0.143702 0.989621<20.262 128.269 289.952 405.173 566.712 675.006> 395 0 536 0 0.143702 0.989621<20.262 128.269 290.095 405.173 566.856 675.006>
LayerCount: 2
Fore
SplineSet
297 267 m 1
 434 267 l 1
 453 401 l 1
 316 401 l 1
 297 267 l 1
118 0 m 1
 136 127 l 1
 8 127 l 1
 28 266 l 1
 156 266 l 1
 176 401 l 1
 48 401 l 1
 68 541 l 1
 196 541 l 1
 215 668 l 1
 355 668 l 1
 336 541 l 1
 473 541 l 1
 492 668 l 1
 633 668 l 1
 614 541 l 1
 743 541 l 1
 722 402 l 1
 594 402 l 1
 575 267 l 1
 703 267 l 1
 683 127 l 1
 554 127 l 1
 536 0 l 1
 395 0 l 1
 413 127 l 1
 277 127 l 1
 259 0 l 1
 118 0 l 1
EndSplineSet
EndChar

StartChar: dollar
Encoding: 36 36 123
Width: 643
GlyphClass: 1
Flags: W
HStem: -12 126<307 394.07> 552 128<245.044 324>
VStem: 61 163<449.415 531.08> 188 76<-86 -10> 425 164<140.475 222.369>
DStem2: 188 -86 264 -86 0.207912 0.978148<15.8013 87.9539 221.349 365.505 518.375 652.334 788.732 851.805>
LayerCount: 2
Fore
SplineSet
326 114 m 1xc8
 384.510074182 116.854149951 425 143.43844468 425 179 c 0
 425 212.076996814 399.070413775 234.765384761 337 256 c 1
 307 115 l 1
 310.333333329 114.333333333 313.666666663 114 317 114 c 2
 326 114 l 1xc8
324 552 m 1
 261.754032298 550.729674128 224 528.454795072 224 493 c 0xe8
 224 462.107223548 245.595996315 440.511227233 296 421 c 1
 324 552 l 1
589 205 m 0
 589 75.6528967849 474.28376642 -12 305 -12 c 2
 292.5 -12 l 2
 288.166666667 -12 284 -11.6666666666 280 -11 c 1
 264 -86 l 1
 188 -86 l 1xd8
 207 -1 l 1
 109.863946097 21.934901616 40.4268727904 77.6255492426 10 157 c 1
 165 210 l 1
 172.219439935 175.106040312 197.093049118 146.679058388 235 130 c 1
 266 280 l 1
 115.948888164 328.66522546 61 381.201723412 61 476 c 0
 61 600.249354941 170.461669689 680 341 680 c 2
 352 680 l 1
 366 747 l 1
 441 747 l 1
 425 671 l 1
 508.238062944 651.325548758 569.745559643 605.701856152 607 536 c 1
 452 484 l 1
 443.210240526 507.857918573 424.155685474 526.566027169 397 538 c 1
 367 398 l 1
 527.652036521 355.983313525 589 302.649273204 589 205 c 0
EndSplineSet
EndChar

StartChar: percent
Encoding: 37 37 124
Width: 1043
GlyphClass: 1
Flags: W
HStem: -12 119<731.091 838.424> 0 21G<226 366.012> 263 119<741.631 848.859> 286 119<192.975 303.352> 561 119<205.827 313.346> 648 20G<679.018 820>
VStem: 56 119<424.275 530.348> 226 126<0 126> 334 119<437.307 541.013> 592 119<126.959 230.712> 693 127<541 668> 869 119<136.542 242.859>
DStem2: 226 0 352 0 0.573791 0.819001<72.2977 815.054>
LayerCount: 2
Fore
SplineSet
711 177 m 0xa250
 711 136.304309337 740.722942327 107 782 107 c 0
 829.080154984 107 869 146.002147429 869 192 c 0
 869 233.004400536 839.004400536 263 798 263 c 0
 751.192142388 263 711 223.26983626 711 177 c 0xa250
988 205 m 0
 988 87.5427887958 887.539766146 -12 769 -12 c 0
 667.756800106 -12 592 63.7568001062 592 165 c 0
 592 282.457211205 692.460233853 382 811 382 c 0
 912.243199894 382 988 306.243199894 988 205 c 0
175 474 m 0
 175 434.23254961 205.079869888 405 246 405 c 0
 294.127098543 405 334 444.419800305 334 492 c 0
 334 531.123755446 303.257777343 561 263 561 c 0x1a90
 215.53039058 561 175 520.93018204 175 474 c 0
226 0 m 1x4730
 693 668 l 1
 820 668 l 1
 352 0 l 1
 226 0 l 1x4730
453 503 m 0x1a90
 453 385.542788795 352.539766147 286 234 286 c 0
 133.45295594 286 56 362.147569042 56 461 c 0
 56 579.306396686 156.693603314 680 275 680 c 0
 376.94192774 680 453 604.369220281 453 503 c 0x1a90
EndSplineSet
EndChar

StartChar: ampersand
Encoding: 38 38 125
Width: 683
GlyphClass: 1
Flags: W
HStem: -10 126<185.982 318.516> 0 21G<428.792 608> 592 114<294.579 395.337>
VStem: -7 164<143.857 248.323> 139 139<470.684 575.153> 408 126<482.429 578.646>
DStem2: 383 348 247 290 0.557161 -0.830405<0 124.249 256.5 321.853>
LayerCount: 2
Fore
SplineSet
157 196 m 0xb4
 157 152.083326767 193.985409936 116 239 116 c 0
 273.469723461 116 301.952411096 124.490031891 343 147 c 1
 247 290 l 1
 190.72768041 272.414900128 157 237.1882117 157 196 c 0xb4
350 592 m 0
 306.240366857 592 278 568.074133635 278 531 c 0x2c
 278 503.603774503 294.808851427 470.686440459 326 437 c 1
 378.592992677 462.712129753 408 497.498467685 408 534 c 0
 408 566.964532344 382.964532344 592 350 592 c 0
407 53 m 1
 336.017474633 11.3895540948 265.397994447 -10 199 -10 c 0
 80.5856308758 -10 -7 66.1059608095 -7 169 c 0xb4
 -7 261.481869222 62.8059129762 343.169639726 181 389 c 1
 153 431 139 475 139 521 c 0
 139 629.606023888 227.369248043 706 353 706 c 0
 455.791493725 706 534 636.001226428 534 544 c 0
 534 465.783922011 478.735644812 394.050056998 383 348 c 1
 451 244 l 1
 492.315825192 283.938631019 525.694165438 333.324950771 549 389 c 1
 676 389 l 1
 639.62773819 292.873308073 582.43913565 206.557591196 515 146 c 1
 608 0 l 1
 442 0 l 1x6c
 407 53 l 1
EndSplineSet
EndChar

StartChar: quotesingle
Encoding: 39 39 126
Width: 258
GlyphClass: 1
Flags: W
HStem: 434 234<103 217>
VStem: 103 114<434 551>
LayerCount: 2
Fore
SplineSet
103 434 m 1
 89 668 l 1
 231 668 l 1
 217 434 l 1
 103 434 l 1
EndSplineSet
EndChar

StartChar: parenleft
Encoding: 40 40 127
Width: 377
GlyphClass: 1
Flags: W
HStem: -161 21G<63.915 238> 649 20G<159.506 387>
VStem: 14 145<-0.440529 306.744> 236 151<518 669>
LayerCount: 2
Fore
SplineSet
387 669 m 1
 229.408190668 478.154873102 159 319.427636244 159 155 c 0
 159 57.6666666653 185.333333333 -47.6666666684 238 -161 c 1
 89 -161 l 1
 38.8300288285 -41.3639148981 14 68.5503460494 14 171 c 0
 14 342.65699937 83.0122655251 497.46829771 236 669 c 1
 387 669 l 1
EndSplineSet
EndChar

StartChar: parenright
Encoding: 41 41 128
Width: 378
GlyphClass: 1
Flags: W
HStem: -161 21G<-42 184.595> 649 20G<107 281.085>
VStem: -42 151<-161 -10> 186 145<200.793 508.441>
LayerCount: 2
Fore
SplineSet
331 337 m 0
 331 164.830316164 260.189743617 5.98568697993 109 -161 c 1
 -42 -161 l 1
 115.591809331 29.845126897 186 188.572363755 186 353 c 0
 186 450.333333333 159.666666667 555.666666667 107 669 c 1
 256 669 l 1
 306.169971172 549.363914899 331 439.449653952 331 337 c 0
EndSplineSet
EndChar

StartChar: asterisk
Encoding: 42 42 129
Width: 443
GlyphClass: 1
Flags: W
HStem: 336 332
VStem: 76 326
LayerCount: 2
Fore
SplineSet
263 336 m 1
 222 428 l 1
 148 361 l 1
 89 426 l 1
 164 494 l 1
 76 544 l 1
 120 619 l 1
 207 569 l 1
 228 668 l 1
 314 650 l 1
 293 551 l 1
 392 562 l 1
 402 475 l 1
 302 464 l 1
 343 372 l 1
 263 336 l 1
EndSplineSet
EndChar

StartChar: plus
Encoding: 43 43 130
Width: 645
GlyphClass: 1
Flags: W
HStem: 0 21G<231 359> 184 128<39 231 359 551> 476 20G<231 359>
VStem: 231 128<0 184 312 496>
LayerCount: 2
Fore
SplineSet
231 0 m 1
 231 184 l 1
 39 184 l 1
 39 312 l 1
 231 312 l 1
 231 496 l 1
 359 496 l 1
 359 312 l 1
 551 312 l 1
 551 184 l 1
 359 184 l 1
 359 0 l 1
 231 0 l 1
EndSplineSet
EndChar

StartChar: comma
Encoding: 44 44 131
Width: 282
GlyphClass: 1
Flags: W
HStem: -145 328<52.8152 59>
VStem: -40 99<-145 -46> -9 196<25.4761 147.267>
DStem2: -40 -145 59 -145 0.536538 0.843876<53.1173 168.655>
LayerCount: 2
Fore
SplineSet
90 183 m 0xa0
 145.056597833 183 187 141.921410248 187 88 c 0xa0
 187 65.0685624138 181.155138795 48.4691565921 162 17 c 2
 59 -145 l 1
 -40 -145 l 1xc0
 51 -3 l 1
 15.1452291008 11.6074992552 -9 47.0205019364 -9 85 c 0
 -9 141.246906838 33.1791451329 183 90 183 c 0xa0
EndSplineSet
EndChar

StartChar: hyphen
Encoding: 45 45 132
Width: 376
GlyphClass: 1
Flags: W
HStem: 184 129<38 336>
LayerCount: 2
Fore
SplineSet
10 184 m 1
 38 313 l 1
 364 313 l 1
 336 184 l 1
 10 184 l 1
EndSplineSet
EndChar

StartChar: period
Encoding: 46 46 133
Width: 247
GlyphClass: 1
Flags: W
HStem: -12 195<21.5928 141.902>
VStem: -16 195<25.5928 146.176>
LayerCount: 2
Fore
SplineSet
179 86 m 0
 179 31.8385575336 135.608774686 -12 82 -12 c 0
 28.1048126482 -12 -16 32.1048126482 -16 86 c 0
 -16 140.256543766 27.1841104217 183 82 183 c 0
 136.517225277 183 179 140.517225277 179 86 c 0
EndSplineSet
EndChar

StartChar: slash
Encoding: 47 47 134
Width: 442
GlyphClass: 1
Flags: W
HStem: 0 21G<-55 110.006> 648 20G<335.934 499>
VStem: -55 153<0 153> 348 151<517 668>
DStem2: -55 0 98 0 0.516568 0.856246<79.0349 780.149>
LayerCount: 2
Fore
SplineSet
-55 0 m 1
 348 668 l 1
 499 668 l 1
 98 0 l 1
 -55 0 l 1
EndSplineSet
EndChar

StartChar: braceleft
Encoding: 123 123 135
Width: 373
GlyphClass: 1
Flags: W
HStem: -162 120<170.308 234> 548 119<286.448 384>
VStem: 50.5412 151.125<48.8125 185.581>
DStem2: -11.6467 -162 134.803 -162 0.207912 0.978148<187.064 310.901 496.553 752.347>
LayerCount: 2
Fore
SplineSet
180 -162 m 2
 75.1030233523 -162 18.5811803906 -119.290970653 18.5811803906 -40.0287276093 c 0
 18.5811803906 -27.2293238506 20.0559144191 -13.5364225557 23 1 c 2
 44 97 l 2
 48.3985161519 115.793659922 50.5411562373 130.929253235 50.5411562373 143.206678052 c 0
 50.5411562373 177.590301056 33.8433581208 192 -6 192 c 1
 20 315 l 1
 73.0330106245 315 95.1633839322 338.113945455 110 409 c 2
 131 505 l 2
 160.054751302 634.628890423 204.81480405 667 355 667 c 2
 410 667 l 1
 384 548 l 1
 351 548 l 2
 303.128762148 548 284.172715994 536.472674636 277 503 c 2
 251 380 l 2
 241.666666667 338 225.666666667 308.333333333 203 291 c 0
 180.333333333 273.666666667 156.333333333 261.666666667 131 255 c 1
 130 252 l 1
 178.519030184 238.579842715 201.666209674 210.698138354 201.666209674 165.675181393 c 0
 201.666209674 154.019047501 200.114201934 141.155463335 197 127 c 2
 172 13 l 2
 169.990900001 4.10255714868 169.010193039 -3.26057690198 169.010193039 -9.4474285195 c 0
 169.010193039 -33.0211666489 183.074488377 -42 220 -42 c 2
 260 -42 l 1
 234 -162 l 1
 180 -162 l 2
EndSplineSet
EndChar

StartChar: bar
Encoding: 124 124 136
Width: 299
GlyphClass: 1
Flags: W
HStem: -161 21G<59 205> 648 20G<59 205>
VStem: 59 146<-161 668>
LayerCount: 2
Fore
SplineSet
59 -161 m 1
 59 668 l 1
 205 668 l 1
 205 -161 l 1
 59 -161 l 1
EndSplineSet
EndChar

StartChar: braceright
Encoding: 125 125 137
Width: 373
GlyphClass: 1
Flags: W
HStem: -162 120<-45 53.7535> 548 119<106 170.702>
VStem: 139.998 150.304<320.771 460.406> 172.191 148.526<423.062 587.12>
DStem2: -70 -162 175.353 -162 0.207912 0.978148<85.492 732.678 733.988 775.078> 29.1407 -162 175.353 -162 0.207912 0.978148<126.939 382.693 569.327 692.974>
LayerCount: 2
Fore
SplineSet
-70 -162 m 1xe0
 -45 -42 l 1
 -11 -42 l 2
 36.9020209066 -42 56.8187771043 -30.3155030307 64 2 c 2
 90 126 l 2
 99.3333333335 168.666666668 115.333333333 198.666666667 138 216 c 0
 160.666666667 233.333333333 184.666666667 245.333333333 210 252 c 1
 211 255 l 1
 162.402751461 269.790466947 139.998021282 297.413372401 139.998021282 342.538699621 c 0xe0
 139.998021282 353.525174477 141.327423781 365.637118904 144 379 c 2
 170 498 l 2
 171.470148227 505.105716433 172.191360001 511.125797553 172.191360001 516.291666132 c 0
 172.191360001 539.365522224 157.979161406 548 120 548 c 2
 81 548 l 1
 106 667 l 1
 161 667 l 2
 266.067846793 667 320.717330067 626.271603178 320.717330067 547.968118844 c 0xd0
 320.717330067 534.682017359 319.143735754 520.348827507 316 505 c 2
 296 409 l 2
 292.161938612 390.577305337 290.302382862 375.881990537 290.302382862 363.974042877 c 0
 290.302382862 328.980069208 306.201755194 315 346 315 c 1
 320 192 l 1
 267.626350015 192 243.643384806 166.962838518 229 97 c 2
 210 1 l 1
 183.222980052 -128.422263083 136.667344817 -162 -16 -162 c 2
 -70 -162 l 1xe0
EndSplineSet
EndChar

StartChar: asciitilde
Encoding: 126 126 138
Width: 533
GlyphClass: 1
Flags: W
HStem: 167 123<272.824 376.14> 227 123<124.916 230.676>
LayerCount: 2
Fore
SplineSet
494 333 m 1x80
 460.974196578 217.409688021 409.349817279 167 324 167 c 0x80
 256.864077064 167 231.135922936 227 164 227 c 0
 132.523091658 227 114.829885975 202.290523098 106 146 c 1
 9 184 l 1
 41.8770180726 299.069563254 94.3415041181 350 180 350 c 0x40
 245.87488981 350 273.12511019 290 339 290 c 0
 369.511673352 290 388.348169693 316.437187847 396 370 c 1
 494 333 l 1x80
EndSplineSet
EndChar

StartChar: exclamdown
Encoding: 161 161 139
Width: 297
GlyphClass: 1
Flags: W
HStem: -162 21G<-55 147.277> 324 194<105.873 228.204>
VStem: 69 194<360.223 481.067>
LayerCount: 2
Fore
SplineSet
-55 -162 m 1
 -18 11 l 1
 77 264 l 1
 192 264 l 1
 180 11 l 1
 143 -162 l 1
 -55 -162 l 1
263 420 m 0
 263 365.780940731 220.783841136 324 166 324 c 0
 111.859817384 324 69 366.417963596 69 420 c 0
 69 474.805951081 111.753293318 518 166 518 c 0
 220.889540456 518 263 475.455412007 263 420 c 0
EndSplineSet
EndChar

StartChar: cent
Encoding: 162 162 140
Width: 531
GlyphClass: 1
Flags: W
VStem: 2 154<130.674 299.486> 155 74<-87 -13>
DStem2: 155 -87 229 -87 0.207912 0.978148<15.3855 80.8082 215.627 480.521 622.394 672.729>
LayerCount: 2
Fore
SplineSet
255 383 m 1x80
 196.077168622 357.466773069 156 282.575094331 156 198 c 0
 156 155.874484671 170.40052444 127.073435791 198 114 c 1
 255 383 l 1x80
270 109 m 1
 299.173400266 114.834680053 321.339833039 129.196030864 341 155 c 1
 464 107 l 1
 412.650117396 34.6433472402 338.473195207 -5.66283422325 245 -12 c 1
 229 -87 l 1
 155 -87 l 1x40
 172 -8 l 1
 64.8259723324 10.2980047238 2 85.3196069796 2 195 c 0
 2 362.691099552 118.441141451 492.855661246 282 508 c 1
 295 571 l 1
 368 571 l 1
 354 507 l 1
 432.800525421 496.592383435 483.091571203 456.231416756 511 381 c 1
 378 335 l 1
 370.247961855 364.71614622 353.820839809 382.48425782 329 388 c 1
 270 109 l 1
EndSplineSet
EndChar

StartChar: sterling
Encoding: 163 163 141
Width: 617
GlyphClass: 1
Flags: W
HStem: -12 125<265.995 497.261> 24 110<151.573 282.081> 295 73<58 133 315 443> 556 123<299.256 445.788>
VStem: 113 158<380.806 528.293> 158 159<216.604 294.75>
LayerCount: 2
Fore
SplineSet
175 24 m 0x74
 128.145047727 24 83.2750217821 12.6245004647 33 -12 c 1
 2 104 l 1
 57.3333333327 128 97.1666666664 156.166666667 121.5 188.5 c 0
 145.833333333 220.833333333 158 250.333333333 158 277 c 0xb4
 158 283.666666667 157 289.666666667 155 295 c 1
 43 295 l 1
 58 368 l 1
 133 368 l 1
 117.690679003 422.676146418 113 448.474880935 113 478 c 0
 113 598.652097174 222.928722771 679 388 679 c 0
 506 679 587.333333333 631.666666667 632 537 c 1
 485 487 l 1
 456.589451717 536.072765216 424.53259576 556 374 556 c 0
 306.49994691 556 271 526.703927308 271 471 c 0xb8
 271 443.666666666 280.000000001 409.333333331 298 368 c 1
 458 368 l 1
 443 295 l 1
 315 295 l 1
 316.333333333 289.666666665 317 284.333333331 317 279 c 0
 317 226.907908004 262.336471097 161.793998575 181 117 c 1
 205.196945759 129.62449344 227.846626776 134 269 134 c 0x74
 329.160937834 134 346.839062166 113 407 113 c 0
 441.825931684 113 478.344106521 123.291485636 517 144 c 1
 535 23 l 1
 481.243696708 -1.04887252521 428.678284829 -12 367 -12 c 0xb4
 289.980564709 -12 252.019435291 24 175 24 c 0x74
EndSplineSet
EndChar

StartChar: currency
Encoding: 164 164 142
Width: 678
GlyphClass: 1
Flags: W
HStem: 102 119<275.853 398.147> 419 120<274.879 399.16>
VStem: 118 120<259.029 381.751> 436 119<258.678 381.599>
DStem2: 144 565 92 513 0.707107 -0.707107<0 98.8678 520.392 619.426> 92 127 144 75 0.707107 0.707107<0 98.8956 520.531 619.426>
LayerCount: 2
Fore
SplineSet
238 321 m 0
 238 265.50076602 282.05575836 221 337 221 c 0
 391.94424164 221 436 265.50076602 436 321 c 0
 436 375.917262059 392.477642284 419 337 419 c 0
 281.522357716 419 238 375.917262059 238 321 c 0
555 321 m 0
 555 274.728104335 541.381575923 231.489607889 515 194 c 1
 582 127 l 1
 530 75 l 1
 463 142 l 1
 426.333333333 115.333333333 384.333333334 102 337 102 c 0
 289.666666666 102 247.666666667 115.333333333 211 142 c 1
 144 75 l 1
 92 127 l 1
 159 194 l 1
 131.96542914 232.417548064 118 275.676316376 118 321 c 0
 118 365.035878387 131.946412253 407.555427938 159 446 c 1
 92 513 l 1
 144 565 l 1
 211 498 l 1
 247.318690706 524.902733858 290.641996412 539 337 539 c 0
 383.990307768 539 426.185937226 525.269676129 463 498 c 1
 530 565 l 1
 582 513 l 1
 515 446 l 1
 541.666666667 409.333333333 555 367.666666667 555 321 c 0
EndSplineSet
EndChar

StartChar: yen
Encoding: 165 165 143
Width: 700
GlyphClass: 1
Flags: W
HStem: 0 21G<191 358.267> 75 73<99 207 385 499> 212 74<128 225 442 528> 647 20G<82 259.209 542.188 762>
VStem: 558 204<463 667>
DStem2: 339 390 442 286 0.643145 0.765744<0 352.96>
LayerCount: 2
Fore
SplineSet
191 0 m 1
 207 75 l 1
 83 75 l 1
 99 148 l 1
 222 148 l 1
 236 212 l 1
 112 212 l 1
 128 286 l 1
 225 286 l 1
 82 667 l 1
 253 667 l 1
 339 390 l 1
 558 667 l 1
 762 667 l 1
 442 286 l 1
 544 286 l 1
 528 212 l 1
 398 212 l 1
 385 148 l 1
 515 148 l 1
 499 75 l 1
 370 75 l 1
 354 0 l 1
 191 0 l 1
EndSplineSet
EndChar

StartChar: brokenbar
Encoding: 166 166 144
Width: 281
GlyphClass: 1
Flags: W
HStem: -161 21G<59 187> 648 20G<59 187>
VStem: 59 128<-161 150 358 668>
LayerCount: 2
Fore
SplineSet
59 -161 m 1
 59 150 l 1
 187 150 l 1
 187 -161 l 1
 59 -161 l 1
59 358 m 1
 59 668 l 1
 187 668 l 1
 187 358 l 1
 59 358 l 1
EndSplineSet
EndChar

StartChar: section
Encoding: 167 167 145
Width: 563
GlyphClass: 1
Flags: W
HStem: -174 120<95.6102 212.7> 563 116<306.668 426.194>
VStem: 15 156<230.521 336.088> 147 152<486.651 552.937> 231 157<-34.6823 47.4147> 365 161<198.194 288.1>
LayerCount: 2
Fore
SplineSet
233 352 m 1xe4
 194.598277171 344.319655434 171 324.908169374 171 301 c 0
 171 278.110706525 181.344638701 267.532290678 259.5 210.5 c 0
 271.833333315 201.500000013 282.333333321 193.666666676 291 187 c 2
 304 177 l 1
 344.666666667 193.666666667 365 212 365 232 c 0
 365 254.151568439 354.833626416 263.393726243 233 352 c 1xe4
388 40 m 0xc8
 388 -77.460054457 275.219689786 -174 138 -174 c 0
 36.0447088796 -174 -38.6435477445 -126.608974223 -59 -49 c 1
 81 -2 l 1
 84.5179391951 -33.6614527561 112.287878701 -54 152 -54 c 0
 196.911872107 -54 231 -28.5417779025 231 5 c 0
 231 28.627411122 212.528688059 50.5352462145 166.5 81.5 c 0
 47.4616695614 161.580331386 15 200.041517434 15 261 c 0xe8
 15 338.315735111 61.3380188074 392.376757053 159 429 c 1
 151 448.333333333 147 468.666666667 147 490 c 0
 147 599.990234553 240.641203493 679 371 679 c 0
 473.724118659 679 541.774264831 644.634676183 571 578 c 1
 432 532 l 1
 426.040225282 551.071279096 401.028391128 563 367 563 c 0
 327.127230505 563 299 546.454570291 299 523 c 0
 299 508.333333333 308.833333333 494.166666667 328.5 480.5 c 0
 370.014452713 451.650973534 461.127463458 382.101375332 478.5 366 c 0
 510.367793439 336.463996326 526 305.199583205 526 271 c 0xd4
 526 237.666666667 515.5 205.666666667 494.5 175 c 0
 473.5 144.333333333 433.666666667 118.333333333 375 97 c 1
 383.666666667 81.6666666676 388 62.666666668 388 40 c 0xc8
EndSplineSet
EndChar

StartChar: dieresis
Encoding: 168 168 146
Width: 455
GlyphClass: 1
Flags: W
HStem: 578 141<148.848 248.643 342.848 443.09>
VStem: 128 141<598.357 698.152> 322 140<598.255 698.152>
LayerCount: 2
Fore
SplineSet
462 648 m 0
 462 608.680054777 431.75823172 578 393 578 c 0
 353.659593139 578 322 609.213683376 322 648 c 0
 322 687.072841291 353.927158709 719 393 719 c 0
 431.500501335 719 462 687.616457895 462 648 c 0
269 648 m 0
 269 608.951033235 238.048966765 578 199 578 c 0
 159.659593139 578 128 609.213683376 128 648 c 0
 128 687.072841291 159.927158709 719 199 719 c 0
 237.786316624 719 269 687.340406861 269 648 c 0
EndSplineSet
EndChar

StartChar: copyright
Encoding: 169 169 147
Width: 814
GlyphClass: 1
Flags: W
HStem: -12 69<302.269 512.679> 145 85<364.667 473.009> 437 85<365.499 467.59> 610 69<302.416 512.531>
VStem: 62 70<228.732 438.778> 227 112<257.579 410.886> 684 70<228.47 439.039>
LayerCount: 2
Fore
SplineSet
572 231 m 1
 539.803030349 175.805194884 481.774639986 145 410 145 c 0
 295.953485951 145 227 216.214255982 227 334 c 0
 227 445.951350824 301.02607872 522 410 522 c 0
 486.806920906 522 544.299687688 488.844662101 573 428 c 1
 481 394 l 1
 469.850049708 422.494317412 447.922855099 437 416 437 c 0
 368.098390151 437 339 398.076179408 339 334 c 0
 339 269.02984078 367.897093655 230 416 230 c 0
 447.333333333 230 469.333333333 241.333333333 482 264 c 1
 572 231 l 1
132 334 m 0
 132 181.117227632 255.221074364 57 407 57 c 0
 560.460918816 57 684 180.539081184 684 334 c 0
 684 486.619818366 560.172788722 610 407 610 c 0
 255.507304398 610 132 486.043578131 132 334 c 0
754 334 m 0
 754 142.513983979 599.039443813 -12 407 -12 c 0
 216.816416201 -12 62 143.265159436 62 334 c 0
 62 523.719523112 217.280476888 679 407 679 c 0
 598.574002213 679 754 524.469829289 754 334 c 0
EndSplineSet
EndChar

StartChar: questiondown
Encoding: 191 191 148
Width: 634
GlyphClass: 1
Flags: W
HStem: -172 128<168.68 339.438> 325 194<304.381 424.952>
VStem: -21 174.961<-29.7095 46.1753> 268 194<361.381 481.952>
LayerCount: 2
Fore
SplineSet
234 -172 m 0
 76.9242003177 -172 -21 -114.013512753 -21 -21 c 0
 -21 61.488826318 25.2510612938 116.393311983 134 163 c 0
 213.511859379 197.659015627 236.877784483 217.194461206 256 265 c 1
 417 265 l 1
 407.54628991 192.521555979 359.288633594 135.023071858 276 97 c 0
 170.236543956 50.4640793406 153.961435903 38.7097905034 153.961435903 8.86070611403 c 0
 153.961435903 -26.0079988085 185.288258351 -44 246 -44 c 0
 312.600235967 -44 362.183342419 -19.3948494299 379 22 c 1
 517 -33 l 1
 464.114969909 -126.471215975 371.419675814 -172 234 -172 c 0
462 421 m 0
 462 367.047807947 419.076196054 325 364 325 c 0
 310.152894368 325 268 367.152894368 268 421 c 0
 268 476.076196054 310.047807947 519 364 519 c 0
 419.183334319 519 462 476.183334319 462 421 c 0
EndSplineSet
EndChar

StartChar: germandbls
Encoding: 223 223 149
Width: 631
GlyphClass: 1
Flags: W
HStem: -13 125<253.032 384.288> 0 21G<-23 138.245> 298 117<302 394.608> 566 113<284.685 433.044>
VStem: -23 157<0 157> 424 162<149.56 269.473> 452.101 149.899<453.335 547.333>
DStem2: -25.7632 -13 131.237 -13 0.207912 0.978148<45.9326 592.102>
LayerCount: 2
Fore
SplineSet
452.10119148 501.663256885 m 0xba
 452.10119148 542.469754312 420.245173659 566 365 566 c 0
 282.645865058 566 245.73184103 528.824174383 224 424 c 2
 134 0 l 1
 -23 0 l 1
 70 435 l 1
 108.204708678 608.831424482 196.203004204 679 376 679 c 0
 515.357021947 679 602 618.043214555 602 520 c 0x7a
 602 454.743836142 574.458646789 406.066095584 516 368 c 1
 560.139012456 345.930493773 586 295.686289401 586 232 c 0
 586 76.1893675335 482.977179543 -13 303 -13 c 0
 285.666666667 -13 269 -12.3333333333 253 -11 c 1
 241 123 l 1
 268.333333335 115.666666667 292.000000002 112 312 112 c 0
 382.779353713 112 424 149.54023144 424 214 c 0xbc
 424 270 385 298 307 298 c 2
 277 298 l 1
 302 415 l 1
 328 415 l 2
 395.903964999 415 452.10119148 454.244060566 452.10119148 501.663256885 c 0xba
EndSplineSet
EndChar

StartChar: AE
Encoding: 198 198 150
Width: 1016
GlyphClass: 1
Flags: W
HStem: 0 139<602 929> 119 128<354 437> 275 138<660 849> 529 139<685 1042>
DStem2: -65 0 136 0 0.679101 0.734045<136.499 295.156 465.852 630.421>
AnchorPoint: "Anchor-0" 763 668 basechar 0
LayerCount: 2
Fore
SplineSet
354 247 m 1x70
 464 247 l 1
 501 421 l 1
 354 247 l 1x70
-65 0 m 1xb0
 553 668 l 1
 1071 668 l 1
 1042 529 l 1
 685 529 l 1
 660 413 l 1
 879 413 l 1
 849 275 l 1
 631 275 l 1
 602 139 l 1
 959 139 l 1
 929 0 l 1
 411 0 l 1xb0
 437 119 l 1
 241 119 l 1x70
 136 0 l 1
 -65 0 l 1xb0
EndSplineSet
EndChar

StartChar: florin
Encoding: 279 402 151
Width: 390
GlyphClass: 1
Flags: W
HStem: -173 140<-60.9495 18.4735> 381 115<53 111 287 371> 608 121<310.963 419>
DStem2: -7.06199 -173 145.629 -173 0.207912 0.978148<145.938 566.44 715.52 829.771>
LayerCount: 2
Fore
SplineSet
-59 -31 m 1
 -51.285907074 -32.2856821543 -42.3569340028 -33 -34 -33 c 0
 9.40883822243 -33 26.7458567571 -15.6629814653 38 39 c 2
 111 381 l 1
 29 381 l 1
 53 496 l 1
 135 496 l 1
 153 578 l 2
 177.465596006 689.036166488 236.485032252 729 376 729 c 2
 445 729 l 1
 419 608 l 1
 377 608 l 2
 323.455473558 608 309.699212952 599.929660444 302 564 c 2
 287 496 l 1
 395 496 l 1
 371 381 l 1
 263 381 l 1
 179 -16 l 2
 158.189954686 -118.74959874 92.8821467997 -173 -10 -173 c 0
 -34.9155587937 -173 -62.4059322853 -169.786839462 -87 -164 c 1
 -59 -31 l 1
EndSplineSet
EndChar

StartChar: integral
Encoding: 280 8747 152
Width: 344
GlyphClass: 1
Flags: W
HStem: -174 144<-11.8558 54.977> 536 144<255.865 324.057>
VStem: -45 112<-104.719 -42.0221> 85 135<155.524 562.808> 93 135<-53.3586 350.476> 246 111.035<547.503 610.718>
LayerCount: 2
Fore
SplineSet
228 110 m 0xec
 228 -80.0482083221 170.437986789 -174 54 -174 c 0
 1.11166411355 -174 -45 -136.272274816 -45 -93 c 0
 -45 -56.5265323801 -21.8419161761 -30 10 -30 c 0
 41.9154399415 -30 67 -54.6444800575 67 -86 c 0
 67 -92.6666666667 66 -99 64 -105 c 1
 84.8076982322 -95.2081420083 93 -64.9813734167 93 2 c 0xec
 93 35.2938488198 85 362.70615118 85 396 c 0
 85 531.841540562 114.028578993 618.927277541 171.5 655.5 c 0
 197.166666669 671.833333333 225.000000002 680 255 680 c 0
 312.489126826 680 357.035052059 644.305566575 357.035052059 598.239808609 c 0
 357.035052059 560.933005318 334.988241885 536 302 536 c 0
 269.398789128 536 246 558.145282567 246 589 c 0
 246 597.666666667 247 605 249 611 c 1
 229.666666667 601.666666667 220 566 220 504 c 0xf4
 220 469.922980647 228 144.077019353 228 110 c 0xec
EndSplineSet
EndChar

StartChar: approxequal
Encoding: 281 8776 153
Width: 556
GlyphClass: 1
Flags: W
HStem: 59 123<280.73 373.468> 118 125<147.296 239.804> 257 123<281.967 373.386> 317 124<147.326 239.81>
VStem: 36 104<92.4423 113.571 291.442 312.249> 382 104<187.655 208.558 385.733 406.49>
LayerCount: 2
Fore
SplineSet
486 206 m 1x8c
 475.722669662 104.694886664 434.690526535 59 354 59 c 0x8c
 281.557743003 59 252.442256997 118 180 118 c 0
 153.107443174 118 141.124363239 99.7258030996 140 57 c 1
 36 95 l 1
 40.6666666667 140.333333333 53 176.333333333 73 203 c 0
 92.9999999998 229.666666667 125.333333333 243 170 243 c 0x4c
 240.418748646 243 271.581251354 182 342 182 c 0
 368.067271207 182 380.891515217 201.877578216 382 244 c 1
 486 206 l 1x8c
486 404 m 1
 475.620673099 303.172252964 434.159874519 257 354 257 c 0x2c
 281.510544046 257 252.489455954 317 180 317 c 0
 153.107443174 317 141.124363239 298.7258031 140 256 c 1
 36 294 l 1
 46.3683553273 394.721166037 88.5545032936 441 170 441 c 0x1c
 240.418748646 441 271.581251354 380 342 380 c 0x2c
 367.883675331 380 380.887312055 399.830546004 382 441 c 1x1c
 486 404 l 1
EndSplineSet
EndChar

StartChar: notequal
Encoding: 282 8800 154
Width: 661
GlyphClass: 1
Flags: W
HStem: 0 21G<64 231.167> 96 129<58 131 374 570> 283 127<58 262 504 570> 475 20G<397.118 564>
LayerCount: 2
Fore
SplineSet
64 0 m 1
 131 96 l 1
 58 96 l 1
 58 225 l 1
 221 225 l 1
 262 283 l 1
 58 283 l 1
 58 410 l 1
 352 410 l 1
 411 495 l 1
 564 495 l 1
 504 410 l 1
 570 410 l 1
 570 283 l 1
 414 283 l 1
 374 225 l 1
 570 225 l 1
 570 96 l 1
 285 96 l 1
 217 0 l 1
 64 0 l 1
EndSplineSet
EndChar

StartChar: lessequal
Encoding: 283 8804 155
Width: 676
GlyphClass: 1
Flags: W
HStem: 0 128<53 565> 490 20G<482.419 565>
LayerCount: 2
Fore
SplineSet
53 0 m 1
 53 128 l 1
 565 128 l 1
 565 0 l 1
 53 0 l 1
565 136 m 1
 53 260 l 1
 53 386 l 1
 565 510 l 1
 565 381 l 1
 228 324 l 1
 565 265 l 1
 565 136 l 1
EndSplineSet
EndChar

StartChar: greaterequal
Encoding: 284 8805 156
Width: 702
GlyphClass: 1
Flags: W
HStem: 0 128<79 591> 490 20G<79 161.581>
LayerCount: 2
Fore
SplineSet
79 0 m 1
 79 128 l 1
 591 128 l 1
 591 0 l 1
 79 0 l 1
79 136 m 1
 79 265 l 1
 416 324 l 1
 79 381 l 1
 79 510 l 1
 591 386 l 1
 591 260 l 1
 79 136 l 1
EndSplineSet
EndChar

StartChar: lozenge
Encoding: 285 9674 157
Width: 607
GlyphClass: 1
Flags: W
DStem2: 38 313 176 313 0.546521 0.837445<75.4199 302.012> 176 313 38 313 0.545572 -0.838064<0 226.591> 301 716 301 502 0.545061 -0.838396<179.417 405.461> 301 124 301 -91 0.544112 0.839013<0 226.043>
LayerCount: 2
Fore
SplineSet
301 124 m 1
 425 313 l 1
 301 502 l 1
 176 313 l 1
 301 124 l 1
301 -91 m 1
 38 313 l 1
 301 716 l 1
 563 313 l 1
 301 -91 l 1
EndSplineSet
EndChar

StartChar: summation
Encoding: 286 8721 158
Width: 793
GlyphClass: 1
Flags: W
HStem: -162 128<283 648> 540 128<283 648>
DStem2: 283 540 113 540 0.641239 -0.767341<0 262.423> 113 -34 283 -34 0.638606 0.769534<108.563 372.975>
LayerCount: 2
Fore
SplineSet
113 -162 m 1
 113 -34 l 1
 350 254 l 1
 113 540 l 1
 113 668 l 1
 648 668 l 1
 648 540 l 1
 283 540 l 1
 522 254 l 1
 283 -34 l 1
 648 -34 l 1
 648 -162 l 1
 113 -162 l 1
EndSplineSet
EndChar

StartChar: minus
Encoding: 287 8722 159
Width: 645
GlyphClass: 1
Flags: W
HStem: 184 128<39 551>
LayerCount: 2
Fore
SplineSet
39 184 m 1
 39 312 l 1
 551 312 l 1
 551 184 l 1
 39 184 l 1
EndSplineSet
EndChar

StartChar: uni2215
Encoding: 288 8725 160
Width: 482
GlyphClass: 1
Flags: W
HStem: 0 21G<-55 85.982> 648 20G<398.988 539>
VStem: -55 127<0 127> 413 126<542 668>
DStem2: -55 0 72 0 0.573791 0.819001<72.8715 815.627>
LayerCount: 2
Fore
SplineSet
-55 0 m 1
 413 668 l 1
 539 668 l 1
 72 0 l 1
 -55 0 l 1
EndSplineSet
EndChar

StartChar: uni2219
Encoding: 289 8729 161
Width: 281
GlyphClass: 1
Flags: W
HStem: 157 194<64.5928 184.902>
VStem: 27 195<194.593 314.672>
LayerCount: 2
Fore
SplineSet
222 255 m 0
 222 200.838557533 178.608774686 157 125 157 c 0
 71.1048126482 157 27 201.104812648 27 255 c 0
 27 308.971904664 69.9036806553 351 125 351 c 0
 179.793921915 351 222 309.229036122 222 255 c 0
EndSplineSet
EndChar

StartChar: radical
Encoding: 290 8730 162
Width: 615
GlyphClass: 1
Flags: W
HStem: -162 21G<262.373 432.277> 93 132<19 161> 648 20G<496.679 646>
VStem: 502 144<524 668>
DStem2: 332 29 427 -162 0.255124 0.966908<0 661.226>
LayerCount: 2
Fore
SplineSet
271 -162 m 1
 161 93 l 1
 19 93 l 1
 19 225 l 1
 252 225 l 1
 332 29 l 1
 502 668 l 1
 646 668 l 1
 427 -162 l 1
 271 -162 l 1
EndSplineSet
EndChar

StartChar: infinity
Encoding: 291 8734 163
Width: 757
GlyphClass: 1
Flags: W
HStem: 97 107<160.156 265.709 459.027 564.89> 306 106<159.435 265.812 458.134 565.697>
VStem: 29 120<216.397 295.136> 576 120<216.355 295.263>
LayerCount: 2
Fore
SplineSet
429 256 m 1
 457.802442273 220.420512484 485.591001861 204 517 204 c 0
 551.249225033 204 576 225.814242344 576 256 c 0
 576 285.751287536 551.296570793 306 515 306 c 0
 486.415180675 306 456.927697041 288.856114166 429 256 c 1
149 256 m 0
 149 225.814242345 173.750774968 204 208 204 c 0
 239.408998139 204 267.197557724 220.420512483 296 256 c 1
 267.380984859 289.669429579 239.292403735 306 210 306 c 0
 174.325932758 306 149 285.241038723 149 256 c 0
362 176 m 1
 310.019722442 120.666156148 261.788695356 97 201 97 c 0
 101.946378931 97 29 164.008882971 29 255 c 0
 29 344.488364596 104.681833319 412 205 412 c 0
 263.451752724 412 313.252272773 387.892741887 362 336 c 1
 412.176601569 387.744620367 462.602259227 412 520 412 c 0
 620.615282866 412 696 344.753405739 696 255 c 0
 696 163.741091346 623.345141066 97 524 97 c 0
 462.952772536 97 413.606717314 121.063817053 362 176 c 1
EndSplineSet
EndChar

StartChar: uni03A9
Encoding: 292 937 164
Width: 744
GlyphClass: 1
Flags: W
HStem: 0 115<53 190 502 639> 564 116<264.584 427.146>
VStem: 53 121<312.265 474.027> 371 268<0 115> 517 122<309.471 473.997>
LayerCount: 2
Fore
SplineSet
174 392 m 0xe8
 174 307.804806637 237.083275937 235.280496205 321 223 c 1
 321 0 l 1
 53 0 l 1
 53 115 l 1
 190 115 l 1
 190 139 l 1
 104.809832812 193.465844595 53 286.874813241 53 386 c 0
 53 548.779196754 183.774473983 680 346 680 c 0
 508.225526017 680 639 548.779196754 639 386 c 0xe8
 639 285.709004377 587.434932988 192.741328815 502 139 c 1
 502 115 l 1
 639 115 l 1
 639 0 l 1
 371 0 l 1
 371 223 l 1xf0
 455.107176872 235.015310981 517 306.658373369 517 392 c 0
 517 487.962997164 441.405072762 564 346 564 c 0
 249.899845368 564 174 488.100154632 174 392 c 0xe8
EndSplineSet
EndChar

StartChar: estimated
Encoding: 293 8494 165
Width: 610
GlyphClass: 1
Flags: W
HStem: -12 70<205.553 379.114> 249 66<167 415> 440 70<202.687 378.085>
VStem: 30 137<147.142 249 315 350.513>
LayerCount: 2
Fore
SplineSet
292 440 m 0
 244.729549901 440 200.975636009 423.898559688 167 394 c 1
 167 315 l 1
 415 315 l 1
 415 394 l 1
 380.333333333 424.666666667 339.333333333 440 292 440 c 0
507 103 m 1
 458.341640899 30.7075807655 378.497033381 -12 292 -12 c 0
 146.67094607 -12 30 104.225637116 30 249 c 0
 30 392.955864586 147.492580377 510 292 510 c 0
 435.945954175 510 552 393.499592461 552 249 c 1
 167 249 l 1
 167 104 l 1
 200.975636008 74.1014403126 244.729549901 58 292 58 c 0
 349.006648816 58 403.024930359 83.7229912109 439 128 c 1
 507 103 l 1
EndSplineSet
EndChar

StartChar: partialdiff
Encoding: 294 8706 166
Width: 594
GlyphClass: 1
Flags: W
HStem: -12 119<214.66 338.591> 315 120<213.773 339.182> 560.994 119.006<152 307.943>
VStem: 21 151<147.805 274.582> 379 157<160.326 398.006>
LayerCount: 2
Fore
SplineSet
172 211 m 0
 172 153.094784868 218.094784868 107 276 107 c 0
 333.614957875 107 379 152.825673602 379 211 c 0
 379 269.817806489 334.252250657 315 276 315 c 0
 217.449359688 315 172 269.550640312 172 211 c 0
536 315 m 0
 536 103.016540101 442.087412211 -12 269 -12 c 0
 120.634591955 -12 21 77.9925346691 21 212 c 0
 21 336.390748863 120.051445088 435 245 435 c 0
 319.227879502 435 383.191247645 406.45137806 422 356 c 1
 412.635416794 495.298175202 336.824484044 560.993910754 185.443099435 560.993910754 c 0
 174.694882455 560.993910754 163.549493145 560.662675836 152 560 c 1
 152 680 l 1
 423.774097695 680 536 573.326941819 536 315 c 0
EndSplineSet
EndChar

StartChar: uni0394
Encoding: 295 916 167
Width: 715
GlyphClass: 1
Flags: W
HStem: 0 115<159 415> 660 20G<277.706 296.324>
DStem2: -29 0 159 115 0.421425 0.906863<183.517 512.239> 287 680 287 418 0.422521 -0.906353<237.465 566.172>
LayerCount: 2
Fore
SplineSet
159 115 m 1
 415 115 l 1
 287 418 l 1
 159 115 l 1
-29 0 m 1
 287 680 l 1
 604 0 l 1
 -29 0 l 1
EndSplineSet
EndChar

StartChar: product
Encoding: 296 8719 168
Width: 790
GlyphClass: 1
Flags: W
HStem: -161 21G<113 241 517 645> 552 116<241 517>
VStem: 113 128<-161 552> 517 128<-161 552>
LayerCount: 2
Fore
SplineSet
113 -161 m 1
 113 668 l 1
 645 668 l 1
 645 -161 l 1
 517 -161 l 1
 517 552 l 1
 241 552 l 1
 241 -161 l 1
 113 -161 l 1
EndSplineSet
EndChar

StartChar: pi
Encoding: 297 960 169
Width: 638
GlyphClass: 1
Flags: W
HStem: 1 104<477.161 536> 380 116<53 117 248 398 529 617>
VStem: 36 131<0 131> 338 139<56.2856 200.875>
DStem2: 36 0 167 0 0.207912 0.978148<27.2364 388.537> 316.918 0 447.691 0 0.207912 0.978148<160.718 388.554>
LayerCount: 2
Fore
SplineSet
458 1 m 2
 377.861888182 1 338 28.571139326 338 84 c 0
 338 96.0000000024 339.333333333 107.333333335 342 118 c 2
 398 380 l 1
 248 380 l 1
 167 0 l 1
 36 0 l 1
 117 380 l 1
 28 380 l 1
 53 496 l 1
 642 496 l 1
 617 380 l 1
 529 380 l 1
 480 152 l 2
 478 143.333333333 477 136 477 130 c 0
 477 111.903873477 490.531592015 105 526 105 c 2
 559 105 l 1
 536 1 l 1
 458 1 l 2
EndSplineSet
EndChar

StartChar: hungarumlaut
Encoding: 298 733 170
Width: 502
GlyphClass: 1
Flags: W
HStem: 572 154
LayerCount: 2
Fore
SplineSet
474 726 m 0
 505.378277934 726 530 700.498930717 530 668 c 0
 530 643.880875666 523.734825105 635.160429528 493 616.5 c 0
 433.181818182 580.181818182 433.181818182 580.181818182 432 579.5 c 2
 419 572 l 1
 297 572 l 1
 423.5 698.5 l 2
 433.16666667 708.16666667 438.333333333 713 439 713 c 0
 448.333333333 721.666666667 459.999999999 726 474 726 c 0
267 726 m 0
 298.378277934 726 323 700.498930717 323 668 c 0
 323 643.880875666 316.734825105 635.160429528 286 616.5 c 0
 226.181818182 580.181818182 226.181818182 580.181818182 225 579.5 c 2
 212 572 l 1
 89 572 l 1
 103.5 586 l 2
 113.166666637 595.333333304 124.999999957 606.999999957 139 621 c 2
 216.5 698.5 l 2
 226.16666667 708.16666667 231.333333333 713 232 713 c 0
 241.333333333 721.666666667 252.999999999 726 267 726 c 0
EndSplineSet
EndChar

StartChar: tilde
Encoding: 299 732 171
Width: 461
GlyphClass: 1
Flags: W
HStem: 568 80<296.089 409.028> 607 82<186.459 296.089>
LayerCount: 2
Fore
SplineSet
453 690 m 0x80
 474.553368372 690 492 672.553368372 492 651 c 0
 492 631.343948814 478.253440261 612.719577555 445.5 588 c 0
 427.833333331 574.666666667 402.666666665 568 370 568 c 0x80
 303.081074799 568 295.918925201 607 229 607 c 0
 208.333333333 607 191.333333333 596 178 574 c 1
 89 574 l 1
 110.006590472 641.687902634 165.958288227 689 225 689 c 0x40
 293.484641577 689 295.515358423 648 364 648 c 0
 410.876069227 648 406.123930773 690 453 690 c 0x80
EndSplineSet
EndChar

StartChar: endash
Encoding: 300 8211 172
Width: 536
GlyphClass: 1
Flags: W
HStem: 185 128<38 464>
LayerCount: 2
Fore
SplineSet
38 185 m 1
 38 313 l 1
 464 313 l 1
 464 185 l 1
 38 185 l 1
EndSplineSet
EndChar

StartChar: emdash
Encoding: 301 8212 173
Width: 870
GlyphClass: 1
Flags: W
HStem: 185 128<38 798>
LayerCount: 2
Fore
SplineSet
38 185 m 1
 38 313 l 1
 798 313 l 1
 798 185 l 1
 38 185 l 1
EndSplineSet
EndChar

StartChar: trademark
Encoding: 302 8482 174
Width: 1013
GlyphClass: 1
Flags: W
HStem: 301 367<234 343 487 594 859 966> 575 93<113 234 343 463>
VStem: 234 109<301 575> 487 107<301 558> 859 107<301 558>
DStem2: 726 432 775 301 0.310675 0.950516<0 161.085>
LayerCount: 2
Fore
SplineSet
234 301 m 1xb8
 234 575 l 1
 113 575 l 1
 113 668 l 1
 463 668 l 1
 463 575 l 1
 343 575 l 1x78
 343 301 l 1
 234 301 l 1xb8
487 301 m 1xb8
 487 668 l 1xb8
 660 668 l 1
 726 432 l 1
 793 668 l 1x78
 966 668 l 1
 966 301 l 1
 859 301 l 1
 859 558 l 1
 775 301 l 1
 678 301 l 1
 594 558 l 1
 594 301 l 1
 487 301 l 1xb8
EndSplineSet
EndChar

StartChar: Euro
Encoding: 303 8364 175
Width: 704
GlyphClass: 1
Flags: W
HStem: -12 130<302.807 459.931> 231 74<43 96.417 250 314> 366 74<71 103 279 418> 553 127<362.398 517.63>
LayerCount: 2
Fore
SplineSet
647 140 m 1
 585.174433693 38.8308914989 491.538580932 -12 367 -12 c 0
 206.747403969 -12 107.178132263 76.6275934968 94 231 c 1
 -13 231 l 1
 43 305 l 1
 94 305 l 1
 96 323 99 343.333333333 103 366 c 1
 15 366 l 1
 71 440 l 1
 123 440 l 1
 177.235633105 592.124336758 298.430818659 680 454 680 c 0
 581.190734789 680 666.882976831 626.006920665 700 525 c 1
 561 475 l 1
 539.303798699 528.035158739 501.53647474 553 443 553 c 0
 372.58547991 553 313.957394393 512.603819126 279 440 c 1
 474 440 l 1
 418 366 l 1
 254 366 l 1
 250.857142857 351.857142857 250.857142857 351.857142857 245 305 c 1
 370 305 l 1
 314 231 l 1
 250 231 l 1
 263.984479599 159.806285672 308.75050231 118 371 118 c 0
 434.767621474 118 483.901834726 143.402722498 518 194 c 1
 647 140 l 1
EndSplineSet
EndChar

StartChar: uni2113
Encoding: 304 8467 176
Width: 506
GlyphClass: 1
Flags: W
HStem: -12 122<169.457 326.485> 573 107<316.522 383.381>
VStem: 64 162.541<73.0462 156.346> 385 125<470.395 571.817>
DStem2: 18 218 69 157 0.851774 0.523909<0 11.4821 295.853 398.018> 33.3738 -12 188.166 -12 0.207912 0.978148<283.136 330.284 425.784 617.746>
LayerCount: 2
Fore
SplineSet
270 373 m 1
 334.175834303 412.333575864 385 486.139103441 385 540 c 0
 385 562 374.666666667 573 354 573 c 0
 324.092513345 573 307.393328249 552.269977122 296 501 c 2
 270 373 l 1
276 110 m 0
 302.275268895 110 329.287817842 119.737081597 362 141 c 1
 400 52 l 1
 381.999999998 38.6666666656 357.666666664 24.6666666655 327 10 c 0
 296.333333333 -4.66666666667 260.333333333 -12 219 -12 c 0
 119.914674691 -12 64 33.0924795895 64 113 c 0
 64 123.628247705 65.2041972481 134.225183489 69 157 c 1
 -5 112 l 1
 18 218 l 1
 92 265 l 1
 132 452 l 2
 164.530760087 607.146701954 236.105930097 680 356 680 c 0
 455.768699495 680 510 638.093995065 510 561 c 0
 510 459.695224514 454.049704328 396.511810771 247 264 c 1
 231 191 l 2
 228.016054751 177.273851854 226.541324534 165.639369352 226.541324534 155.824493928 c 0
 226.541324534 124.175406416 241.840933225 110 276 110 c 0
EndSplineSet
EndChar

StartChar: Lslash
Encoding: 305 321 177
Width: 595
GlyphClass: 1
Flags: W
HStem: 0 140<219 510> 648 20G<166.75 331>
VStem: 171 160<508 668>
DStem2: 11 300 76 225 0.883116 0.469155<0 22.2159 308.235 426.159> 28.1748 0 189.242 0 0.207912 0.978148<176.615 230.027 355.952 362.747 488.257 683.098>
LayerCount: 2
Fore
SplineSet
28 0 m 1
 76 225 l 1
 -15 177 l 1
 11 300 l 1
 103 348 l 1
 171 668 l 1
 331 668 l 1
 283 445 l 1
 459 538 l 1
 433 414 l 1
 258 322 l 1
 219 140 l 1
 539 140 l 1
 510 0 l 1
 28 0 l 1
EndSplineSet
EndChar

StartChar: lslash
Encoding: 306 322 178
Width: 342
GlyphClass: 1
Flags: W
HStem: 0 124<199.31 269> 487 20G<338.462 371.738> 648 20G<141.799 301>
VStem: 29 168<79.6667 218.031> 146 155<513 668>
DStem2: 4.24208 0 160.426 0 0.207912 0.978148<197.054 233.155 356.917 360.715 484.269 682.876>
LayerCount: 2
Fore
SplineSet
197 160 m 0xf0
 197 134.122366887 212.464727188 124 252 124 c 2
 294 124 l 1
 269 0 l 1
 172 0 l 2
 128.666666667 0 93.9999999998 7.16666666675 68 21.5 c 0
 42 35.8333333333 29 61.3333333333 29 98 c 0xf0
 29 108.738017633 30.2972352993 119.634794147 34 140 c 2
 53 228 l 1
 -23 188 l 1
 3 309 l 1
 79 349 l 1
 146 668 l 1
 301 668 l 1xe8
 254 442 l 1
 376 507 l 1
 350 385 l 1
 229 321 l 1
 204 205 l 2
 199.098368152 183.759595323 197 170.270085776 197 160 c 0xf0
EndSplineSet
EndChar

StartChar: oslash
Encoding: 248 248 179
Width: 577
GlyphClass: 1
Flags: W
HStem: -12 118<189.676 313.571> 392 118<230.962 350.407>
VStem: 5 156<201.917 306.275> 382.354 155.646<184.433 303.986>
DStem2: 38 85 88 32 0.731777 0.681544<-85.1142 4.8085 168.386 402.353 562.973 650.931>
AnchorPoint: "Anchor-1" 317 496 basechar 0
LayerCount: 2
Fore
SplineSet
189 125 m 1
 204.990174773 111.917129731 223.364419728 106 248 106 c 0
 327.831340433 106 382.354406425 180.894922373 382.354406425 290.554236938 c 0
 382.354406425 295.652574893 382.236230337 300.802932594 382 306 c 1
 189 125 l 1
161 200 m 1
 351 376 l 1
 336.333333333 386.666666667 318 392 296 392 c 0
 214.781040494 392 161 315.511409075 161 200 c 1
538 295 m 0
 538 112.939331995 417.537321595 -12 242 -12 c 0
 180 -12 128.666666667 2.66666666657 88 32 c 1
 26 -27 l 1
 -25 27 l 1
 38 85 l 1
 16.2241740657 119.024728023 5 159.499779957 5 204 c 0
 5 383.678252171 128.432034643 510 304 510 c 0
 361.066258078 510 411.643959948 496.237360035 451 470 c 1
 514 529 l 1
 565 475 l 1
 503 418 l 1
 526.719041893 383.11905604 538 343.474546121 538 295 c 0
EndSplineSet
EndChar

StartChar: Oslash
Encoding: 216 216 180
Width: 761
GlyphClass: 1
Flags: W
HStem: -12 130<268.903 434> 550 130<331.44 490.396>
VStem: 30 169<232.183 402.32> 562 168<267.226 450.291>
DStem2: 4 43 55 -11 0.731548 0.68179<0.492286 99.3303 275.949 678.327 848.569 943.891>
AnchorPoint: "Anchor-1" 456 668 basechar 0
LayerCount: 2
Fore
SplineSet
241 163 m 1
 268.039366402 133.114384503 303.978013998 118 348 118 c 0
 468.493456354 118 562 232.479973996 562 380 c 0
 562 404.243151381 558.449012994 427.163158418 551 451 c 1
 241 163 l 1
413 550 m 0
 292.816758781 550 199 434.263437765 199 286 c 0
 199 265.333333331 201.333333333 246.999999998 206 231 c 1
 510 514 l 1
 484.418779009 537.023098892 449.453239913 550 413 550 c 0
730 394 m 0
 730 159.004213902 562.786519904 -12 333 -12 c 0
 249.399975011 -12 176.800015783 10.9263029141 124 54 c 1
 55 -11 l 1
 4 43 l 1
 75 109 l 1
 45.0000000002 154.333333333 30 207.666666667 30 269 c 0
 30 501.91290859 201.154260601 680 425 680 c 0
 506.333333334 680 573.333333333 660.666666667 626 622 c 1
 695 686 l 1
 746 633 l 1
 678 569 l 1
 712.666666667 523 730 464.666666667 730 394 c 0
EndSplineSet
EndChar

StartChar: Thorn
Encoding: 222 222 181
Width: 623
GlyphClass: 1
Flags: W
HStem: 0 21G<-23 143.219> 128 141<196 397.195> 426 137<259 425.188> 648 20G<114.749 280>
VStem: 444 168<310.149 410.822>
DStem2: -23 0 139 0 0.207912 0.978148<33.6817 164.498 308.654 469.293 609.328 682.926>
LayerCount: 2
Fore
SplineSet
444 372 m 0
 444 410.765151219 412.401795121 426 332 426 c 2
 230 426 l 1
 196 269 l 1
 294 269 l 2
 396.860258522 269 444 301.369289148 444 372 c 0
612 389 m 0
 612 209.358449762 500.716603199 128 255 128 c 2
 166 128 l 1
 139 0 l 1
 -23 0 l 1
 119 668 l 1
 280 668 l 1
 259 563 l 1
 347 563 l 2
 529.197259229 563 612 508.631407947 612 389 c 0
EndSplineSet
EndChar

StartChar: ae
Encoding: 230 230 182
Width: 886
GlyphClass: 1
Flags: W
HStem: -13 101.578<152.379 263.994> -12 118<498.961 656.389> 209 90<170.186 332 487 715.761> 398 112<545.183 689.058> 407 103<212.151 343.11>
VStem: -18 161.427<95.9564 184.27> 716 134<299.125 369.376>
AnchorPoint: "Anchor-1" 451 496 basechar 0
LayerCount: 2
Fore
SplineSet
313.315778927 209.111814993 m 0xa6
 184.688049023 209.111814993 143.42651996 191.301588785 143.42651996 135.780404326 c 0
 143.42651996 106.15740122 163.114708142 88.5784946055 196.292156117 88.5784946055 c 0
 248.334033177 88.5784946055 303.936208691 128.510747812 321.5 178.5 c 0
 325.833333326 190.833333315 329.333333329 200.999999988 332 209 c 1
 325.511196275 209.074583951 319.289910557 209.111814993 313.315778927 209.111814993 c 0xa6
716 313 m 2
 716 365.027570637 679.536372234 398 622 398 c 0x36
 557.800824148 398 503.588377653 358.244205904 487 299 c 1
 715 299 l 1
 715.666666667 301.666666665 716 303.999999998 716 306 c 2
 716 313 l 2
372 78 m 1
 318.88243319 18.7059719332 246.760057474 -13 165 -13 c 0
 52.8046021675 -13 -18 37.6852616609 -18 118 c 0
 -18 237.912564776 104.51237009 299 345 299 c 1
 352.245156131 335.225780654 354 345.754843871 354 353 c 0
 354 389.359694771 330.479593028 407 282 407 c 0
 236.126745509 407 198.192063616 384.84013632 181 348 c 1
 63 394 l 1
 114.247600175 472.22002132 192.413073307 510 303 510 c 0xae
 365.46404096 510 416.625502427 488.65205205 442 452 c 1
 491.934557952 491.947646362 549.515341108 510 627 510 c 0
 698.333333333 510 753.333333333 490.666666667 792 452 c 0
 830.666666667 413.333333333 850 361.666666667 850 297 c 0
 850 271.602384107 846.469887027 243.361480325 839 209 c 1
 473 209 l 1
 471.596293654 200.577761922 471 194.316678551 471 188 c 0
 471 136.664926312 509.144176632 106 573 106 c 0
 614.075215487 106 655.650250397 120.650250397 678 143 c 1
 791 98 l 1
 734.377804687 26.5481821054 649.571804055 -12 549 -12 c 0x76
 470.249751095 -12 408.684898558 19.3041623069 372 78 c 1
EndSplineSet
EndChar

StartChar: eth
Encoding: 240 240 183
Width: 581
GlyphClass: 1
Flags: W
HStem: -12 113<177.37 306.268> 338 118<193.301 325.114> 604 122<233 313.693>
VStem: 2 139<137.672 281.777> 410.298 138.037<266.739 511.976>
DStem2: 252 530 289 483 0.769758 0.638336<0 82.9649 233.556 317.422>
LayerCount: 2
Fore
SplineSet
141 205 m 0
 141 144.205827179 180.882302012 101 237 101 c 0
 312.687675003 101 357 151.589904372 357 238 c 0
 357 300.159512479 320.67313198 338 261 338 c 0
 190.912258059 338 141 282.680580652 141 205 c 0
233 726 m 1
 310.561106404 723.498028825 373.90142826 705.921918572 424 673 c 1
 498 734 l 1
 535 686 l 1
 470 633 l 1
 519.449950011 579.154498877 548.335735488 487.31142173 548.335735488 383.929570409 c 0
 548.335735488 149.548184558 417.631538619 -12 228 -12 c 0
 88.7886193526 -12 2 69.7963536376 2 201 c 0
 2 349.623513848 110.462299606 456 262 456 c 0
 321.492028791 456 383.884631645 425.440357786 409 384 c 1
 409.86460045 393.078304727 410.298434685 402.163930084 410.298434685 411.192623713 c 0
 410.298434685 466.598045974 393.999773808 516.565463252 366 547 c 1
 289 483 l 1
 252 530 l 1
 315 584 l 1
 287.266366836 597.13698413 250.206081138 604 207 604 c 1
 233 726 l 1
EndSplineSet
EndChar

StartChar: thorn
Encoding: 254 254 184
Width: 589
GlyphClass: 1
Flags: W
HStem: -161 21G<-55 105.237> -12 119<209.689 328.478> 392 119<288.687 430.723> 648 20G<116.754 276>
VStem: -55 156<-161 -5> 121 155<513 668> 393 158<178.699 362.512>
DStem2: -55 -161 101 -161 0.207912 0.978148<32.4342 273.673 640.629 847.477>
LayerCount: 2
Fore
SplineSet
173 214 m 0
 173 151.096589283 209.266353803 107 261 107 c 0
 337.891007431 107 393 176.30373308 393 273 c 0
 393 353.771846639 365.051686198 392 306 392 c 0
 231.203367753 392 173 314.103763458 173 214 c 0
287 -12 m 0
 227.881277479 -12 169.355920269 25.4390152742 151 75 c 1
 101 -161 l 1
 -55 -161 l 1
 121 668 l 1
 276 668 l 1
 227 434 l 1
 260.785043271 483.470956218 314.055530589 511 376 511 c 0
 485.446071718 511 551 434.208255441 551 306 c 0
 551 123.722137192 438.325018181 -12 287 -12 c 0
EndSplineSet
EndChar

StartChar: multiply
Encoding: 215 215 185
Width: 618
GlyphClass: 1
Flags: W
DStem2: 58 112 149 22 0.706133 0.708079<0.531059 192.158 318.904 513.89> 284 337 194 248 0.706133 -0.708079<-195.692 -0.533004 126.746 317.667>
LayerCount: 2
Fore
SplineSet
149 22 m 1
 58 112 l 1
 194 248 l 1
 55 385 l 1
 146 476 l 1
 284 337 l 1
 421 476 l 1
 512 385 l 1
 373 248 l 1
 509 112 l 1
 418 22 l 1
 284 158 l 1
 149 22 l 1
EndSplineSet
EndChar

StartChar: divide
Encoding: 247 247 186
Width: 645
GlyphClass: 1
Flags: W
HStem: -12 159<242.93 349.07> 186 128<40 552> 351 159<242.93 349.07>
VStem: 217 158<12.8519 122.312 375.852 485.562>
LayerCount: 2
Fore
SplineSet
375 68 m 0
 375 23.9392634053 339.509977387 -12 296 -12 c 0
 252.490022612 -12 217 23.9392634046 217 68 c 0
 217 111.130025197 252.869974803 147 296 147 c 0
 339.130025197 147 375 111.130025197 375 68 c 0
40 186 m 1
 40 314 l 1
 552 314 l 1
 552 186 l 1
 40 186 l 1
375 431 m 0
 375 386.939263405 339.509977388 351 296 351 c 0
 252.490022612 351 217 386.939263405 217 431 c 0
 217 474.777507566 252.222492434 510 296 510 c 0
 339.777507566 510 375 474.777507566 375 431 c 0
EndSplineSet
EndChar

StartChar: OE
Encoding: 307 338 187
Width: 1095
GlyphClass: 1
Flags: W
HStem: -12 131<271.04 434.132> 0 140<681 1008> 275 138<739 928> 529 139<764 1120> 550 130<331.405 492.035>
VStem: 31 169<192.879 402.771>
LayerCount: 2
Fore
SplineSet
200 286 m 0xac
 200 185.033449506 258.520661838 119 348 119 c 0
 469.594904971 119 563 232.389440942 563 380 c 0
 563 483.370347182 504.209129867 550 413 550 c 0
 293.828184368 550 200 433.705912333 200 286 c 0xac
528 59 m 1
 482.879183666 13.8791836648 409.980074751 -12 328 -12 c 0
 147.691624023 -12 31 98.4052065672 31 269 c 0
 31 504.875301652 198.881097687 680 425 680 c 0xac
 519.301391991 680 599.32188431 649.024325554 642 596 c 1
 657 668 l 1
 1150 668 l 1
 1120 529 l 1
 764 529 l 1
 739 413 l 1
 957 413 l 1
 928 275 l 1
 710 275 l 1
 681 140 l 1
 1037 140 l 1
 1008 0 l 1
 515 0 l 1x74
 528 59 l 1
EndSplineSet
EndChar

StartChar: oe
Encoding: 308 339 188
Width: 937
GlyphClass: 1
Flags: W
HStem: -12 119<179.68 305.271 547.08 703.14> 210 90<540 767.999> 392 119<232.06 358.727 590.434 748.512>
VStem: -1 156<131.328 301.129> 768 134<300.07 374.398>
LayerCount: 2
Fore
SplineSet
155 198 m 0
 155 138.737806342 183.598902418 107 237 107 c 0
 320.549672096 107 382 189.640096147 382 302 c 0
 382 360.668105713 352.756898665 392 298 392 c 0
 216.256658055 392 155 308.8965618 155 198 c 0
768 321 m 0
 768 367.967813771 732.897444668 398 678 398 c 0
 612.962797442 398 556.231695715 357.712695875 540 300 c 1
 766 300 l 1
 767.277107896 306.385539481 768 313.975906576 768 321 c 0
-1 181 m 0
 -1 372.164450487 131.524842716 511 314 511 c 0
 389.62241085 511 451.754144066 480.117955088 483 427 c 1
 522.1448757 475.4650842 611.405199912 511 694 511 c 0
 826.989480322 511 902 437.431990316 902 307 c 0
 902 277.666666667 898 245.333333333 890 210 c 1
 522 210 l 1
 520.666666667 201.999999996 520 194.666666663 520 188 c 0
 520 137.753657086 558.336732336 106 619 106 c 0
 659.749183839 106 700.496719373 120.496719373 723 143 c 1
 834 99 l 1
 765.041838102 24.4126003959 684.34364263 -12 588 -12 c 0
 514.434376111 -12 446.573573318 14.3687690853 413 56 c 1
 360.825702166 14.260561732 286.292049015 -12 220 -12 c 0
 79.4442905978 -12 -1 58.25225378 -1 181 c 0
EndSplineSet
EndChar

StartChar: Aring
Encoding: 197 197 192
Width: 698
GlyphClass: 2
Flags: W
HStem: 0 21G<-65 132.092 455.311 623> 119 128<255 427> 794 85<392.587 471.723>
VStem: 300 85<707.823 786.413> 479 86<707.233 786.574>
DStem2: -65 0 121 0 0.508034 0.861337<94.4943 230.524 375.321 522.352> 327.8 665.966 395 501 0.508034 0.861337<-397.856 -107.951> 515.991 643.983 395 501 0.16392 -0.986474<121.217 377.026> 623 0 427 247 0.16392 -0.986474<-531.597 -275.787 -147.06 -109.6>
AnchorPoint: "Anchor-2" 577 10 basechar 0
AnchorPoint: "Anchor-1" 461 879 basechar 0
AnchorPoint: "Anchor-0" 296 0 basechar 0
LayerCount: 2
Fore
SplineSet
565 747 m 0
 565 707.134252692 547.209469978 669.73882083 515.990788875 643.983360643 c 1
 623 0 l 1
 458 0 l 1
 442 119 l 1
 187 119 l 1
 121 0 l 1
 -65 0 l 1
 327.800209866 665.965838047 l 1
 309.341378112 689.998701162 300 717.227659162 300 747 c 0
 300 819.638213498 359.361786502 879 432 879 c 0
 505.631679565 879 565 820.078057914 565 747 c 0
255 247 m 1
 427 247 l 1
 395 501 l 1
 255 247 l 1
385 747 m 0
 385 721.389407887 406.389407887 700 432 700 c 0
 458.259482008 700 479 720.740517992 479 747 c 0
 479 773.898087459 458.898087459 794 432 794 c 0
 405.740517992 794 385 773.259482008 385 747 c 0
EndSplineSet
EndChar

StartChar: Ccedilla
Encoding: 199 199 203
Width: 673
GlyphClass: 2
Flags: W
HStem: -195 54<183.938 300.344> -12 132<317.189 418.285> 550 130<323.593 482.269>
VStem: 32 168<184.639 405.118> 304 91<-135.675 -86.8808>
AnchorPoint: "Anchor-1" 428 668 basechar 0
AnchorPoint: "Anchor-0" 270 -195 basechar 0
LayerCount: 2
Fore
SplineSet
395 -103 m 0
 395 -161.147876886 346.061604629 -195 262 -195 c 0
 226.819412172 -195 187.901154678 -188.108225235 166 -178 c 1
 192 -128 l 1
 211.333333331 -136.666666667 231.333333331 -141 252 -141 c 0
 283.609085898 -141 304 -128.451745168 304 -109 c 0
 304 -94.2948508386 287.940032692 -84 265 -84 c 0
 248.403541953 -84 252.596458047 -89 236 -89 c 0
 224.850408646 -89 217 -81.5627707565 217 -71 c 0
 217 -66.3333333333 219 -61.6666666667 223 -57 c 2
 263.840249994 -7.87332247132 l 1
 115.555587935 13.9830463803 32 112.327017677 32 265 c 0
 32 510.426266228 189.315391572 680 417 680 c 0
 547.01775451 680 638.514864933 624.165149151 671 525 c 1
 525 476 l 1
 503.521612197 526.116238209 463.500173521 550 401 550 c 0
 287.766153463 550 200 433.415109579 200 283 c 0
 200 228.999999999 212.833333333 188.5 238.5 161.5 c 0
 264.166666667 134.5 297.333333333 120.666666667 338 120 c 0
 395.963310712 120 441.830611856 143.902678061 480 194 c 1
 616 141 l 1
 550.62039619 40.0880028146 450.529724115 -12 322 -12 c 0
 320.391606051 -12 318.787828874 -11.9911992789 317.188668469 -11.9735978367 c 1
 288 -47 l 1
 298 -45 307.333333333 -44 316 -44 c 0
 362.862591624 -44 395 -68.0013556224 395 -103 c 0
EndSplineSet
EndChar

StartChar: ccedilla
Encoding: 231 231 204
Width: 531
GlyphClass: 2
Flags: W
HStem: -195 54<84.9384 201.344> -12 117<218.192 312.416> 392 118<233.76 361.16>
VStem: 2 154<128.8 301.363> 205 91<-135.675 -86.8808>
AnchorPoint: "Anchor-1" 318 496 basechar 0
AnchorPoint: "Anchor-0" 212 0 basechar 0
LayerCount: 2
Fore
SplineSet
296 -103 m 0
 296 -161.147876886 247.061604629 -195 163 -195 c 0
 127.819412172 -195 88.9011546771 -188.108225235 67 -178 c 1
 93 -128 l 1
 112.333333331 -136.666666667 132.333333331 -141 153 -141 c 0
 184.609085898 -141 205 -128.451745168 205 -109 c 0
 205 -94.2948508386 188.940032692 -84 166 -84 c 0
 149.403541953 -84 153.596458047 -89 137 -89 c 0
 125.850408646 -89 118 -81.5627707565 118 -71 c 0
 118 -66.3333333333 120 -61.6666666667 124 -57 c 2
 165.512203483 -7.06503059342 l 1
 64.1640118875 11.6482656099 2 88.0890980721 2 194 c 0
 2 376.372721 134.781536728 510 316 510 c 0
 359.333333333 510 398.166666667 500.833333333 432.5 482.5 c 0
 466.833333333 464.166666667 493 430.666666667 511 382 c 1
 378 336 l 1
 369.635506089 374.237686444 344.577956607 392 299 392 c 0
 217.067110168 392 156 309.153710681 156 198 c 0
 156 164.666666667 164 140.833333333 180 126.5 c 0
 196 112.166666667 214.666666667 105 236 105 c 0
 283.3624897 105 313.170215907 118.91027223 341 154 c 1
 464 107 l 1
 408.149106017 29.0414604817 325.031526386 -12 223 -12 c 0
 221.389050713 -12 219.786398874 -11.9898488734 218.192044483 -11.9695466201 c 1
 189 -47 l 1
 199 -45 208.333333333 -44 217 -44 c 0
 263.862591624 -44 296 -68.0013556224 296 -103 c 0
EndSplineSet
EndChar

StartChar: Eth
Encoding: 208 208 249
Width: 738
GlyphClass: 1
Flags: W
HStem: 0 133<214 395.802> 275 137<36 82 273 359> 537 131<300 479.203>
VStem: 538 168<282.053 484.407>
DStem2: 24 0 185.73 0 0.207912 0.978148<169.597 281.049 454.767 582.649>
LayerCount: 2
Fore
SplineSet
538 402 m 0
 538 498.977843423 487.30379123 537 358 537 c 2
 300 537 l 1
 273 412 l 1
 389 412 l 1
 359 275 l 1
 244 275 l 1
 214 133 l 1
 277 133 l 2
 362.333333333 133 427.166666667 157.166666667 471.5 205.5 c 0
 515.833333333 253.833333333 538 319.333333333 538 402 c 0
706 393 m 0
 706 147.569234859 533.648145546 0 247 0 c 2
 24 0 l 1
 82 275 l 1
 6 275 l 1
 36 412 l 1
 112 412 l 1
 166 668 l 1
 360 668 l 2
 477.333333332 668 564.333333333 643.333333333 621 594 c 0
 677.666666667 544.666666667 706 477.666666667 706 393 c 0
EndSplineSet
EndChar

StartChar: one.tf
Encoding: 317 -1 251
Width: 640
GlyphClass: 1
Flags: W
HStem: 0 124<51 207 360 474> 447 123<147 271.354> 647 20G<333.752 475>
DStem2: 180.643 0 333.643 0 0.207912 0.978148<158.581 456.642>
LayerCount: 2
Fore
SplineSet
147 570 m 1
 261.562420524 570 310.503954849 592.60632776 357 667 c 1
 475 667 l 1
 360 124 l 1
 501 124 l 1
 474 0 l 1
 25 0 l 1
 51 124 l 1
 207 124 l 1
 274 447 l 1
 120 447 l 1
 147 570 l 1
EndSplineSet
Substitution2: "'pnum' Proportional Numbers lookup 13 subtable" one
Substitution2: "'aalt' Access All Alternates lookup 0 subtable" one
EndChar

StartChar: Aogonek
Encoding: 328 260 262
Width: 698
GlyphClass: 2
Flags: W
HStem: -173 76<473.648 594.835> 0 21G<-65 132.092> 119 128<255 427> 648 20G<317.204 515.323>
VStem: 388 128<-120.241 -44.6637>
DStem2: -65 0 121 0 0.508034 0.861337<94.4943 230.524 375.321 578.832> 512 668 395 501 0.16392 -0.986474<145.562 401.372> 623 0 442 119 0.16392 -0.986474<-480.395 -275.787 -147.06 -27.0468>
AnchorPoint: "Anchor-2" 577 10 basechar 0
AnchorPoint: "Anchor-1" 427 668 basechar 0
AnchorPoint: "Anchor-0" 296 0 basechar 0
LayerCount: 2
Fore
SplineSet
255 247 m 1
 427 247 l 1
 395 501 l 1
 255 247 l 1
516 -75 m 0
 516 -89.841606932 529.991404633 -97 559 -97 c 0
 572.255888843 -97 588.5866411 -94.1181025429 610 -88 c 1
 594 -164 l 1
 573.21922477 -168.795563516 535.379296411 -173 513 -173 c 0
 434.296621296 -173 388 -144.481281282 388 -96 c 0
 388 -55.556786193 427.921609443 -13.4416817256 479 0 c 1
 458 0 l 1
 442 119 l 1
 187 119 l 1
 121 0 l 1
 -65 0 l 1
 329 668 l 1
 512 668 l 1
 623 0 l 1
 536.493612551 -40.0883258911 516 -54.4530075855 516 -75 c 0
EndSplineSet
EndChar

StartChar: aogonek
Encoding: 329 261 263
Width: 545
GlyphClass: 2
Flags: W
HStem: -173 76<296.648 417.835> -12 103<87.5372 233.491> 407 103<201.36 333.615>
VStem: -18 161<103.027 181.758> 211 128<-120.241 -44.6637> 344 150<314.828 396.155>
AnchorPoint: "Anchor-2" 446 0 basechar 0
AnchorPoint: "Anchor-1" 298 496 basechar 0
AnchorPoint: "Anchor-0" 219 0 basechar 0
LayerCount: 2
Fore
SplineSet
143 138 m 0
 143 110.10138548 169.416809707 91 208 91 c 0
 268.135584432 91 304.209667926 128.615710994 325 213 c 2
 328 225 l 1
 271.999999998 220.333333333 227.166666665 211.5 193.5 198.5 c 0
 159.833333333 185.5 143 165.333333333 143 138 c 0
339 -75 m 0
 339 -89.841606932 352.991404633 -97 382 -97 c 0
 395.255888843 -97 411.5866411 -94.1181025429 433 -88 c 1
 417 -164 l 1
 396.21922477 -168.795563516 358.379296411 -173 336 -173 c 0
 257.296621296 -173 211 -144.481281282 211 -96 c 0
 211 -55.556786193 250.921609443 -13.4416817256 302 0 c 1
 297 0 l 1
 292 59 l 1
 249.363948413 7.58593779143 204.674907255 -12 130 -12 c 0
 45.0744592565 -12 -18 43.4032412388 -18 118 c 0
 -18 232.540534346 86.2681667998 290.239491817 338 315 c 1
 342.230596139 330.864735521 344 342.36586062 344 354 c 0
 344 390.037068898 320.956018126 407 272 407 c 0
 225.155529401 407 187.320292173 385.114911799 170 348 c 1
 53 394 l 1
 103.592195571 472.551040493 181.072801448 510 293 510 c 0
 418.271389279 510 494 450.848796601 494 353 c 0
 494 255.818564737 441 97.1814352627 441 0 c 1
 446 0 l 1
 359.493612551 -40.0883258911 339 -54.4530075855 339 -75 c 0
EndSplineSet
EndChar

StartChar: Eogonek
Encoding: 334 280 268
Width: 582
GlyphClass: 2
Flags: W
HStem: -173 76<313.648 434.835> 0 139<168 319 418.075 495> 274 139<226 414> 529 139<251 607>
VStem: 228 128<-120.241 -44.6637>
DStem2: -59.7723 -173 101.682 -173 0.207912 0.978148<352.539 490.618 632.61 751.273>
AnchorPoint: "Anchor-2" 463 -12 basechar 0
AnchorPoint: "Anchor-1" 384 668 basechar 0
AnchorPoint: "Anchor-0" 238 0 basechar 0
LayerCount: 2
Fore
SplineSet
356 -75 m 0
 356 -89.841606932 369.991404633 -97 399 -97 c 0
 412.255888843 -97 428.5866411 -94.1181025429 450 -88 c 1
 434 -164 l 1
 413.21922477 -168.795563516 375.379296411 -173 353 -173 c 0
 274.296621296 -173 228 -144.481281282 228 -96 c 0
 228 -55.556786193 267.921609443 -13.4416817256 319 0 c 1
 -23 0 l 1
 119 668 l 1
 637 668 l 1
 607 529 l 1
 251 529 l 1
 226 413 l 1
 443 413 l 1
 414 274 l 1
 197 274 l 1
 168 139 l 1
 524 139 l 1
 495 0 l 1
 463 0 l 1
 376.493612551 -40.0883258911 356 -54.4530075855 356 -75 c 0
EndSplineSet
EndChar

StartChar: eogonek
Encoding: 335 281 269
Width: 567
GlyphClass: 2
Flags: W
HStem: -171 76<178.648 299.835> 209 90<168 395.764> 399 111<227.959 369.129>
VStem: 3 149<134.036 206.489> 93 128<-118.241 -42.746> 396 134<299.125 370.293>
AnchorPoint: "Anchor-2" 333 2 basechar 0
AnchorPoint: "Anchor-1" 321 496 basechar 0
AnchorPoint: "Anchor-0" 230 0 basechar 0
LayerCount: 2
Fore
SplineSet
396 313 m 2xe4
 396 365.974683346 359.902560866 399 302 399 c 0
 239.237320325 399 184.578821046 358.210075165 168 299 c 1
 395 299 l 1
 395.666666667 301.666666665 396 303.999999998 396 306 c 2
 396 313 l 2xe4
221 -73 m 0xec
 221 -87.841606932 234.991404633 -95 264 -95 c 0
 277.255888843 -95 293.5866411 -92.1181025429 315 -86 c 1
 299 -162 l 1
 278.21922477 -166.795563516 240.379296411 -171 218 -171 c 0
 139.296621296 -171 93 -142.481281282 93 -94 c 0xec
 93 -60.3473139014 121.76309454 -23.6441577744 162.274320145 -5.60248128612 c 1
 60.2052948062 15.632220378 3 88.0401852347 3 196 c 0
 3 375.283716997 133.425955518 510 307 510 c 0
 378.333333333 510 433.333333333 490.833333333 472 452.5 c 0
 510.666666667 414.166666667 530 362.666666667 530 298 c 0
 530 267.600945694 526.430879942 238.723519772 519 209 c 1
 154 209 l 1
 152.596293654 200.577761922 152 194.316678551 152 188 c 0xf4
 152 136.664926312 190.144176632 106 254 106 c 0
 295.635589467 106 335.957629106 119.957629106 358 142 c 1
 472 98 l 1
 434.327270376 51.5661704639 384.594343415 18.4930303977 326.817404023 1.45140281614 c 1
 241.178358712 -38.3168847279 221 -52.5140494238 221 -73 c 0xec
EndSplineSet
EndChar

StartChar: Iogonek
Encoding: 342 302 276
Width: 459
GlyphClass: 2
Flags: W
HStem: -173 76<92.6483 213.835> 0 124<13 98 267 331> 544 124<129 195 355 447>
VStem: 7 128<-120.241 -44.6637>
DStem2: 41.8707 -173 203.871 -173 0.207912 0.978148<337.317 733.169>
AnchorPoint: "Anchor-2" 242 0 basechar 0
AnchorPoint: "Anchor-1" 301 668 basechar 0
AnchorPoint: "Anchor-0" 151 0 basechar 0
LayerCount: 2
Fore
SplineSet
135 -75 m 0
 135 -89.841606932 148.991404633 -97 178 -97 c 0
 191.255888843 -97 207.5866411 -94.1181025429 229 -88 c 1
 213 -164 l 1
 192.21922477 -168.795563516 154.379296411 -173 132 -173 c 0
 53.2966212957 -173 7 -144.481281282 7 -96 c 0
 7 -55.556786193 46.921609443 -13.4416817256 98 0 c 1
 -13 0 l 1
 13 124 l 1
 105 124 l 1
 195 544 l 1
 103 544 l 1
 129 668 l 1
 474 668 l 1
 447 544 l 1
 355 544 l 1
 267 124 l 1
 358 124 l 1
 331 0 l 1
 242 0 l 1
 155.493612551 -40.0883258911 135 -54.4530075855 135 -75 c 0
EndSplineSet
EndChar

StartChar: iogonek
Encoding: 343 303 277
Width: 338
GlyphClass: 2
Flags: W
HStem: -173 76<54.6483 175.835> 380 116<51 129> 578 179<207.595 325.215>
VStem: -31 128<-120.241 -44.6637> 177 179<608.939 726.512>
DStem2: 11.2277 -173 167.228 -173 0.207912 0.978148<194.204 565.402>
AnchorPoint: "Anchor-2" 204 0 basechar 0
AnchorPoint: "Anchor-1" 247 719 basechar 0
AnchorPoint: "Anchor-0" 110 0 basechar 0
LayerCount: 2
Fore
SplineSet
356 668 m 0
 356 617.516193754 316.483806246 578 266 578 c 0
 216.45081203 578 177 617.894079581 177 668 c 0
 177 717.813503918 216.186496082 757 266 757 c 0
 316.749785387 757 356 718.185898883 356 668 c 0
97 -75 m 0
 97 -89.841606932 110.991404633 -97 140 -97 c 0
 153.255888843 -97 169.5866411 -94.1181025429 191 -88 c 1
 175 -164 l 1
 154.21922477 -168.795563516 116.379296411 -173 94 -173 c 0
 15.2966212957 -173 -31 -144.481281282 -31 -96 c 0
 -31 -55.556786193 8.92160944305 -13.4416817256 60 0 c 1
 48 0 l 1
 129 380 l 1
 26 380 l 1
 51 496 l 1
 309 496 l 1
 204 0 l 1
 117.493612551 -40.0883258911 97 -54.4530075855 97 -75 c 0
EndSplineSet
EndChar

StartChar: uni0326
Encoding: 348 806 282
Width: 0
GlyphClass: 4
Flags: W
HStem: -246.271 45.2705<-38 7.80232>
VStem: 30 120<-178.164 -89.5899>
AnchorPoint: "Anchor-3" 38 -251 basemark 0
AnchorPoint: "Anchor-3" 91 0 mark 0
AnchorPoint: "Anchor-0" 91 0 mark 0
LayerCount: 2
Fore
SplineSet
86 -40 m 1
 126.929953586 -56.6277936443 150 -86.5467600871 150 -123 c 0
 150 -195.686660069 78.2508029954 -246.270528964 -24.8494462903 -246.270528964 c 0
 -29.1972003313 -246.270528964 -33.582012645 -246.180326015 -38 -246 c 1
 -81 -201 l 1
 -9.85797742643 -201 30 -176.941581193 30 -134 c 0
 30 -105.580841772 12.9116732594 -85.0748496835 -15 -80 c 1
 86 -40 l 1
EndSplineSet
EndChar

StartChar: Uogonek
Encoding: 357 370 291
Width: 679
GlyphClass: 2
Flags: W
HStem: -173 76<226.648 347.835> 648 20G<115.691 281 535.733 701>
VStem: 26 162<141.838 333.414> 120 161<507 668> 141 128<-120.241 -44.3901> 540 161<507 668>
DStem2: -59.8388 -173 101.924 -173 0.207912 0.978148<421.105 860.013> 360.924 -173 522.161 -173 0.207912 0.978148<344.782 859.854>
AnchorPoint: "Anchor-2" 376 0 basechar 0
AnchorPoint: "Anchor-1" 414 668 basechar 0
AnchorPoint: "Anchor-0" 287 0 basechar 0
LayerCount: 2
Fore
SplineSet
269 -75 m 0xcc
 269 -89.841606932 282.991404633 -97 312 -97 c 0
 325.255888843 -97 341.5866411 -94.1181025429 363 -88 c 1
 347 -164 l 1
 326.21922477 -168.795563516 288.379296411 -173 266 -173 c 0
 187.296621296 -173 141 -144.481281282 141 -96 c 0xcc
 141 -63.1719993938 168.404198114 -27.3106657149 207.621734727 -8.81831165528 c 1
 88.3890614766 5.28714297355 26 72.5528846122 26 187 c 0xe4
 26 217.356927849 30.0983444654 250.458940839 39 292 c 2
 120 668 l 1
 281 668 l 1xd4
 198 279 l 2
 190.090196008 237.473529042 188 221.797058984 188 204 c 0xe4
 188 143.843556453 220.705942345 117 294 117 c 0
 388.119675204 117 433.052477802 161.657141232 457 279 c 1
 540 668 l 1
 701 668 l 1
 621 292 l 2
 579.690478974 97.8452511811 508.650368856 15.5191646463 364.303897211 -5.47681325682 c 1
 286.565021332 -42.2663880411 269 -55.0798856414 269 -75 c 0xcc
EndSplineSet
EndChar

StartChar: uogonek
Encoding: 358 371 292
Width: 578
GlyphClass: 2
Flags: W
HStem: -173 76<306.648 427.835> -12 118<111.822 255.061> 476 20G<81.7246 241 401.725 561>
VStem: 17 162<115.702 275.922> 86 155<341 496> 221 128<-120.241 -45.3307> 406 155<341 496>
DStem2: -56.5347 -173 99.2769 -173 0.207912 0.978148<390.144 684.015> 263.489 -173 419.228 -173 0.207912 0.978148<316.833 684.01>
AnchorPoint: "Anchor-2" 456 0 basechar 0
AnchorPoint: "Anchor-1" 322 496 basechar 0
AnchorPoint: "Anchor-0" 236 0 basechar 0
LayerCount: 2
Fore
SplineSet
349 -75 m 0xf6
 349 -89.841606932 362.991404633 -97 392 -97 c 0
 405.255888843 -97 421.5866411 -94.1181025429 443 -88 c 1
 427 -164 l 1
 406.21922477 -168.795563516 368.379296411 -173 346 -173 c 0
 267.296621296 -173 221 -144.481281282 221 -96 c 0
 221 -52.8711640285 263.951551029 -10.7286105394 320.846421678 1.96580252606 c 1
 316 64 l 1
 285.96053963 15.3646832101 229.430865104 -12 159 -12 c 0
 64.6441512665 -12 17 36.9862400345 17 134 c 0xf6
 17 157.98901949 19.8390986598 182.405267964 27 220 c 2
 86 496 l 1
 241 496 l 1xea
 186 235 l 2
 181.258029548 211.290147738 179 191.935608757 179 175 c 0
 179 129.483505112 196.697713998 106 231 106 c 0
 290.214062702 106 333.156888832 152.190602897 350 234 c 2
 406 496 l 1
 561 496 l 1
 456 0 l 1
 369.493612551 -40.0883258911 349 -54.4530075855 349 -75 c 0xf6
EndSplineSet
EndChar

StartChar: Hbar
Encoding: 367 294 301
Width: 740
GlyphClass: 1
Flags: W
HStem: 0 21G<3 168.307 440 605.234> 274 139<252 498> 496 98<71 108 290 546 727 760> 648 20G<140.676 305 577.676 743>
VStem: 3 161<0 161> 440 161<0 161>
DStem2: 3 0 164 0 0.207912 0.978148<33.4738 313.753 455.745 506.992 640.69 682.926> 440 0 601 0 0.207912 0.978148<33.4738 280.071 422.271 507.2 640.69 682.926>
LayerCount: 2
Fore
SplineSet
252 413 m 1
 528 413 l 1
 546 496 l 1
 269 496 l 1
 252 413 l 1
3 0 m 1
 108 496 l 1
 50 496 l 1
 71 594 l 1
 129 594 l 1
 145 668 l 1
 305 668 l 1
 290 594 l 1
 566 594 l 1
 582 668 l 1
 743 668 l 1
 727 594 l 1
 781 594 l 1
 760 496 l 1
 706 496 l 1
 601 0 l 1
 440 0 l 1
 498 274 l 1
 223 274 l 1
 164 0 l 1
 3 0 l 1
EndSplineSet
EndChar

StartChar: hbar
Encoding: 368 295 302
Width: 644
GlyphClass: 1
Flags: W
HStem: 0 21G<43 203.252 366 526.27> 392 118<356.772 503.348> 555 78<82 161 328 434>
VStem: 43 156<0 156> 366 156<0 156> 431 161<227.164 383.268>
DStem2: 43 0 199 0 0.207912 0.978148<32.4342 402.497 473.082 567.405 678.422 713.518> 366 0 522 0 0.207912 0.978148<32.4342 333.548>
LayerCount: 2
Fore
SplineSet
431 328 m 0xf4
 431 371.925958558 413.435213738 392 375 392 c 0
 311.666666667 392 271 346 253 254 c 1
 199 0 l 1
 43 0 l 1
 161 555 l 1
 65 555 l 1
 82 633 l 1
 177 633 l 1
 191 698 l 1
 342 698 l 1
 328 633 l 1
 451 633 l 1
 434 555 l 1
 312 555 l 1
 286 432 l 1
 321.701769495 481.302443587 385.719395339 510 460 510 c 0
 546.696953296 510 592 460.578494505 592 366 c 0xf4
 592 341.019837256 588.751395337 313.40669762 582 281 c 2
 522 0 l 1
 366 0 l 1xf8
 422 263 l 2
 428 289 431 310.666666667 431 328 c 0xf4
EndSplineSet
EndChar

StartChar: dcroat
Encoding: 384 273 318
Width: 638
GlyphClass: 1
Flags: W
HStem: -13 118<131.09 272.234> -1 21G<338.438 489.789> 392 118<223.645 348.211> 555 78<304 435 606 656>
VStem: 3 155<139.692 317.852> 379 110<-1 289>
LayerCount: 2
Fore
SplineSet
158 216 m 0xbc
 158 146.161403097 191.374110619 105 248 105 c 0
 321.085941664 105 379 186.3449369 379 289 c 0
 379 350.876433669 343.466044626 392 290 392 c 0
 211.376756004 392 158 320.830991994 158 216 c 0xbc
335 63 m 1
 296.178573261 12.9078364656 245.72647067 -13 187 -13 c 0xbc
 75.1801517536 -13 3 67.0258204225 3 191 c 0
 3 373.765963731 115.745409326 510 267 510 c 0
 331.326800871 510 384.572780248 475.907250615 406 421 c 1
 435 555 l 1
 287 555 l 1
 304 633 l 1
 451 633 l 1
 465 698 l 1
 620 698 l 1
 616 680.5 l 2
 613.33333333 668.833333318 609.999999994 652.999999974 606 633 c 1
 673 633 l 1
 656 555 l 1
 589 555 l 1
 507.693176492 180.988611862 490.578773272 85.8325299615 489 -1 c 1
 340 -1 l 1x7c
 335 63 l 1
EndSplineSet
EndChar

StartChar: Scedilla
Encoding: 389 350 323
Width: 642
GlyphClass: 2
Flags: W
HStem: -195 54<160.938 277.344> -12 126<294.277 394.166> 551 129<243.997 410.957>
VStem: 61 163<431.035 530.598> 281 91<-135.675 -86.8808> 424 164<141.133 241.771>
AnchorPoint: "Anchor-1" 370 668 basechar 0
AnchorPoint: "Anchor-0" 247 -195 basechar 0
LayerCount: 2
Fore
SplineSet
372 -103 m 0
 372 -161.147876886 323.061604629 -195 239 -195 c 0
 203.819412172 -195 164.901154678 -188.108225235 143 -178 c 1
 169 -128 l 1
 188.333333331 -136.666666667 208.333333331 -141 229 -141 c 0
 260.609085898 -141 281 -128.451745168 281 -109 c 0
 281 -94.2948508386 264.940032692 -84 242 -84 c 0
 225.403541953 -84 229.596458047 -89 213 -89 c 0
 201.850408646 -89 194 -81.5627707565 194 -71 c 0
 194 -66.3333333333 196 -61.6666666667 200 -57 c 2
 241.046030993 -7.62578880577 l 1
 128.782835895 8.23013568461 44.9341203259 67.9743385243 10 157 c 1
 165 209 l 1
 178.961902328 151.407152897 237.238308946 114 313 114 c 0
 378.249095206 114 424 140.791070375 424 179 c 0
 424 352.98051392 61 301.01948608 61 475 c 0
 61 599.472527591 170.988742802 680 341 680 c 0
 462.890443015 680 557.719492815 628.112406714 606 535 c 1
 451 483 l 1
 435.713149129 524.156906191 387.553480824 551 329 551 c 0
 263.821631964 551 224 528.624035373 224 492 c 0
 224 314.67799749 588 383.32200251 588 206 c 0
 588 76.6343280051 473.344584874 -12 306 -12 c 0
 302.061918979 -12 298.154186601 -11.9559455205 294.276802866 -11.8678365614 c 1
 265 -47 l 1
 275 -45 284.333333333 -44 293 -44 c 0
 339.862591624 -44 372 -68.0013556224 372 -103 c 0
EndSplineSet
Substitution2: "'locl' Localized Forms in Latin lookup 8 subtable" uni0218
Substitution2: "'aalt' Access All Alternates lookup 0 subtable" uni0218
EndChar

StartChar: scedilla
Encoding: 390 351 324
Width: 515
GlyphClass: 2
Flags: W
HStem: -195 54<87.9384 204.344> -13 109<220.426 295.284> 399 111<181.027 322.926>
VStem: 30 144<311.266 389.316> 208 91<-135.675 -86.8808> 306 148<110.088 191.79>
AnchorPoint: "Anchor-1" 274 496 basechar 0
AnchorPoint: "Anchor-0" 174 -195 basechar 0
LayerCount: 2
Fore
SplineSet
299 -103 m 0
 299 -161.147876886 250.061604629 -195 166 -195 c 0
 130.819412172 -195 91.9011546771 -188.108225235 70 -178 c 1
 96 -128 l 1
 115.333333331 -136.666666667 135.333333331 -141 156 -141 c 0
 187.609085898 -141 208 -128.451745168 208 -109 c 0
 208 -94.2948508386 191.940032692 -84 169 -84 c 0
 152.403541953 -84 156.596458047 -89 140 -89 c 0
 128.850408646 -89 121 -81.5627707565 121 -71 c 0
 121 -66.3333333333 123 -61.6666666667 127 -57 c 2
 167.723301744 -8.0139993509 l 1
 77.6322970261 5.60088435084 22.7850528138 43.8728838095 -10 116 c 1
 120 160 l 1
 129.285642548 120.536019168 169.156673696 96 224 96 c 0
 269.971711006 96 306 114.892883253 306 139 c 0
 306 267.71107634 30 228.28892366 30 357 c 0
 30 444.586917407 121.065271846 510 243 510 c 0
 291 510 335.166666667 502 375.5 486 c 0
 415.833333333 470 447.666666667 441.333333333 471 400 c 1
 339 355 l 1
 327.388955639 385.188715339 296.627457984 399 241 399 c 0
 201.296796795 399 174 383.925649531 174 362 c 0
 174 236.943241844 454 281.056758156 454 156 c 0
 454 52.0775591629 367.358279221 -13 229 -13 c 0
 226.177323065 -13 223.319471029 -12.9627557761 220.426443893 -12.8882673283 c 1
 192 -47 l 1
 202 -45 211.333333333 -44 220 -44 c 0
 266.862591624 -44 299 -68.0013556224 299 -103 c 0
EndSplineSet
Substitution2: "'locl' Localized Forms in Latin lookup 8 subtable" uni0219
Substitution2: "'aalt' Access All Alternates lookup 0 subtable" uni0219
EndChar

StartChar: uni0162
Encoding: 395 354 329
Width: 617
GlyphClass: 2
Flags: W
HStem: -195 54<125.938 242.344> 529 139<87 270 430 644>
VStem: 246 91<-135.675 -86.8808>
DStem2: 116.551 -195 277.551 -195 0.207912 0.978148<232.83 740.083>
AnchorPoint: "Anchor-1" 398 668 basechar 0
AnchorPoint: "Anchor-0" 200 -251 basechar 0
LayerCount: 2
Fore
SplineSet
337 -103 m 0
 337 -161.147876886 288.061604629 -195 204 -195 c 0
 168.819412172 -195 129.901154678 -188.108225235 108 -178 c 1
 134 -128 l 1
 153.333333331 -136.666666667 173.333333331 -141 194 -141 c 0
 225.609085898 -141 246 -128.451745168 246 -109 c 0
 246 -94.2948508386 229.940032692 -84 207 -84 c 0
 190.403541953 -84 194.596458047 -89 178 -89 c 0
 166.850408646 -89 159 -81.5627707565 159 -71 c 0
 159 -66.3333333333 161 -61.6666666667 165 -57 c 2
 212.385542169 0 l 1
 158 0 l 1
 270 529 l 1
 57 529 l 1
 87 668 l 1
 673 668 l 1
 644 529 l 1
 430 529 l 1
 319 0 l 1
 269.166666667 0 l 1
 230 -47 l 1
 240 -45 249.333333333 -44 258 -44 c 0
 304.862591624 -44 337 -68.0013556224 337 -103 c 0
EndSplineSet
Substitution2: "'locl' Localized Forms in Latin lookup 8 subtable" uni021A
Substitution2: "'aalt' Access All Alternates lookup 0 subtable" uni021A
EndChar

StartChar: acutecomb.case
Encoding: 398 -1 332
Width: 0
GlyphClass: 4
Flags: W
HStem: 731 153
VStem: 123 234
AnchorPoint: "Anchor-4" 263 884 basemark 0
AnchorPoint: "Anchor-4" 196 668 mark 0
AnchorPoint: "Anchor-1" 196 668 mark 0
LayerCount: 2
Fore
SplineSet
301 884 m 0
 332.711630841 884 357 859.711630841 357 828 c 0
 357 796.456166372 342.687173674 783.372219074 258 737.5 c 2
 246 731 l 1
 123 731 l 1
 174.469628671 781.039916763 216.026494422 823.439373925 257 863 c 0
 272.099485485 878.099485485 284.462468278 884 301 884 c 0
EndSplineSet
EndChar

StartChar: caron.alt
Encoding: 401 -1 335
Width: 205
GlyphClass: 1
Flags: W
HStem: 496 192<137.028 158>
LayerCount: 2
Fore
SplineSet
182 688 m 0
 212.321174056 688 236 664.321174056 236 634 c 0
 236 618.224014274 232.614222621 608.969556106 221 593 c 1
 158 496 l 1
 75 496 l 1
 79.4210526316 508 79.4210526316 508 128 650 c 0
 136.239252274 673.540720783 156.786649056 688 182 688 c 0
EndSplineSet
EndChar

StartChar: uni2074
Encoding: 411 8308 345
Width: 433
GlyphClass: 1
Flags: W
HStem: 477 86<206 266 388 426>
DStem2: 91 554 206 563 0.714902 0.699224<88.5068 225.693>
LayerCount: 2
Fore
SplineSet
206 563 m 1
 284 563 l 1
 304 659 l 1
 206 563 l 1
250 402 m 1
 266 477 l 1
 74 477 l 1
 91 554 l 1
 319 777 l 1
 433 777 l 1
 388 563 l 1
 445 563 l 1
 426 477 l 1
 369 477 l 1
 353 402 l 1
 250 402 l 1
EndSplineSet
EndChar

StartChar: gravecomb.case
Encoding: 414 -1 348
Width: 0
GlyphClass: 4
Flags: W
HStem: 731 153<142.081 187.144>
VStem: 88 187
AnchorPoint: "Anchor-4" 203 884 basemark 0
AnchorPoint: "Anchor-4" 198 668 mark 0
AnchorPoint: "Anchor-1" 198 668 mark 0
LayerCount: 2
Fore
SplineSet
88 830 m 0
 88 860.038471026 112.405260992 884 143 884 c 0
 173.691331539 884 181.565487663 876.167286803 238 789.5 c 0
 242.472822649 782.63102236 274.584686865 731.553750847 275 731 c 1
 167 731 l 1
 139.752357879 752.798113698 113.228210118 777.714737353 101 793 c 0
 92.3333333332 803.666666667 88 816 88 830 c 0
EndSplineSet
EndChar

StartChar: uni030B
Encoding: 415 779 349
Width: 0
GlyphClass: 4
Flags: W
HStem: 572 154
AnchorPoint: "Anchor-4" 313 726 basemark 0
AnchorPoint: "Anchor-4" 224 496 mark 0
AnchorPoint: "Anchor-1" 224 496 mark 0
LayerCount: 2
Fore
SplineSet
454 726 m 0
 485.378277934 726 510 700.498930717 510 668 c 0
 510 643.880875666 503.734825105 635.160429528 473 616.5 c 0
 413.181818182 580.181818182 413.181818182 580.181818182 412 579.5 c 2
 399 572 l 1
 277 572 l 1
 403.5 698.5 l 2
 413.16666667 708.16666667 418.333333333 713 419 713 c 0
 428.333333333 721.666666667 439.999999999 726 454 726 c 0
247 726 m 0
 278.378277934 726 303 700.498930717 303 668 c 0
 303 643.880875666 296.734825105 635.160429528 266 616.5 c 0
 206.181818182 580.181818182 206.181818182 580.181818182 205 579.5 c 2
 192 572 l 1
 69 572 l 1
 83.5 586 l 2
 93.1666666501 595.333333317 104.999999976 606.999999976 119 621 c 2
 196.5 698.5 l 2
 206.16666667 708.16666667 211.333333333 713 212 713 c 0
 221.333333333 721.666666667 232.999999999 726 247 726 c 0
EndSplineSet
Substitution2: "'case' Case-Sensitive Forms lookup 15 subtable" uni030B.case
Substitution2: "Single Substitution lookup 7 subtable" uni030B.case
Substitution2: "Single Substitution lookup 6 subtable" uni030B.case
Substitution2: "Single Substitution lookup 4 subtable" uni030B.case
Substitution2: "Single Substitution lookup 3 subtable" uni030B.case
Substitution2: "'aalt' Access All Alternates lookup 0 subtable" uni030B.case
EndChar

StartChar: dotlessi
Encoding: 417 305 351
Width: 326
GlyphClass: 2
Flags: W
HStem: 0 21G<48 208.234> 380 116<51 129>
VStem: 48 156<0 156>
DStem2: 48 0 204 0 0.207912 0.978148<32.4342 388.537>
AnchorPoint: "Anchor-2" 211 0 basechar 0
AnchorPoint: "Anchor-1" 202 496 basechar 0
AnchorPoint: "Anchor-0" 110 0 basechar 0
LayerCount: 2
Fore
SplineSet
48 0 m 1
 129 380 l 1
 26 380 l 1
 51 496 l 1
 309 496 l 1
 204 0 l 1
 48 0 l 1
EndSplineSet
EndChar

StartChar: uni00B5
Encoding: 181 181 356
Width: 599
GlyphClass: 2
Flags: W
HStem: -161 21G<-53 107.242> -12 118<162.333 257.417> 0 124<423.423 529.128> 476 20G<81.7686 241 401.725 561>
VStem: 86 155<341 496> 406 155<341 496>
DStem2: -53 -161 103 -161 0.207912 0.978148<32.4342 187.304 364.772 671.543> 266.04 -161 421.132 -161 0.207912 0.978148<351.681 671.742>
AnchorPoint: "Anchor-2" 469 10 basechar 0
LayerCount: 2
Fore
SplineSet
466 0 m 0xbc
 380.846811162 0 336.339004378 22.8897292032 326 72 c 1
 310 51.3333333336 289.5 32.166666667 264.5 14.5 c 0
 239.5 -3.16666666657 208.333333333 -12 171 -12 c 0
 153.666666667 -12 138 -9.66666666662 124 -5 c 1
 124 -50.8900879276 122.300835239 -72.7364920009 117 -95 c 2
 103 -161 l 1
 -53 -161 l 1
 86 496 l 1
 241 496 l 1
 186 235 l 2
 180 208.333333333 177 184 177 162 c 0
 177 127.862176431 198.081384415 106 231 106 c 0xdc
 290.214062702 106 333.156888832 152.190602896 350 234 c 2
 406 496 l 1
 561 496 l 1
 490 163 l 2
 489 158.666666667 488.5 154.694444444 488.5 151.083333333 c 0
 488.5 133.027777778 501 124 526 124 c 0
 537.881830582 124 545.088627064 125.544313532 554 130 c 1
 528 6 l 1
 506.684423906 1.51251029594 491.055150848 0 466 0 c 0xbc
EndSplineSet
EndChar

StartChar: uni0328.case
Encoding: 423 -1 358
Width: 0
GlyphClass: 4
Flags: W
HStem: -174 76<33.1927 153.576> -20 20G<17.3802 188>
VStem: -52 130.22<-122.472 -46.1811>
AnchorPoint: "Anchor-2" 188 0 mark 0
LayerCount: 2
Fore
SplineSet
188 0 m 1
 135.60248896 -5.23975110395 78.219808639 -44.2583630328 78.219808639 -74.6474486763 c 0
 78.219808639 -89.8845043338 92.044249751 -98 118 -98 c 0
 140.592479499 -98 153.611765276 -91.5647057873 169 -89 c 1
 153 -164 l 1
 137.347115653 -169.217628116 98.6099033925 -174 72 -174 c 0
 -5.61468503564 -174 -52 -145.944365949 -52 -99 c 0
 -52 -55.771113396 -12.2395853462 -16.0106987422 47 0 c 1
 188 0 l 1
EndSplineSet
EndChar

StartChar: uni0163
Encoding: 427 355 363
Width: 391
GlyphClass: 2
Flags: W
HStem: -195 54<15.9384 132.344> 0 124<219.409 289> 380 116<53 106 286 370>
VStem: 50 167<75.0673 218.477> 136 91<-135.675 -86.8808>
DStem2: -16.332 -195 138.977 -195 0.207912 0.978148<396.228 587.869 738.758 833.228>
AnchorPoint: "Anchor-1" 249 496 basechar 0
AnchorPoint: "Anchor-0" 90 -251 basechar 0
LayerCount: 2
Fore
SplineSet
227 -103 m 0xe8
 227 -161.147876886 178.061604629 -195 94 -195 c 0
 58.8194121717 -195 19.9011546773 -188.108225235 -2 -178 c 1
 24 -128 l 1
 43.3333333319 -136.666666667 63.3333333318 -141 84 -141 c 0
 115.609085898 -141 136 -128.451745168 136 -109 c 0xe8
 136 -94.2948508386 119.940032692 -84 97 -84 c 0
 80.4035419535 -84 84.5964580465 -89 68 -89 c 0
 56.8504086458 -89 49 -81.5627707566 49 -71 c 0
 49 -66.3333333333 51 -61.6666666667 55 -57 c 2
 111.920286273 11.469329865 l 1
 68.4933680231 26.2909021486 50 52.1345088954 50 98 c 0
 50 110 52.3333333333 127.333333333 57 150 c 2
 106 380 l 1
 28 380 l 1
 53 496 l 1
 131 496 l 1
 157 620 l 1
 312 620 l 1
 286 496 l 1
 394 496 l 1
 370 380 l 1
 261 380 l 1
 224 205 l 2
 219.098368152 183.759595323 217 170.270085776 217 160 c 0xf0
 217 134.698257706 233.344560384 124 272 124 c 2
 315 124 l 1
 289 0 l 1
 193 0 l 2
 181.031651895 0 169.724417742 0.546690383773 159.078297542 1.64007115127 c 1
 160 1 l 1
 120 -47 l 1
 130 -45 139.333333333 -44 148 -44 c 0
 194.862591624 -44 227 -68.0013556224 227 -103 c 0xe8
EndSplineSet
Substitution2: "'locl' Localized Forms in Latin lookup 8 subtable" uni021B
Substitution2: "'aalt' Access All Alternates lookup 0 subtable" uni021B
EndChar

StartChar: tildecomb
Encoding: 429 771 365
Width: 0
GlyphClass: 4
Flags: W
HStem: 568 80<296.089 408.249> 607 82<186.459 296.089>
AnchorPoint: "Anchor-4" 307 690 basemark 0
AnchorPoint: "Anchor-4" 266 496 mark 0
AnchorPoint: "Anchor-1" 266 496 mark 0
LayerCount: 2
Fore
SplineSet
453 690 m 0x80
 474.553368372 690 492 672.553368372 492 651 c 0
 492 608.885093508 431.903838458 568 370 568 c 0x80
 303.081074799 568 295.918925201 607 229 607 c 0
 208.333333333 607 191.333333333 596 178 574 c 1
 89 574 l 1
 110.006590472 641.687902634 165.958288227 689 225 689 c 0x40
 293.484641577 689 295.515358423 648 364 648 c 0
 410.876069227 648 406.123930773 690 453 690 c 0x80
EndSplineSet
Substitution2: "'case' Case-Sensitive Forms lookup 15 subtable" tildecomb.case
Substitution2: "Single Substitution lookup 7 subtable" tildecomb.case
Substitution2: "Single Substitution lookup 6 subtable" tildecomb.case
Substitution2: "Single Substitution lookup 4 subtable" tildecomb.case
Substitution2: "Single Substitution lookup 3 subtable" tildecomb.case
Substitution2: "'aalt' Access All Alternates lookup 0 subtable" tildecomb.case
EndChar

StartChar: copyleft
Encoding: 431 127279 367
Width: 814
Flags: W
HStem: -12 69<303.321 513.731> 145 85<342.991 451.333> 437 85<348.41 450.501> 610 69<303.469 513.584>
VStem: 62 70<228.47 439.039> 477 112<257.579 410.886> 684 70<228.732 438.778>
LayerCount: 2
Fore
SplineSet
589 334 m 0
 589 216.214255982 520.046514049 145 406 145 c 0
 334.225360013 145 276.196969651 175.805194884 244 231 c 1
 334 264 l 1
 346.666666667 241.333333333 368.666666667 230 400 230 c 0
 448.102906345 230 477 269.02984078 477 334 c 0
 477 398.076179408 447.901609849 437 400 437 c 0
 368.077144901 437 346.149950292 422.494317412 335 394 c 1
 243 428 l 1
 271.700312313 488.844662102 329.193079094 522 406 522 c 0
 514.97392128 522 589 445.951350823 589 334 c 0
132 334 m 0
 132 180.539081184 255.539081184 57 409 57 c 0
 560.778925636 57 684 181.117227632 684 334 c 0
 684 486.043578131 560.492695602 610 409 610 c 0
 255.827211278 610 132 486.619818365 132 334 c 0
754 334 m 0
 754 143.265159436 599.183583799 -12 409 -12 c 0
 216.960556187 -12 62 142.513983979 62 334 c 0
 62 524.469829289 217.425997788 679 409 679 c 0
 598.719523112 679 754 523.719523112 754 334 c 0
EndSplineSet
EndChar

StartChar: zero.alt1
Encoding: 432 -1 368
Width: 659
Flags: W
HStem: -12 113<251.86 372.162> 567 113<298.708 423.381>
VStem: 45.2114 157.008<231.014 430.271> 469.12 157.12<242.426 446.263>
DStem2: 204.79 227 242.746 128 0.570107 0.82157<0 332.236>
LayerCount: 2
Fore
SplineSet
310.0078125 101 m 0
 405.381319539 101 469.120327488 219.105084286 469.120327488 395.827258821 c 0
 469.120327488 415.479404176 468.115294083 434.055913357 466.189453125 450 c 1
 242.74609375 128 l 1
 260.921120301 109.99978027 283.341145832 101 310.0078125 101 c 0
361.05859375 567 m 0
 265.148793405 567 202.219719416 450.943348971 202.219719416 274.062147272 c 0
 202.219719416 255.901729182 203.126686262 239.295309306 204.790039062 227 c 1
 425.169921875 544 l 1
 407.095251411 559.333391018 385.724969495 567 361.05859375 567 c 0
45.2113697528 266.57579183 m 0
 45.2113697528 518.456944625 173.323358243 680 373.078125 680 c 0
 533.658606033 680 626.240763534 578.901622662 626.240763534 403.55005922 c 0
 626.240763534 151.66114808 496.961084904 -12 297.98828125 -12 c 0
 138.318609303 -12 45.2113697528 90.6099370756 45.2113697528 266.57579183 c 0
EndSplineSet
Substitution2: "'zero' Slashed Zero lookup 0-1" zero
Substitution2: "'aalt' Access All Alternates lookup 0 subtable" zero
Substitution2: "'tnum' Tabular Numbers lookup 14 subtable" zero
EndChar

StartChar: f_i
Encoding: 433 64257 369
Width: 643
Flags: W
HStem: 0 21G<18 177.211 353 513.234> 380 116<43 99 278 434> 578 179<512.595 630.215> 608 119<305.664 409>
VStem: 18 155<0 155> 353 156<0 156> 482 179<608.939 726.512>
DStem2: 18 0 173 0 0.207912 0.978148<32.2263 388.537 539.218 649.717> 353 0 509 0 0.207912 0.978148<32.4342 388.537>
LayerCount: 2
Fore
SplineSet
661 668 m 0xea
 661 617.516193754 621.483806246 578 571 578 c 0
 521.45081203 578 482 617.894079581 482 668 c 0
 482 717.813503918 521.186496082 757 571 757 c 0
 621.749785387 757 661 718.185898883 661 668 c 0xea
353 0 m 1xdc
 434 380 l 1
 253 380 l 1
 173 0 l 1
 18 0 l 1
 99 380 l 1
 19 380 l 1
 43 496 l 1
 124 496 l 1
 135 547 l 2
 168.350788605 697.078548721 206.749984413 727 366 727 c 2
 434 727 l 1
 409 608 l 1
 368 608 l 2
 308.148139989 608 301.917250562 601.919252487 285 527 c 2
 278 496 l 1
 614 496 l 1
 509 0 l 1
 353 0 l 1xdc
EndSplineSet
LCarets2: 1 354
Ligature2: "'liga' Standard Ligatures lookup 0-1" f i
EndChar

StartChar: f_f
Encoding: 434 64256 370
Width: 714
Flags: W
HStem: 0 21G<18 177.211 353 512.211> 380 116<43 99 278 434 613 695> 608 119<305.678 409 640.678 744>
VStem: 18 155<0 155> 353 155<0 155>
DStem2: 18 0 173 0 0.207912 0.978148<32.2263 388.537 539.218 653.436> 353 0 508 0 0.207912 0.978148<32.2263 388.537 539.218 653.436>
LayerCount: 2
Fore
SplineSet
353 0 m 1
 434 380 l 1
 253 380 l 1
 173 0 l 1
 18 0 l 1
 99 380 l 1
 19 380 l 1
 43 496 l 1
 124 496 l 1
 135 547 l 2
 166.357641507 695.236123491 207.121283027 727 366 727 c 2
 434 727 l 1
 409 608 l 1
 368 608 l 2
 308.251917391 608 301.887917668 601.789349668 285 527 c 2
 278 496 l 1
 459 496 l 1
 470 547 l 2
 501.357641507 695.236123491 542.121283027 727 701 727 c 2
 769 727 l 1
 744 608 l 1
 703 608 l 2
 643.251917391 608 636.887917668 601.789349668 620 527 c 2
 613 496 l 1
 720 496 l 1
 695 380 l 1
 588 380 l 1
 508 0 l 1
 353 0 l 1
EndSplineSet
LCarets2: 1 352
Ligature2: "'liga' Standard Ligatures lookup 0-1" f f
EndChar

StartChar: f_f_i
Encoding: 435 64259 371
Width: 978
Flags: W
HStem: 0 21G<18 177.211 353 512.211 688 848.234> 380 116<43 99 278 434 613 769> 578 179<847.595 965.215> 608 119<305.662 409 640.649 744>
VStem: 18 155<0 155> 353 155<0 155> 688 156<0 156> 817 179<608.939 726.512>
DStem2: 18 0 173 0 0.207912 0.978148<32.2263 388.537 539.218 653.349> 353 0 508 0 0.207912 0.978148<32.2263 388.537 539.218 649.397> 688 0 844 0 0.207912 0.978148<32.4342 388.537>
LayerCount: 2
Fore
SplineSet
996 668 m 0xed
 996 617.516193754 956.483806246 578 906 578 c 0
 856.45081203 578 817 617.894079581 817 668 c 0
 817 717.813503918 856.186496082 757 906 757 c 0
 956.749785387 757 996 718.185898883 996 668 c 0xed
688 0 m 1xde
 769 380 l 1
 588 380 l 1
 508 0 l 1
 353 0 l 1
 434 380 l 1
 253 380 l 1
 173 0 l 1
 18 0 l 1
 99 380 l 1
 19 380 l 1
 43 496 l 1
 124 496 l 1
 135 547 l 1
 165.63890014 694.623791581 207.188367611 727 366 727 c 2
 434 727 l 1
 409 608 l 1
 368 608 l 2
 308.178757104 608 301.908596569 601.880927671 285 527 c 2
 278 496 l 1
 459 496 l 1
 470 547 l 2
 502.604746538 696.438421635 541.825438773 727 701 727 c 2
 769 727 l 1
 744 608 l 1
 703 608 l 2
 643.251917391 608 636.887917668 601.789349668 620 527 c 2
 613 496 l 1
 949 496 l 1
 844 0 l 1
 688 0 l 1xde
EndSplineSet
LCarets2: 2 352 690
Ligature2: "'liga' Standard Ligatures lookup 0-1" f f i
EndChar

StartChar: f_f_l
Encoding: 437 64260 373
Width: 1031
Flags: W
HStem: 0 124<888.031 958> 380 116<43 99 278 434 613 695> 608 119<305.678 409 640.662 744> 648 20G<830.758 991>
VStem: 18 155<0 155> 353 155<0 155> 835 156<512 668>
DStem2: 18 0 173 0 0.207912 0.978148<32.2263 388.537 539.218 653.436> 353 0 508 0 0.207912 0.978148<32.2263 388.537 539.218 653.349> 693.242 0 849.638 0 0.207912 0.978148<196.054 682.876>
LayerCount: 2
Fore
SplineSet
886 159 m 0xde
 886 134.13000301 901.918576159 124 941 124 c 2
 984 124 l 1
 958 0 l 1
 861 0 l 2
 817 0 782.166666667 7.33333333327 756.5 22 c 0
 730.833333333 36.6666666665 718 62.3333333328 718 99 c 0
 718 110.166454149 723 128.833545851 723 140 c 1
 835 668 l 1
 991 668 l 1
 893 204 l 2
 886 169 886 169 886 159 c 0xde
353 0 m 1
 434 380 l 1
 253 380 l 1
 173 0 l 1
 18 0 l 1
 99 380 l 1
 19 380 l 1
 43 496 l 1
 124 496 l 1
 135 547 l 2
 166.357641507 695.236123491 207.121283027 727 366 727 c 2
 434 727 l 1
 409 608 l 1
 368 608 l 2
 308.251917391 608 301.887917668 601.789349668 285 527 c 2
 278 496 l 1
 459 496 l 1
 470 547 l 1
 500.63890014 694.623791581 542.188367611 727 701 727 c 2
 769 727 l 1
 744 608 l 1
 703 608 l 2xee
 643.178757104 608 636.908596569 601.880927671 620 527 c 2
 613 496 l 1
 720 496 l 1
 695 380 l 1
 588 380 l 1
 508 0 l 1
 353 0 l 1
EndSplineSet
LCarets2: 2 353 692
Ligature2: "'liga' Standard Ligatures lookup 0-1" f f l
EndChar

StartChar: dong
Encoding: 438 8363 374
Width: 638
Flags: W
HStem: -121 78<-9 505> -13 118<131.09 272.234> -1 21G<338.438 489.789> 392 118<223.645 348.211> 555 78<304 435 606 656>
VStem: 3 155<139.692 317.852> 379 110<-1 289>
LayerCount: 2
Fore
SplineSet
-25 -121 m 1x9e
 -9 -43 l 1
 521 -43 l 1
 505 -121 l 1
 -25 -121 l 1x9e
EndSplineSet
Refer: 318 273 N 1 0 0 1 0 0 2
EndChar

StartChar: uni0237
Encoding: 474 567 410
Width: 263
HStem: -162 120<-148 -28.4787> 476 20G<88.7549 249>
VStem: 93 156<340 496>
DStem2: -46.7239 -162 108.677 -162 0.207912 0.978148<124.954 672.671>
AnchorPoint: "Anchor-1" 168 496 basechar 0
LayerCount: 2
Fore
SplineSet
-74 -162 m 0
 -112.544978579 -162 -141.165388607 -161.427591799 -174 -160 c 1
 -148 -42 l 1
 -87 -42 l 2
 -30.356716947 -42 -18.7867133936 -30.708791713 -4 39 c 2
 93 496 l 1
 249 496 l 1
 148 23 l 2
 115.497724642 -129.510676679 76.5105366568 -162 -74 -162 c 0
EndSplineSet
EndChar

StartChar: uni2010
Encoding: 489 8208 425
Width: 336
Flags: W
HStem: 184 129<38 296>
VStem: 10 314
LayerCount: 2
Fore
SplineSet
10 184 m 1
 38 313 l 1
 324 313 l 1
 296 184 l 1
 10 184 l 1
EndSplineSet
EndChar

StartChar: Ldot
Encoding: 496 319 432
Width: 543
HStem: 0 139<168 458> 250 194<328.203 449.463> 648 20G<114.749 279>
VStem: 119 160<508 668> 291 195<287.817 407.176>
DStem2: -23 0 138.455 0 0.207912 0.978148<175.674 682.926>
LayerCount: 2
Fore
SplineSet
486 347 m 0
 486 293.412614684 443.961420836 251.374035521 389 250 c 0
 334.160173168 251.37099567 291 294.090758908 291 347 c 0
 291 401.256543766 334.184110421 444 389 444 c 0
 443.934068394 444 486 401.934068394 486 347 c 0
EndSplineSet
Refer: 26 76 N 1 0 0 1 0 0 3
EndChar

StartChar: ldot
Encoding: 497 320 433
Width: 485
Flags: W
HStem: 0 124<174.031 244> 250 194<307.48 428.013> 648 20G<116.758 277>
VStem: 4 168<65.3801 216.375> 121 156<512 668> 270 195<287.098 407.176>
DStem2: -20.7579 0 135.638 0 0.207912 0.978148<196.076 682.876>
LayerCount: 2
Fore
SplineSet
465 347 m 0xe4
 465 293.128512445 421.871487555 250 368 250 c 0
 313.838557533 250 270 293.391225314 270 347 c 0
 270 401.256543766 313.184110421 444 368 444 c 0
 422.517225277 444 465 401.517225277 465 347 c 0xe4
EndSplineSet
Refer: 52 108 N 1 0 0 1 0 0 2
EndChar

